<svg version="1.1" viewBox="0.0 0.0 604.0341207349081 545.5800524934383" fill="none" stroke="none" stroke-linecap="square" stroke-miterlimit="10" xmlns:xlink="http://www.w3.org/1999/xlink" xmlns="http://www.w3.org/2000/svg"><clipPath id="p.0"><path d="m0 0l604.0341 0l0 545.5801l-604.0341 0l0 -545.5801z" clip-rule="nonzero"/></clipPath><g clip-path="url(#p.0)"><path fill="#000000" fill-opacity="0.0" d="m0 0l604.0341 0l0 545.5801l-604.0341 0z" fill-rule="evenodd"/><path fill="#cfe2f3" d="m230.3676 37.464535l94.74049 0l0 0c12.411285 0 22.472595 9.391441 22.472595 20.976376c0 11.584938 -10.06131 20.97638 -22.472595 20.97638l-94.74049 0l0 0c-12.41127 0 -22.47258 -9.391441 -22.47258 -20.97638c0 -11.584934 10.06131 -20.976376 22.47258 -20.976376z" fill-rule="evenodd"/><path stroke="#000000" stroke-width="2.0" stroke-linejoin="round" stroke-linecap="butt" d="m230.3676 37.464535l94.74049 0l0 0c12.411285 0 22.472595 9.391441 22.472595 20.976376c0 11.584938 -10.06131 20.97638 -22.472595 20.97638l-94.74049 0l0 0c-12.41127 0 -22.47258 -9.391441 -22.47258 -20.97638c0 -11.584934 10.06131 -20.976376 22.47258 -20.976376z" fill-rule="evenodd"/><path fill="#000000" d="m257.95682 62.595284l2.5625 -0.390625q0.171875 0.75 0.671875 1.140625q0.5 0.390625 1.40625 0.390625q0.984375 0 1.484375 -0.375q0.34375 -0.25 0.34375 -0.671875q0 -0.296875 -0.1875 -0.484375q-0.1875 -0.1875 -0.859375 -0.34375q-3.09375 -0.6875 -3.921875 -1.25q-1.140625 -0.78125 -1.140625 -2.171875q0 -1.265625 0.984375 -2.109375q1.0 -0.859375 3.078125 -0.859375q1.984375 0 2.953125 0.65625q0.96875 0.640625 1.328125 1.90625l-2.40625 0.4375q-0.15625 -0.5625 -0.59375 -0.859375q-0.421875 -0.296875 -1.234375 -0.296875q-1.0 0 -1.4375 0.28125q-0.296875 0.203125 -0.296875 0.515625q0 0.265625 0.25 0.46875q0.34375 0.25 2.390625 0.71875q2.046875 0.453125 2.859375 1.140625q0.796875 0.671875 0.796875 1.890625q0 1.34375 -1.109375 2.296875q-1.109375 0.953125 -3.28125 0.953125q-1.984375 0 -3.140625 -0.796875q-1.140625 -0.8125 -1.5 -2.1875zm15.719482 -6.90625l0 2.03125l-1.75 0l0 3.90625q0 1.1875 0.046875 1.390625q0.046875 0.1875 0.21875 0.3125q0.1875 0.125 0.4375 0.125q0.359375 0 1.03125 -0.25l0.21875 2.0q-0.890625 0.375 -2.015625 0.375q-0.703125 0 -1.265625 -0.234375q-0.546875 -0.234375 -0.8125 -0.59375q-0.25 -0.375 -0.34375 -1.0q-0.09375 -0.453125 -0.09375 -1.8125l0 -4.21875l-1.171875 0l0 -2.03125l1.171875 0l0 -1.921875l2.578125 -1.5l0 3.421875l1.75 0zm3.681427 2.953125l-2.328125 -0.421875q0.40625 -1.40625 1.359375 -2.078125q0.953125 -0.671875 2.8437195 -0.671875q1.703125 0 2.546875 0.40625q0.84375 0.40625 1.171875 1.03125q0.34375 0.625 0.34375 2.28125l-0.015625 3.0q0 1.265625 0.109375 1.875q0.125 0.609375 0.46875 1.296875l-2.53125 0q-0.109375 -0.25 -0.25 -0.75q-0.0625 -0.234375 -0.09375 -0.3125q-0.65625 0.640625 -1.40625 0.96875q-0.734375 0.3125 -1.5937195 0.3125q-1.484375 0 -2.34375 -0.8125q-0.859375 -0.8125 -0.859375 -2.046875q0 -0.828125 0.390625 -1.46875q0.390625 -0.640625 1.09375 -0.96875q0.703125 -0.34375 2.03125 -0.609375q1.7968445 -0.328125 2.4843445 -0.625l0 -0.25q0 -0.75 -0.359375 -1.0625q-0.359375 -0.3125 -1.375 -0.3125q-0.6874695 0 -1.0780945 0.28125q-0.375 0.265625 -0.609375 0.9375zm3.4218445 2.078125q-0.484375 0.15625 -1.5625 0.390625q-1.0624695 0.21875 -1.3905945 0.4375q-0.5 0.359375 -0.5 0.90625q0 0.53125 0.40625 0.9375q0.40625 0.390625 1.0155945 0.390625q0.703125 0 1.328125 -0.46875q0.46875 -0.34375 0.609375 -0.84375q0.09375 -0.328125 0.09375 -1.25l0 -0.5zm7.5007324 4.640625l-2.5625 0l0 -9.671875l2.375 0l0 1.375q0.609375 -0.984375 1.09375 -1.28125q0.484375 -0.3125 1.109375 -0.3125q0.875 0 1.6875 0.484375l-0.796875 2.234375q-0.640625 -0.421875 -1.203125 -0.421875q-0.53125 0 -0.90625 0.296875q-0.375 0.296875 -0.59375 1.078125q-0.203125 0.765625 -0.203125 3.234375l0 2.984375zm9.244629 -9.671875l0 2.03125l-1.75 0l0 3.90625q0 1.1875 0.046875 1.390625q0.046875 0.1875 0.21875 0.3125q0.1875 0.125 0.4375 0.125q0.359375 0 1.03125 -0.25l0.21875 2.0q-0.890625 0.375 -2.015625 0.375q-0.703125 0 -1.265625 -0.234375q-0.546875 -0.234375 -0.8125 -0.59375q-0.25 -0.375 -0.34375 -1.0q-0.09375 -0.453125 -0.09375 -1.8125l0 -4.21875l-1.171875 0l0 -2.03125l1.171875 0l0 -1.921875l2.578125 -1.5l0 3.421875l1.75 0z" fill-rule="nonzero"/><path fill="#434343" d="m301.48032 284.13605l-1.1937256 -2.3322144l-2.906952 0l0 -1.7198486l-1.5473938 0l0 1.7198486l-6.7533875 0c-1.1936951 0 -1.9772339 0.09555054 -2.350586 0.2866516c-0.37088013 0.19110107 -0.6705322 0.5211487 -0.8989868 0.99020386c-0.22842407 0.46905518 -0.34262085 1.1292114 -0.34262085 1.9804382c0 0.5211792 0.058929443 1.1118164 0.17684937 1.7719727l1.7574158 -0.33877563c-0.051574707 -0.42559814 -0.07736206 -0.7687073 -0.07736206 -1.0292969c0 -0.34744263 0.04788208 -0.6152649 0.14367676 -0.8034668c0.09579468 -0.18530273 0.22473145 -0.31991577 0.38684082 -0.40390015c0.16210938 -0.08105469 0.52685547 -0.12161255 1.0942688 -0.12161255l6.8638916 0l0 2.3582764l1.5473938 0l0 -2.3582764l4.1006775 0z" fill-rule="evenodd"/><path fill="#434343" d="m297.64493 293.86884c0 -0.5472107 -0.1326294 -1.0495605 -0.3979187 -1.507019c-0.2652588 -0.45458984 -0.8142395 -0.95114136 -1.6468811 -1.489685l1.7795105 0l0 -2.1107178l-11.738251 0l0 2.3452454l6.145447 0c0.84002686 0 1.613739 0.13027954 2.3211365 0.39086914c0.4642334 0.17373657 0.82650757 0.46472168 1.0868835 0.8729553c0.26281738 0.40826416 0.39422607 0.8686218 0.39422607 1.3811035c0 0.5732727 -0.14370728 1.1465759 -0.4310913 1.7198486l1.8458557 0.8078003c0.42739868 -0.8164978 0.64108276 -1.6199646 0.64108276 -2.4104004z" fill-rule="evenodd"/><path fill="#434343" d="m297.37964 297.62125l-7.2728577 0c-0.8473816 0 -1.4663391 0.04776001 -1.8568726 0.14331055c-0.5821228 0.13897705 -1.0746155 0.37930298 -1.477417 0.72094727c-0.4003601 0.34454346 -0.7331848 0.87005615 -0.9984741 1.5765381c-0.2652588 0.7093506 -0.39788818 1.47229 -0.39788818 2.2887878c0 1.8501282 0.6631775 3.3137512 1.9895325 4.3908386l-1.7242737 0l0 2.0976868l11.738251 0l0 -2.3452454l-6.2891235 0c-1.0021362 0 -1.7672424 -0.12884521 -2.2953491 -0.38653564c-0.52560425 -0.25479126 -0.94195557 -0.69055176 -1.2489624 -1.307251c-0.30459595 -0.61672974 -0.45687866 -1.2768555 -0.45687866 -1.9804382c0 -0.70358276 0.1486206 -1.2942505 0.44580078 -1.7719727c0.29968262 -0.47772217 0.7110901 -0.7904358 1.2342529 -0.93811035c0.36108398 -0.09555054 1.0610962 -0.14331055 2.1000671 -0.14331055l6.510193 0z" fill-rule="evenodd"/><path fill="#434343" d="m296.0091 318.22034c0 1.1900024 -0.3831787 2.1585083 -1.1495361 2.9055176c-0.49368286 0.48641968 -1.2342224 0.7817383 -2.2216187 0.8859863l0 -7.726288c1.024231 0.07815552 1.8421631 0.4835205 2.4537354 1.2160339c0.6116028 0.7354431 0.91741943 1.6416931 0.91741943 2.71875zm1.6358337 -0.026031494c0 -1.9109497 -0.5452881 -3.4657593 -1.6358337 -4.664459c-1.0905762 -1.1986694 -2.6232605 -1.7980042 -4.598053 -1.7980042c-1.9084778 0 -3.3920288 0.59210205 -4.450653 1.7763062c-1.0561829 1.1871033 -1.584259 2.792572 -1.584259 4.816437c0 1.6069336 0.3315735 2.9272156 0.994751 3.9608765c0.6631775 1.0336304 1.5953369 1.7415466 2.7964172 2.1237488l0.25421143 -2.4234314c-0.84002686 -0.35614014 -1.4516296 -0.8381958 -1.8347778 -1.446228c-0.3831787 -0.6080322 -0.57476807 -1.3420105 -0.57476807 -2.2019348c0 -1.1552429 0.34265137 -2.1194153 1.0279236 -2.8924866c0.68530273 -0.7730408 1.672699 -1.2030029 2.9621887 -1.2898865l0 10.319122c0.23580933 0.008666992 0.4126587 0.013000488 0.5305481 0.013000488c1.9379578 0 3.441162 -0.5863037 4.509613 -1.7589111c1.0684509 -1.1726379 1.6026917 -2.684021 1.6026917 -4.534149z" fill-rule="evenodd"/><path fill="#000000" fill-opacity="0.0" d="m277.73624 262.99738l0 125.82678" fill-rule="evenodd"/><path stroke="#434343" stroke-width="2.0" stroke-linejoin="round" stroke-linecap="butt" d="m277.73624 262.99738l0 113.82678" fill-rule="evenodd"/><path fill="#434343" stroke="#434343" stroke-width="2.0" stroke-linecap="butt" d="m274.43277 376.82416l3.3034668 9.076172l3.3034668 -9.076172z" fill-rule="evenodd"/><path fill="#000000" fill-opacity="0.0" d="m357.72177 412.76904l139.68506 0l0 -149.85828" fill-rule="evenodd"/><path stroke="#434343" stroke-width="2.0" stroke-linejoin="round" stroke-linecap="butt" d="m357.72177 412.76904l139.68506 0l0 -137.85828" fill-rule="evenodd"/><path fill="#434343" stroke="#434343" stroke-width="2.0" stroke-linecap="butt" d="m500.7103 274.91077l-3.3034668 -9.076202l-3.3034668 9.076202z" fill-rule="evenodd"/><path fill="#ffd966" d="m433.2021 215.1693l120.451294 0c2.1106567 0 4.1348267 0.83843994 5.6272583 2.3308868c1.4924316 1.4924469 2.3309326 3.516632 2.3309326 5.6272736l0 39.78987l-128.40948 0z" fill-rule="evenodd"/><path stroke="#000000" stroke-width="2.0" stroke-linejoin="round" stroke-linecap="butt" d="m433.2021 215.1693l120.451294 0c2.1106567 0 4.1348267 0.83843994 5.6272583 2.3308868c1.4924316 1.4924469 2.3309326 3.516632 2.3309326 5.6272736l0 39.78987l-128.40948 0z" fill-rule="evenodd"/><path fill="#000000" d="m472.61884 238.85393l0 -2.5625l2.546875 0l0 2.5625l-2.546875 0zm0 4.546875l2.546875 0l0 1.828125q0 1.109375 -0.1875 1.75q-0.1875 0.65625 -0.71875 1.15625q-0.53125 0.515625 -1.359375 0.8125l-0.5 -1.0625q0.78125 -0.25 1.109375 -0.71875q0.328125 -0.453125 0.34375 -1.203125l-1.234375 0l0 -2.5625zm10.895996 -7.109375l2.390625 0l0 1.421875q0.46875 -0.734375 1.25 -1.1875q0.796875 -0.453125 1.765625 -0.453125q1.6875 0 2.859375 1.328125q1.171875 1.3125 1.171875 3.671875q0 2.421875 -1.1875 3.765625q-1.1875 1.34375 -2.859375 1.34375q-0.8125 0 -1.46875 -0.3125q-0.640625 -0.328125 -1.359375 -1.09375l0 4.875l-2.5625 0l0 -13.359375zm2.53125 4.671875q0 1.625 0.640625 2.40625q0.65625 0.78125 1.578125 0.78125q0.90625 0 1.484375 -0.71875q0.59375 -0.71875 0.59375 -2.34375q0 -1.515625 -0.609375 -2.25q-0.609375 -0.75 -1.515625 -0.75q-0.9375 0 -1.5625 0.734375q-0.609375 0.71875 -0.609375 2.140625zm8.349091 0.03125q0 -1.28125 0.625 -2.46875q0.625 -1.203125 1.78125 -1.828125q1.15625 -0.625 2.578125 -0.625q2.1875 0 3.59375 1.421875q1.40625 1.421875 1.40625 3.609375q0 2.1875 -1.421875 3.640625q-1.421875 1.4375 -3.5625 1.4375q-1.328125 0 -2.546875 -0.59375q-1.203125 -0.609375 -1.828125 -1.765625q-0.625 -1.171875 -0.625 -2.828125zm2.625 0.125q0 1.453125 0.671875 2.21875q0.6875 0.75 1.6875 0.75q1.0 0 1.671875 -0.75q0.6875 -0.765625 0.6875 -2.234375q0 -1.421875 -0.6875 -2.1875q-0.671875 -0.765625 -1.671875 -0.765625q-1.0 0 -1.6875 0.765625q-0.671875 0.765625 -0.671875 2.203125zm8.458496 2.078125l2.5625 -0.390625q0.171875 0.75 0.671875 1.140625q0.5 0.390625 1.40625 0.390625q0.984375 0 1.484375 -0.375q0.34375 -0.25 0.34375 -0.671875q0 -0.296875 -0.1875 -0.484375q-0.1875 -0.1875 -0.859375 -0.34375q-3.09375 -0.6875 -3.921875 -1.25q-1.140625 -0.78125 -1.140625 -2.171875q0 -1.265625 0.984375 -2.109375q1.0 -0.859375 3.078125 -0.859375q1.984375 0 2.9530945 0.65625q0.96875 0.640625 1.328125 1.90625l-2.4062195 0.4375q-0.15625 -0.5625 -0.59375 -0.859375q-0.421875 -0.296875 -1.234375 -0.296875q-1.0 0 -1.4375 0.28125q-0.296875 0.203125 -0.296875 0.515625q0 0.265625 0.25 0.46875q0.34375 0.25 2.390625 0.71875q2.0468445 0.453125 2.8593445 1.140625q0.796875 0.671875 0.796875 1.890625q0 1.34375 -1.109375 2.296875q-1.109375 0.953125 -3.2812195 0.953125q-1.984375 0 -3.140625 -0.796875q-1.140625 -0.8125 -1.5 -2.1875zm15.719452 -6.90625l0 2.03125l-1.75 0l0 3.90625q0 1.1875 0.046875 1.390625q0.046875 0.1875 0.21875 0.3125q0.1875 0.125 0.4375 0.125q0.359375 0 1.03125 -0.25l0.21875 2.0q-0.890625 0.375 -2.015625 0.375q-0.703125 0 -1.265625 -0.234375q-0.546875 -0.234375 -0.8125 -0.59375q-0.25 -0.375 -0.34375 -1.0q-0.09375 -0.453125 -0.09375 -1.8125l0 -4.21875l-1.171875 0l0 -2.03125l1.171875 0l0 -1.921875l2.578125 -1.5l0 3.421875l1.75 0z" fill-rule="nonzero"/><path fill="#000000" fill-opacity="0.0" d="m277.73752 166.4567l0 48.629913" fill-rule="evenodd"/><path stroke="#434343" stroke-width="2.0" stroke-linejoin="round" stroke-linecap="butt" d="m277.73752 166.4567l0 36.629913" fill-rule="evenodd"/><path fill="#434343" stroke="#434343" stroke-width="2.0" stroke-linecap="butt" d="m274.43408 203.08661l3.3034363 9.076202l3.3034668 -9.076202z" fill-rule="evenodd"/><path fill="#000000" fill-opacity="0.0" d="m433.2021 239.0433l-56.22046 0" fill-rule="evenodd"/><path stroke="#434343" stroke-width="2.0" stroke-linejoin="round" stroke-linecap="butt" d="m433.2021 239.0433l-44.22046 0" fill-rule="evenodd"/><path fill="#434343" stroke="#434343" stroke-width="2.0" stroke-linecap="butt" d="m388.98163 235.73984l-9.076202 3.3034668l9.076202 3.3034668z" fill-rule="evenodd"/><path fill="#000000" fill-opacity="0.0" d="m277.73785 79.41729l0 45.102364" fill-rule="evenodd"/><path stroke="#000000" stroke-width="2.0" stroke-linejoin="round" stroke-linecap="butt" d="m277.73785 79.41729l0 33.102364" fill-rule="evenodd"/><path fill="#000000" stroke="#000000" stroke-width="2.0" stroke-linecap="butt" d="m274.4344 112.51965l3.3034668 9.076195l3.3034363 -9.076195z" fill-rule="evenodd"/><path fill="#ffd966" d="m178.50658 239.04462l39.691864 -23.952759l119.07558 0l39.691864 23.952759l-39.691864 23.952759l-119.07558 0z" fill-rule="evenodd"/><path stroke="#000000" stroke-width="2.0" stroke-linejoin="round" stroke-linecap="butt" d="m178.50658 239.04462l39.691864 -23.952759l119.07558 0l39.691864 23.952759l-39.691864 23.952759l-119.07558 0z" fill-rule="evenodd"/><path fill="#000000" d="m245.55003 239.15211l-2.53125 0.453125q-0.125 -0.75 -0.578125 -1.125q-0.453125 -0.390625 -1.171875 -0.390625q-0.953125 0 -1.53125 0.65625q-0.5625 0.65625 -0.5625 2.203125q0 1.734375 0.578125 2.4375q0.578125 0.703125 1.546875 0.703125q0.734375 0 1.203125 -0.40625q0.46875 -0.421875 0.65625 -1.421875l2.515625 0.421875q-0.390625 1.734375 -1.515625 2.625q-1.109375 0.875 -2.96875 0.875q-2.125 0 -3.390625 -1.328125q-1.25 -1.34375 -1.25 -3.71875q0 -2.390625 1.265625 -3.71875q1.265625 -1.34375 3.421875 -1.34375q1.765625 0 2.796875 0.765625q1.046875 0.75 1.515625 2.3125zm1.3444672 1.84375q0 -1.28125 0.625 -2.46875q0.625 -1.203125 1.78125 -1.828125q1.15625 -0.625 2.578125 -0.625q2.1875 0 3.59375 1.421875q1.40625 1.421875 1.40625 3.609375q0 2.1875 -1.421875 3.640625q-1.421875 1.4375 -3.5625 1.4375q-1.328125 0 -2.546875 -0.59375q-1.203125 -0.609375 -1.828125 -1.765625q-0.625 -1.171875 -0.625 -2.828125zm2.625 0.125q0 1.453125 0.671875 2.21875q0.6875 0.75 1.6875 0.75q1.0 0 1.671875 -0.75q0.6875 -0.765625 0.6875 -2.234375q0 -1.421875 -0.6875 -2.1875q-0.671875 -0.765625 -1.671875 -0.765625q-1.0 0 -1.6875 0.765625q-0.671875 0.765625 -0.671875 2.203125zm18.16159 4.84375l-2.5625 0l0 -4.9375q0 -1.5625 -0.171875 -2.015625q-0.15625 -0.46875 -0.53125 -0.71875q-0.359375 -0.265625 -0.875 -0.265625q-0.671875 0 -1.203125 0.375q-0.53125 0.359375 -0.734375 0.96875q-0.1875 0.59375 -0.1875 2.21875l0 4.375l-2.546875 0l0 -9.671875l2.375 0l0 1.421875q1.265625 -1.640625 3.1875 -1.640625q0.84375 0 1.546875 0.3125q0.703125 0.296875 1.0625 0.78125q0.359375 0.46875 0.5 1.078125q0.140625 0.59375 0.140625 1.703125l0 6.015625zm11.474121 0l-2.390625 0l0 -1.421875q-0.59375 0.828125 -1.40625 1.234375q-0.796875 0.40625 -1.609375 0.40625q-1.671875 0 -2.859375 -1.34375q-1.1875 -1.34375 -1.1875 -3.75q0 -2.453125 1.15625 -3.734375q1.15625 -1.28125 2.921875 -1.28125q1.625 0 2.8125 1.34375l0 -4.8125l2.5625 0l0 13.359375zm-6.84375 -5.046875q0 1.546875 0.4375 2.234375q0.609375 1.015625 1.71875 1.015625q0.890625 0 1.5 -0.75q0.625 -0.765625 0.625 -2.25q0 -1.671875 -0.609375 -2.40625q-0.59375 -0.734375 -1.53125 -0.734375q-0.90625 0 -1.53125 0.734375q-0.609375 0.71875 -0.609375 2.15625zm9.364716 -5.9375l0 -2.375l2.5625 0l0 2.375l-2.5625 0zm0 10.984375l0 -9.671875l2.5625 0l0 9.671875l-2.5625 0zm9.620819 -9.671875l0 2.03125l-1.75 0l0 3.90625q0 1.1875 0.046875 1.390625q0.046875 0.1875 0.21875 0.3125q0.1875 0.125 0.4375 0.125q0.359375 0 1.03125 -0.25l0.21875 2.0q-0.890625 0.375 -2.015625 0.375q-0.703125 0 -1.265625 -0.234375q-0.546875 -0.234375 -0.8125 -0.59375q-0.25 -0.375 -0.34375 -1.0q-0.09375 -0.453125 -0.09375 -1.8125l0 -4.21875l-1.171875 0l0 -2.03125l1.171875 0l0 -1.921875l2.578125 -1.5l0 3.421875l1.75 0zm1.775177 -1.3125l0 -2.375l2.5625 0l0 2.375l-2.5625 0zm0 10.984375l0 -9.671875l2.5625 0l0 9.671875l-2.5625 0zm4.5895386 -4.96875q0 -1.28125 0.625 -2.46875q0.625 -1.203125 1.78125 -1.828125q1.15625 -0.625 2.578125 -0.625q2.1875 0 3.59375 1.421875q1.40625 1.421875 1.40625 3.609375q0 2.1875 -1.421875 3.640625q-1.421875 1.4375 -3.5625 1.4375q-1.328125 0 -2.546875 -0.59375q-1.203125 -0.609375 -1.828125 -1.765625q-0.625 -1.171875 -0.625 -2.828125zm2.625 0.125q0 1.453125 0.671875 2.21875q0.6875 0.75 1.6875 0.75q1.0 0 1.671875 -0.75q0.6875 -0.765625 0.6875 -2.234375q0 -1.421875 -0.6875 -2.1875q-0.671875 -0.765625 -1.671875 -0.765625q-1.0 0 -1.6875 0.765625q-0.671875 0.765625 -0.671875 2.203125zm18.161621 4.84375l-2.5625 0l0 -4.9375q0 -1.5625 -0.171875 -2.015625q-0.15625 -0.46875 -0.53125 -0.71875q-0.359375 -0.265625 -0.875 -0.265625q-0.671875 0 -1.203125 0.375q-0.53125 0.359375 -0.734375 0.96875q-0.1875 0.59375 -0.1875 2.21875l0 4.375l-2.546875 0l0 -9.671875l2.375 0l0 1.421875q1.265625 -1.640625 3.1875 -1.640625q0.84375 0 1.546875 0.3125q0.703125 0.296875 1.0625 0.78125q0.359375 0.46875 0.5 1.078125q0.140625 0.59375 0.140625 1.703125l0 6.015625z" fill-rule="nonzero"/><path fill="#000000" fill-opacity="0.0" d="m178.50658 239.04462l-95.30709 0l0 244.8504" fill-rule="evenodd"/><path stroke="#cc0000" stroke-width="2.0" stroke-linejoin="round" stroke-linecap="butt" d="m178.50658 239.04462l-95.30709 0l0 232.8504" fill-rule="evenodd"/><path fill="#cc0000" stroke="#cc0000" stroke-width="2.0" stroke-linecap="butt" d="m79.89602 471.89502l3.3034668 9.076202l3.3034668 -9.076202z" fill-rule="evenodd"/><path fill="#434343" d="m400.49832 371.01758c-0.5019226 0 -0.962677 0.14447021 -1.3822937 0.43341064c-0.41693115 0.28894043 -0.872406 0.88690186 -1.3663635 1.7938538l0 -1.938324l-1.9360046 0l0 12.785828l2.151123 0l0 -6.6939087c0 -0.914978 0.119506836 -1.7577515 0.3585205 -2.5282593c0.15933228 -0.50564575 0.426239 -0.9002991 0.8006897 -1.1838684c0.37445068 -0.2862854 0.7967224 -0.42941284 1.2667847 -0.42941284c0.5258179 0 1.0516663 0.15649414 1.5774841 0.46954346l0.7409363 -2.0105896c-0.74890137 -0.46551514 -1.4858704 -0.6982727 -2.2108765 -0.6982727z" fill-rule="evenodd"/><path fill="#434343" d="m409.22235 372.7994c1.0914917 0 1.9798279 0.4173584 2.6650085 1.2520752c0.446167 0.53778076 0.717041 1.3444214 0.8126526 2.4199219l-7.086792 0c0.07171631 -1.1156311 0.44351196 -2.0065613 1.1154175 -2.6727295c0.67456055 -0.66619873 1.5057983 -0.9992676 2.4937134 -0.9992676zm-0.023895264 -1.7818298c-1.7527771 0 -3.178894 0.5939331 -4.278351 1.7818298c-1.0994873 1.1878662 -1.6492004 2.8573303 -1.6492004 5.0083923c0 2.0787964 0.5430908 3.6947327 1.6292725 4.8478394c1.0888367 1.1504517 2.561432 1.725647 4.4177856 1.725647c1.4739075 0 2.6849365 -0.36117554 3.6330261 -1.0835266c0.9480896 -0.7223816 1.5974121 -1.7377014 1.9479675 -3.04599l-2.2228394 -0.276886c-0.32666016 0.914978 -0.76882935 1.5811768 -1.3265381 1.9985352c-0.55770874 0.4173584 -1.2309265 0.6260376 -2.0196838 0.6260376c-1.0596313 0 -1.9439697 -0.37319946 -2.6530457 -1.1196594c-0.7090759 -0.74642944 -1.1034546 -1.8219604 -1.183136 -3.2265625l9.464996 0c0.007965088 -0.25683594 0.011932373 -0.4494629 0.011932373 -0.57788086c0 -2.1109009 -0.53778076 -3.7482605 -1.6133423 -4.912079c-1.0755615 -1.1638184 -2.461853 -1.745697 -4.158844 -1.745697z" fill-rule="evenodd"/><path fill="#434343" d="m423.03738 372.71512c0.92419434 0 1.7182312 0.40533447 2.3821716 1.2159729c0.66659546 0.81066895 0.9998779 2.0306396 0.9998779 3.6599731c0 1.7095947 -0.34124756 2.972412 -1.0237732 3.7884216c-0.6798706 0.813324 -1.4978333 1.2199707 -2.453888 1.2199707c-0.9401245 0 -1.7408142 -0.39328003 -2.4020996 -1.1798401c-0.6612549 -0.7865906 -0.99191284 -2.0025635 -0.99191284 -3.6479492c0 -1.6453857 0.3518982 -2.8988037 1.0556641 -3.760315c0.7064209 -0.86416626 1.5177307 -1.2962341 2.43396 -1.2962341zm0.20315552 -1.6975403c-0.82858276 0 -1.5336609 0.16317749 -2.115265 0.4895935c-0.581604 0.32373047 -1.1034546 0.8106384 -1.5655518 1.4607849l0 -1.661438l-1.9599304 0l0 17.685883l2.1511536 0l0 -6.2243958c0.3664856 0.46554565 0.8338928 0.85079956 1.4021912 1.1557922c0.5709839 0.30499268 1.2149963 0.457489 1.9320374 0.457489c0.97998047 0 1.9134521 -0.27822876 2.8004456 -0.8347168c0.88967896 -0.5591736 1.5668945 -1.3617859 2.0316467 -2.4078674c0.46740723 -1.0487671 0.70111084 -2.227295 0.70111084 -3.5355835c0 -1.2200012 -0.21115112 -2.3410034 -0.63339233 -3.3630066c-0.42227173 -1.0246887 -1.047699 -1.8179626 -1.8762817 -2.3797913c-0.82858276 -0.5618286 -1.7846375 -0.8427429 -2.868164 -0.8427429z" fill-rule="evenodd"/><path fill="#434343" d="m436.44608 372.7994c1.0914917 0 1.9798279 0.4173584 2.6650085 1.2520752c0.446167 0.53778076 0.717041 1.3444214 0.8126526 2.4199219l-7.0867615 0c0.07168579 -1.1156311 0.44348145 -2.0065613 1.115387 -2.6727295c0.67456055 -0.66619873 1.5057983 -0.9992676 2.4937134 -0.9992676zm-0.023895264 -1.7818298c-1.7527771 0 -3.178894 0.5939331 -4.278351 1.7818298c-1.0994568 1.1878662 -1.6492004 2.8573303 -1.6492004 5.0083923c0 2.0787964 0.5430908 3.6947327 1.6292725 4.8478394c1.0888367 1.1504517 2.561432 1.725647 4.4177856 1.725647c1.4739075 0 2.6849365 -0.36117554 3.6330261 -1.0835266c0.9480896 -0.7223816 1.5974121 -1.7377014 1.9479675 -3.04599l-2.2228394 -0.276886c-0.32666016 0.914978 -0.76882935 1.5811768 -1.3265381 1.9985352c-0.55770874 0.4173584 -1.2309265 0.6260376 -2.0196533 0.6260376c-1.0596313 0 -1.9440002 -0.37319946 -2.6530762 -1.1196594c-0.7090759 -0.74642944 -1.1034546 -1.8219604 -1.1831055 -3.2265625l9.464966 0c0.007965088 -0.25683594 0.011932373 -0.4494629 0.011932373 -0.57788086c0 -2.1109009 -0.53778076 -3.7482605 -1.6133423 -4.912079c-1.0755615 -1.1638184 -2.461853 -1.745697 -4.158844 -1.745697z" fill-rule="evenodd"/><path fill="#434343" d="m452.92612 377.67535l0 0.7945862c0 0.95513916 -0.11550903 1.6774902 -0.34655762 2.1671143c-0.3027649 0.6340637 -0.77679443 1.1343689 -1.4221497 1.5009155c-0.6453247 0.36383057 -1.3822937 0.54577637 -2.2108765 0.54577637c-0.83654785 0 -1.4725952 -0.19262695 -1.9081421 -0.57788086c-0.43286133 -0.38528442 -0.6493225 -0.8668518 -0.6493225 -1.4447327c0 -0.37722778 0.099609375 -0.71969604 0.2987671 -1.0273743c0.19918823 -0.31033325 0.48202515 -0.54577637 0.84851074 -0.7062988c0.3664856 -0.16052246 0.99191284 -0.30499268 1.8762512 -0.43344116c1.5615845 -0.22473145 2.732727 -0.49761963 3.5135193 -0.81866455zm-2.7367249 -6.657776c-1.0914917 0 -2.0515137 0.15115356 -2.8800964 0.4534607c-0.82858276 0.2996521 -1.4619751 0.72906494 -1.900177 1.2882385c-0.4382019 0.55648804 -0.75289917 1.288208 -0.9440918 2.19516l2.103302 0.28897095c0.23104858 -0.9069824 0.58691406 -1.5383911 1.0675964 -1.8942261c0.4833374 -0.35849 1.2309265 -0.53775024 2.2427673 -0.53775024c1.0835266 0 1.9001465 0.24481201 2.4498901 0.7344055c0.40631104 0.36117554 0.6094971 0.98321533 0.6094971 1.8661194c0 0.08026123 -0.0039978027 0.26885986 -0.011962891 0.5658264c-0.8206177 0.28897095 -2.0993347 0.53778076 -3.8361816 0.74645996c-0.852478 0.1043396 -1.4898376 0.21270752 -1.9121094 0.32507324c-0.5736389 0.16052246 -1.0901794 0.39727783 -1.5496216 0.71032715c-0.4567871 0.3130188 -0.82724 0.7290344 -1.1114197 1.2480774c-0.28149414 0.5163574 -0.4222412 1.0875549 -0.4222412 1.7135925c0 1.0675049 0.37445068 1.9450378 1.123352 2.6326294c0.7489319 0.684906 1.8204956 1.0273438 3.2147522 1.0273438c0.84451294 0 1.6345825 -0.1404419 2.3702393 -0.4213562c0.73828125 -0.2809143 1.5057678 -0.7625122 2.3024902 -1.4447327c0.06375122 0.6019592 0.20715332 1.1276855 0.43023682 1.5771484l2.2467346 0c-0.27090454 -0.4895935 -0.45281982 -1.0006104 -0.54574585 -1.53302c-0.09030151 -0.5350647 -0.13546753 -1.809906 -0.13546753 -3.8244934l0 -2.8894653c0 -0.9631653 -0.035827637 -1.6293335 -0.107543945 -1.9985352c-0.12747192 -0.5939636 -0.35055542 -1.0848999 -0.6692505 -1.4728394c-0.31866455 -0.39059448 -0.8166199 -0.71432495 -1.4938354 -0.9711609c-0.67718506 -0.25683594 -1.5575562 -0.3852539 -2.6411133 -0.3852539z" fill-rule="evenodd"/><path fill="#434343" d="m460.96896 366.8399l-2.1391907 1.3002319l0 3.1663818l-1.5774841 0l0 1.6855164l1.5774841 0l0 7.356079c0 1.3002319 0.087646484 2.1536865 0.26290894 2.5603638c0.17529297 0.4039917 0.47802734 0.7303772 0.90826416 0.9792175c0.43023682 0.24880981 1.0357361 0.37319946 1.8164978 0.37319946c0.47802734 0 1.0198059 -0.064208984 1.6253052 -0.19262695l-0.31072998 -1.9142456c-0.39038086 0.05618286 -0.7050781 0.08425903 -0.9440918 0.08425903c-0.31869507 0 -0.56433105 -0.05215454 -0.736969 -0.15649414c-0.1699524 -0.1043396 -0.29345703 -0.24481201 -0.37045288 -0.42138672c-0.07437134 -0.1765747 -0.11154175 -0.57388306 -0.11154175 -1.1918945l0 -7.476471l2.1630554 0l0 -1.6855164l-2.1630554 0l0 -4.466614z" fill-rule="evenodd"/><path fill="#cc0000" d="m114.19948 287.59204c-1.7210999 -1.5132751 -3.449051 -2.632141 -5.183861 -3.3565674c-1.4948196 -0.619812 -3.0582047 -0.9296875 -4.690155 -0.9296875c-1.8513794 0 -3.6410446 0.41452026 -5.3689957 1.2436218c-1.7279587 0.82907104 -3.2364883 1.8432922 -4.5255966 3.042633l0 1.5575562c3.2913437 -2.4067688 6.5861053 -3.610138 9.884308 -3.610138c1.2959595 0 2.5850677 0.17306519 3.8673172 0.51919556c1.0285416 0.28170776 2.0159454 0.6680908 2.962204 1.1590881c0.61027527 0.31393433 1.6285324 0.95788574 3.054779 1.9318542z" fill-rule="evenodd"/><path fill="#cc0000" d="m108.50134 296.87695c0 1.0705566 -0.34855652 1.9653625 -1.0456848 2.6844482c-0.6948395 0.72177124 -1.7176666 1.0826416 -3.068489 1.0826416c-1.4330978 0 -2.4993591 -0.3581848 -3.1987686 -1.074585c-0.6994095 -0.71640015 -1.0491104 -1.6138916 -1.0491104 -2.692505c0 -1.0866699 0.34741974 -1.9881897 1.0422592 -2.7045898c0.69712067 -0.7163696 1.7450943 -1.074585 3.1439133 -1.074585c1.398819 0 2.4445038 0.35821533 3.1370544 1.074585c0.69255066 0.71640015 1.038826 1.6179199 1.038826 2.7045898zm1.5325317 0c0 -1.5857239 -0.40455627 -2.9299622 -1.2136841 -4.032715c-0.9736862 -1.3200989 -2.4719315 -1.980133 -4.494728 -1.980133c-1.8445206 0 -3.2570572 0.55270386 -4.237602 1.6581421c-0.98054504 1.1081238 -1.4708176 2.5596924 -1.4708176 4.354706c0 1.118866 0.22285461 2.1505127 0.6685562 3.0949707c0.4457016 0.94714355 1.0708237 1.6675415 1.8753738 2.161255c0.806839 0.4963684 1.9130936 0.7445679 3.3187714 0.7445679c1.7348099 0 3.093628 -0.55944824 4.076454 -1.6783142c0.98511505 -1.1188354 1.4776764 -2.5596619 1.4776764 -4.3224792z" fill-rule="evenodd"/><path fill="#cc0000" d="m109.787025 305.37704l-6.7678146 0c-0.78855133 0 -1.3645325 0.044281006 -1.727951 0.1328125c-0.5417023 0.12878418 -0.9999771 0.35150146 -1.3748245 0.6680908c-0.3725586 0.31930542 -0.68226624 0.8062744 -0.9291153 1.460968c-0.24684906 0.65734863 -0.3702774 1.3643494 -0.3702774 2.1210022c0 1.714508 0.61712646 3.0708313 1.8513794 4.068939l-1.6045303 0l0 1.9439087l10.923134 0l0 -2.1733093l-5.8524094 0c-0.9325485 0 -1.6445312 -0.11941528 -2.1359482 -0.35821533c-0.4891281 -0.2361145 -0.87654114 -0.6399231 -1.1622467 -1.2114258c-0.28342438 -0.5715027 -0.42513275 -1.1832275 -0.42513275 -1.8352356c0 -0.65200806 0.13828278 -1.1993408 0.4148407 -1.6420593c0.27885437 -0.4427185 0.6616974 -0.7324829 1.1485443 -0.86932373c0.3359909 -0.08856201 0.98740387 -0.1328125 1.9542313 -0.1328125l6.0581207 0z" fill-rule="evenodd"/><path fill="#cc0000" d="m113.60292 321.73734l-1.1108246 -2.161255l-2.7050705 0l0 -1.5937805l-1.4399643 0l0 1.5937805l-6.2843933 0c-1.1108322 0 -1.8399506 0.088531494 -2.1873703 0.265625c-0.34513855 0.1770935 -0.6239853 0.4829712 -0.83654785 0.91763306c-0.21257019 0.43466187 -0.31884766 1.0464172 -0.31884766 1.8352356c0 0.4829712 0.054855347 1.0303345 0.16456604 1.6420593l1.6353836 -0.3139038c-0.04800415 -0.3944397 -0.071998596 -0.7123718 -0.071998596 -0.9538574c0 -0.32196045 0.044570923 -0.5701599 0.13370514 -0.7445679c0.089141846 -0.17172241 0.20914459 -0.29647827 0.35999298 -0.3742981c0.15085602 -0.07510376 0.49027252 -0.1126709 1.0182571 -0.1126709l6.387253 0l0 2.1853943l1.4399643 0l0 -2.1853943l3.815895 0z" fill-rule="evenodd"/><path fill="#cc0000" d="m108.50134 338.12173c0 1.0705872 -0.34855652 1.9653931 -1.0456848 2.6844788c-0.6948395 0.7217407 -1.7176666 1.0826111 -3.068489 1.0826111c-1.4330978 0 -2.4993591 -0.3581848 -3.1987686 -1.074585c-0.6994095 -0.7163696 -1.0491104 -1.6138916 -1.0491104 -2.692505c0 -1.0866394 0.34741974 -1.9881592 1.0422592 -2.7045593c0.69712067 -0.71640015 1.7450943 -1.074585 3.1439133 -1.074585c1.398819 0 2.4445038 0.3581848 3.1370544 1.074585c0.69255066 0.71640015 1.038826 1.6179199 1.038826 2.7045593zm1.5325317 0c0 -1.5856934 -0.40455627 -2.9299316 -1.2136841 -4.032715c-0.9736862 -1.3200684 -2.4719315 -1.980133 -4.494728 -1.980133c-1.8445206 0 -3.2570572 0.5527344 -4.237602 1.6581726c-0.98054504 1.1081238 -1.4708176 2.5596924 -1.4708176 4.3546753c0 1.118866 0.22285461 2.1505432 0.6685562 3.0949707c0.4457016 0.94714355 1.0708237 1.667572 1.8753738 2.161255c0.806839 0.4963684 1.9130936 0.7445679 3.3187714 0.7445679c1.7348099 0 3.093628 -0.5594177 4.076454 -1.6782837c0.98511505 -1.118866 1.4776764 -2.5596924 1.4776764 -4.32251z" fill-rule="evenodd"/><path fill="#cc0000" d="m114.19948 350.73907c0 -0.9497986 -0.14971161 -1.6889954 -0.44913483 -2.2175903c-0.2971344 -0.5258789 -0.68569183 -0.89346313 -1.1656799 -1.1027527c-0.35655975 -0.15292358 -0.9016876 -0.22940063 -1.6353836 -0.22940063l-1.1622543 0l0 -1.9197693l-1.4399643 0l0 1.9197693l-9.48317 0l0 2.161255l9.48317 0l0 2.499298l1.4399643 0l0 -2.499298l1.0079727 0c0.65826416 0 1.107399 0.13684082 1.3473892 0.41049194c0.23999786 0.27368164 0.35999298 0.74053955 0.35999298 1.4006042c0 0.40246582 -0.0342865 0.82907104 -0.10285187 1.2798462l1.6148071 0.32598877c0.123428345 -0.74053955 0.18514252 -1.416687 0.18514252 -2.0284424z" fill-rule="evenodd"/><path fill="#cc0000" d="m110.033875 365.11923c0 -0.5071106 -0.123428345 -0.97262573 -0.3702774 -1.3965759c-0.24684906 -0.42123413 -0.7576904 -0.8814087 -1.5325241 -1.3804626l1.6559525 0l0 -1.9559937l-10.923134 0l0 2.1733398l5.718704 0c0.7816925 0 1.5016708 0.12072754 2.1599426 0.36221313c0.43198395 0.16098022 0.76911926 0.43063354 1.0113983 0.80895996c0.24456787 0.37832642 0.36684418 0.80493164 0.36684418 1.2798462c0 0.53125 -0.13370514 1.0625 -0.40113068 1.5937805l1.7176666 0.7485657c0.39770508 -0.7566223 0.5965576 -1.5011902 0.5965576 -2.233673z" fill-rule="evenodd"/><path fill="#cc0000" d="m104.34603 376.831l-0.67884064 0c-0.815979 0 -1.4331055 -0.11669922 -1.8513794 -0.35012817c-0.54169464 -0.3058777 -0.9691162 -0.78482056 -1.2822495 -1.4367981c-0.31084442 -0.65200806 -0.46627045 -1.3965759 -0.46627045 -2.2337036c0 -0.8451843 0.16456604 -1.487793 0.49369812 -1.9278259c0.32913208 -0.4373474 0.7405548 -0.65600586 1.2342529 -0.65600586c0.32228088 0 0.6148453 0.100616455 0.8776932 0.30184937c0.26513672 0.20123291 0.46627045 0.486969 0.6034088 0.85723877c0.13713837 0.37026978 0.2605667 1.0021667 0.3702774 1.8956299c0.19199371 1.5776672 0.42513275 2.7609253 0.6994095 3.5497437zm5.6878433 -2.764923c0 -1.1027832 -0.12914276 -2.0727234 -0.38742065 -2.909851c-0.25598907 -0.8371277 -0.6228409 -1.4770508 -1.1005402 -1.9197693c-0.47541046 -0.4427185 -1.1005402 -0.76065063 -1.8753738 -0.9538269l-0.24684906 2.125c0.7748337 0.23342896 1.3142471 0.59298706 1.6182404 1.0786133c0.3062744 0.4883423 0.45941162 1.2436218 0.45941162 2.2658997c0 1.094696 -0.20913696 1.9197693 -0.6274109 2.4751587c-0.30856323 0.41052246 -0.83997345 0.6157837 -1.5942383 0.6157837c-0.068573 0 -0.22971344 -0.0040283203 -0.4834137 -0.012084961c-0.24685669 -0.82907104 -0.45941925 -2.1210022 -0.63770294 -3.8757324c-0.08913422 -0.8612976 -0.18170929 -1.505249 -0.27770233 -1.9318542c-0.13713837 -0.5795593 -0.33942413 -1.1014099 -0.60684204 -1.5655823c-0.2674179 -0.46151733 -0.6228409 -0.8358154 -1.0662537 -1.1228943c-0.4411316 -0.28442383 -0.9291229 -0.42660522 -1.4639664 -0.42660522c-0.91197205 0 -1.6616669 0.3782959 -2.2490768 1.1349487c-0.5851288 0.7566223 -0.8776932 1.8392639 -0.8776932 3.2478943c0 0.85324097 0.11999512 1.6514587 0.35999298 2.3946838c0.23999023 0.74591064 0.65141296 1.5213318 1.2342529 2.3262634c-0.5142746 0.06439209 -0.9634018 0.20928955 -1.3473969 0.43466187l0 2.269928c0.41827393 -0.27368164 0.8548355 -0.457489 1.3096848 -0.5513916c0.45713043 -0.09121704 1.5462418 -0.13684082 3.267334 -0.13684082l2.4685059 0c0.8228378 0 1.3919601 -0.036224365 1.7073822 -0.108673096c0.5074158 -0.12878418 0.9268341 -0.3541565 1.258255 -0.67614746c0.3337021 -0.32196045 0.61026764 -0.8250427 0.829689 -1.5092468c0.21942139 -0.6841736 0.32913208 -1.5736389 0.32913208 -2.668335z" fill-rule="evenodd"/><path fill="#cc0000" d="m110.033875 388.4341c0 -1.7789001 -0.5999832 -3.1392212 -1.7999496 -4.0809937l1.5531006 0l0 -1.9559937l-10.923134 0l0 2.1733093l5.9655533 0c1.398819 0 2.3485107 0.33538818 2.8490677 1.0061646c0.50055695 0.6734619 0.7508316 1.473053 0.7508316 2.3987122c0 0.5795593 -0.11199188 1.0839844 -0.3359909 1.5132751c-0.22170258 0.43197632 -0.5199814 0.7324829 -0.8948288 0.9015198c-0.3725586 0.16903687 -0.9359741 0.25357056 -1.690239 0.25357056l-6.644394 0l0 2.1733093l6.7163925 0c0.8571167 0 1.4570999 -0.040252686 1.7999496 -0.12072754c0.5279846 -0.1288147 0.98397064 -0.354187 1.3679657 -0.67614746c0.38398743 -0.32199097 0.69369507 -0.8076172 0.9291153 -1.4569397c0.23770905 -0.64663696 0.35655975 -1.3563232 0.35655975 -2.1290588z" fill-rule="evenodd"/><path fill="#cc0000" d="m108.50134 401.0273c0 0.98202515 -0.3394165 1.8204956 -1.0182571 2.5154114c-0.678833 0.6976013 -1.6868057 1.0464172 -3.0239182 1.0464172c-1.398819 0 -2.4262161 -0.33807373 -3.082199 -1.0142212c-0.65369415 -0.67614746 -0.98054504 -1.5132751 -0.98054504 -2.511383c0 -1.0061646 0.32913208 -1.8432922 0.98740387 -2.5114136c0.65826416 -0.6680908 1.703949 -1.0021362 3.1370544 -1.0021362c1.316536 0 2.3085098 0.33807373 2.9759216 1.0142212c0.669693 0.67614746 1.0045395 1.4971924 1.0045395 2.4631042zm1.5325317 -0.1569519c0 -1.1349792 -0.23999023 -2.1236877 -0.71997833 -2.9661865c-0.4799881 -0.83981323 -1.1611099 -1.4810791 -2.043373 -1.9237976c-0.87997437 -0.4427185 -1.841095 -0.6640625 -2.8833542 -0.6640625c-1.5153809 0 -2.8147736 0.48294067 -3.898178 1.448883c-1.0833969 0.96591187 -1.6250992 2.3302612 -1.6250992 4.0930786c0 1.416687 0.4765625 2.599945 1.4296799 3.5497437l0 0c-1.2068253 0.008056641 -1.9988022 -0.04425049 -2.3759384 -0.1569519c-0.61712646 -0.19317627 -1.0971146 -0.56344604 -1.4399567 -1.1108093c-0.34284973 -0.5473633 -0.5142746 -1.3241272 -0.5142746 -2.3302917c0 -0.9337158 0.17142487 -1.670227 0.5142746 -2.2095337c0.2537079 -0.40246582 0.65826416 -0.64797974 1.2136765 -0.73651123l0.26742554 -2.1129456l0 0c-1.1793976 -0.032196045 -2.0616608 0.4225769 -2.6467896 1.3643494c-0.58741 0.94177246 -0.8811188 2.1773376 -0.8811188 3.706726c0 1.2879028 0.20571136 2.3718567 0.61712646 3.2519226c0.41142273 0.88275146 0.97254944 1.5267029 1.6833878 1.9318542c0.7085495 0.4078369 1.9130859 0.6117554 3.6136093 0.6117554l9.442032 0l0 -2.004303l-1.316536 0c1.0422592 -0.98202515 1.563385 -2.2296448 1.563385 -3.74292z" fill-rule="evenodd"/><path fill="#cc0000" d="m108.51163 415.19012c0 1.1027527 -0.35655975 2.0002441 -1.0696793 2.692505c-0.45941925 0.45074463 -1.1485443 0.72442627 -2.0673752 0.8210144l0 -7.1598816c0.9531174 0.07244873 1.714241 0.4480896 2.283371 1.1269226c0.5691223 0.68148804 0.8536835 1.5213013 0.8536835 2.5194397zm1.5222473 -0.024169922c0 -1.7708435 -0.5074158 -3.21167 -1.5222473 -4.3224792c-1.0148239 -1.1108093 -2.4410706 -1.6661987 -4.27874 -1.6661987c-1.7759476 0 -3.156479 0.54867554 -4.141594 1.6460876c-0.98283386 1.1000671 -1.4742508 2.58786 -1.4742508 4.4633484c0 1.4891357 0.30856323 2.712616 0.9256897 3.6705017c0.61712646 0.9578552 1.4845352 1.6138916 2.6022186 1.9680481l0.23656464 -2.245758c-0.7816925 -0.3300171 -1.3508224 -0.7767639 -1.7073822 -1.34021c-0.35656738 -0.56344604 -0.53484344 -1.2436218 -0.53484344 -2.0405273c0 -1.0705566 0.31884766 -1.9640198 0.95654297 -2.68042c0.6376953 -0.71640015 1.5565262 -1.1148376 2.7565002 -1.1953125l0 9.562592c0.21942139 0.008056641 0.38398743 0.012084961 0.49369812 0.012084961c1.8033752 0 3.2021942 -0.54333496 4.196457 -1.6300049c0.99425507 -1.0866394 1.4913864 -2.4872437 1.4913864 -4.2017517z" fill-rule="evenodd"/><path fill="#cc0000" d="m114.19948 423.52118c-1.4399643 0.98202515 -2.4685059 1.6300049 -3.0856323 1.9439087c-0.94625854 0.49102783 -1.9336624 0.87335205 -2.962204 1.1470337c-1.2685394 0.34613037 -2.5473633 0.51919556 -3.836464 0.51919556c-3.2982025 0 -6.592964 -1.2033997 -9.884308 -3.610138l0 1.5575562c1.2891083 1.1912842 2.797638 2.2028198 4.5255966 3.0345764c1.727951 0.83447266 3.5176163 1.2516785 5.3689957 1.2516785c1.6319504 0 3.1953354 -0.309906 4.690155 -0.9296875c1.7348099 -0.7244568 3.462761 -1.8432922 5.183861 -3.3565674z" fill-rule="evenodd"/><path fill="#cc0000" d="m116.479515 222.11398l0 0.78845215c0 0.9477539 -0.12499237 1.6645355 -0.37496948 2.1503448c-0.32756042 0.6291809 -0.8404541 1.1256104 -1.538681 1.4893188c-0.6982269 0.3610382 -1.4955826 0.54156494 -2.392067 0.54156494c-0.9051132 0 -1.593277 -0.19114685 -2.0645065 -0.5734253c-0.4683609 -0.38227844 -0.70253754 -0.86013794 -0.70253754 -1.4335632c0 -0.37431335 0.10774994 -0.7141266 0.32324982 -1.0194244c0.2155075 -0.30795288 0.5215149 -0.54156494 0.9180374 -0.70085144c0.39652252 -0.1592865 1.0731964 -0.30264282 2.0300293 -0.43006897c1.6895294 -0.22299194 2.9566803 -0.4937744 3.801445 -0.8123474zm-11.766388 -11.444611c-1.0171661 0 -1.8087769 0.17388916 -2.3748245 0.5216522c-0.563179 0.3451233 -0.9568329 0.7964325 -1.180954 1.3539276c-0.16378021 0.4141388 -0.2456665 1.047287 -0.2456665 1.8994598l0 1.3499451l-2.0558853 0l0 1.6724854l2.0558853 0l0 11.014542l2.3144836 0l0 -11.014542l2.676529 0l0 -1.6724854l-2.676529 0l0 -1.1707458c0 -0.76457214 0.14654541 -1.2862244 0.43962097 -1.5649719c0.2930832 -0.27874756 0.7930527 -0.41812134 1.4998932 -0.41812134c0.4310074 0 0.8878708 0.03982544 1.3705902 0.11946106l0.34911346 -1.8755798c-0.79304504 -0.14335632 -1.517128 -0.21502686 -2.1722565 -0.21502686zm8.805397 4.838272c-1.1809464 0 -2.2196655 0.1499939 -3.11615 0.4499817c-0.896492 0.29733276 -1.5817871 0.7234192 -2.0558853 1.2782593c-0.47410583 0.55218506 -0.8145981 1.2782593 -1.0214844 2.1782227l2.2757034 0.28671265c0.24997711 -0.8999634 0.63500977 -1.5264893 1.1550827 -1.8795624c0.52295685 -0.3557434 1.3318024 -0.53359985 2.4265518 -0.53359985c1.1723251 0 2.0558853 0.24290466 2.650673 0.728714c0.43962097 0.35839844 0.65943146 0.9756317 0.65943146 1.8516846c0 0.07965088 -0.004310608 0.2668152 -0.012931824 0.5614929c-0.88786316 0.28671265 -2.2713852 0.53359985 -4.1505585 0.7406616c-0.922348 0.10354614 -1.6119537 0.21105957 -2.0688171 0.32255554c-0.6206436 0.1592865 -1.179512 0.39422607 -1.6766052 0.704834c-0.49421692 0.3106079 -0.89505005 0.7234192 -1.2024994 1.2384491c-0.30457306 0.5123596 -0.4568634 1.0791473 -0.4568634 1.7003632c0 1.0592346 0.40514374 1.9299927 1.2154312 2.612259c0.8102875 0.67962646 1.9696884 1.0194244 3.4781952 1.0194244c0.9137268 0 1.7685547 -0.13937378 2.5644684 -0.41812134c0.7987976 -0.27874756 1.6291962 -0.7565918 2.4912033 -1.4335632c0.0689621 0.59732056 0.2241211 1.1189728 0.46548462 1.5649719l2.4308548 0c-0.2930832 -0.48580933 -0.4899063 -0.99287415 -0.59046936 -1.521164c-0.0976944 -0.5309448 -0.14654541 -1.7959442 -0.14654541 -3.7949677l0 -2.8671265c0 -0.95570374 -0.03878784 -1.6167297 -0.116371155 -1.9830933c-0.13791656 -0.58935547 -0.3792801 -1.0764923 -0.72408295 -1.4614258c-0.34480286 -0.38760376 -0.8835602 -0.7088318 -1.6162643 -0.9636841c-0.73270416 -0.2548523 -1.6852188 -0.38227844 -2.8575516 -0.38227844z" fill-rule="evenodd"/><path fill="#cc0000" d="m122.38857 210.96803l0 17.513351l2.3274155 0l0 -17.513351z" fill-rule="evenodd"/><path fill="#cc0000" d="m132.83609 215.50764c-0.71546936 0 -1.3863983 0.08627319 -2.0127869 0.25883484c-0.6235199 0.16990662 -1.1163025 0.3782959 -1.4783325 0.62519836c-0.48272705 0.318573 -0.8648834 0.71943665 -1.1464691 1.202591c-0.27872467 0.48051453 -0.41807556 1.0034943 -0.41807556 1.5689545c0 0.6212158 0.16952515 1.189331 0.50857544 1.7043457c0.3419342 0.5123749 0.8419037 0.91456604 1.4998932 1.2065887c0.6608734 0.28936768 1.844696 0.63316345 3.551468 1.0313721c1.2671509 0.29467773 2.060196 0.5375824 2.3791351 0.72872925c0.4568634 0.27874756 0.68530273 0.661026 0.68530273 1.1468506c0 0.54156494 -0.25860596 1.0141144 -0.7758026 1.417633c-0.5172119 0.40086365 -1.310257 0.6013031 -2.3791504 0.6013031c-1.060257 0 -1.8863525 -0.22698975 -2.4782562 -0.680954c-0.5890503 -0.45394897 -0.94821167 -1.1070251 -1.0775146 -1.959198l-2.3015594 0.33450317c0.25860596 1.3459473 0.8548279 2.3613892 1.7886658 3.0463104c0.93670654 0.6849365 2.2972412 1.0273895 4.081604 1.0273895c1.0774994 0 2.0429535 -0.17256165 2.8963318 -0.5176697c0.85339355 -0.34777832 1.5056458 -0.8375702 1.9567566 -1.4694061c0.45399475 -0.6344757 0.6809845 -1.3101196 0.6809845 -2.0269012c0 -0.7327118 -0.185318 -1.3459473 -0.5559845 -1.8397369c-0.3706665 -0.4937744 -0.88212585 -0.86943054 -1.534378 -1.1269379c-0.6493683 -0.26016235 -1.797287 -0.593338 -3.4437103 -0.9995117c-1.1378479 -0.28671265 -1.8231506 -0.4698944 -2.055893 -0.54953c-0.4051361 -0.15132141 -0.7025299 -0.34246826 -0.89216614 -0.5734253c-0.18965149 -0.2230072 -0.2844696 -0.47387695 -0.2844696 -0.7526245c0 -0.43803406 0.22843933 -0.8203125 0.68530273 -1.1468506c0.4568634 -0.3265381 1.2197266 -0.48979187 2.28862 -0.48979187c0.9051056 0 1.6047668 0.1831665 2.0989838 0.54953c0.49710083 0.36634827 0.7973633 0.8760681 0.9008026 1.529129l2.2756958 -0.28671265c-0.14654541 -0.8203125 -0.41375732 -1.4747162 -0.80166626 -1.9631805c-0.38790894 -0.49113464 -0.98986816 -0.88005066 -1.8059082 -1.1667633c-0.8131561 -0.28671265 -1.7584839 -0.43006897 -2.8359985 -0.43006897z" fill-rule="evenodd"/><path fill="#cc0000" d="m147.2273 217.27571c1.1809387 0 2.1420746 0.4141388 2.8834076 1.2424164c0.48272705 0.53359985 0.7758026 1.3340149 0.87924194 2.4012146l-7.6675415 0c0.07757568 -1.1070251 0.47984314 -1.9910583 1.2068024 -2.6520844c0.72984314 -0.66104126 1.6291962 -0.99154663 2.6980896 -0.99154663zm-0.025863647 -1.7680664c-1.8964233 0 -3.4394073 0.58935547 -4.6289825 1.7680664c-1.1895599 1.1786957 -1.7843475 2.835266 -1.7843475 4.969681c0 2.062729 0.5876007 3.6661987 1.7628021 4.8103943c1.1780701 1.1415405 2.771347 1.7123108 4.779831 1.7123108c1.5947113 0 2.904953 -0.35838318 3.9307404 -1.0751648c1.0257874 -0.7167816 1.7283325 -1.7242584 2.107605 -3.0224304l-2.4049988 -0.274765c-0.3534088 0.90792847 -0.8318329 1.5689545 -1.4352264 1.9830933c-0.6034088 0.4141388 -1.3318024 0.6212158 -2.185196 0.6212158c-1.1464691 0 -2.1032867 -0.37034607 -2.8704834 -1.111023c-0.7671814 -0.7406616 -1.1938782 -1.8078766 -1.2800751 -3.2016144l10.240631 0c0.008621216 -0.2548523 0.012939453 -0.44599915 0.012939453 -0.5734253c0 -2.0946045 -0.5818634 -3.7192993 -1.7455597 -4.874115c-1.1637115 -1.1548157 -2.6636047 -1.7322235 -4.4996796 -1.7322235z" fill-rule="evenodd"/><path fill="#cfe2f3" d="m234.67705 480.0735l86.119705 0l0 0c11.281921 0 20.427704 9.391449 20.427704 20.97638c0 11.5849 -9.145782 20.97638 -20.427704 20.97638l-86.119705 0l0 0c-11.281906 0 -20.427704 -9.3914795 -20.427704 -20.97638c0 -11.58493 9.145798 -20.97638 20.427704 -20.97638z" fill-rule="evenodd"/><path stroke="#000000" stroke-width="2.0" stroke-linejoin="round" stroke-linecap="butt" d="m234.67705 480.0735l86.119705 0l0 0c11.281921 0 20.427704 9.391449 20.427704 20.97638c0 11.5849 -9.145782 20.97638 -20.427704 20.97638l-86.119705 0l0 0c-11.281906 0 -20.427704 -9.3914795 -20.427704 -20.97638c0 -11.58493 9.145798 -20.97638 20.427704 -20.97638z" fill-rule="evenodd"/><path fill="#000000" d="m258.48422 505.20422l2.5625 -0.390625q0.171875 0.75 0.671875 1.140625q0.5 0.390625 1.40625 0.390625q0.984375 0 1.484375 -0.375q0.34375 -0.25 0.34375 -0.671875q0 -0.296875 -0.1875 -0.484375q-0.1875 -0.1875 -0.859375 -0.34375q-3.09375 -0.6875 -3.921875 -1.25q-1.140625 -0.78125 -1.140625 -2.171875q0 -1.265625 0.984375 -2.109375q1.0 -0.859375 3.078125 -0.859375q1.984375 0 2.953125 0.65625q0.96875 0.640625 1.328125 1.90625l-2.40625 0.4375q-0.15625 -0.5625 -0.59375 -0.859375q-0.421875 -0.296875 -1.234375 -0.296875q-1.0 0 -1.4375 0.28125q-0.296875 0.203125 -0.296875 0.515625q0 0.265625 0.25 0.46875q0.34375 0.25 2.390625 0.71875q2.046875 0.453125 2.859375 1.140625q0.796875 0.671875 0.796875 1.890625q0 1.34375 -1.109375 2.296875q-1.109375 0.953125 -3.28125 0.953125q-1.984375 0 -3.140625 -0.796875q-1.140625 -0.8125 -1.5 -2.1875zm15.719482 -6.90625l0 2.03125l-1.75 0l0 3.90625q0 1.1875 0.046875 1.390625q0.046875 0.1875 0.21875 0.3125q0.1875 0.125 0.4375 0.125q0.359375 0 1.03125 -0.25l0.21875 2.0q-0.890625 0.375 -2.015625 0.375q-0.703125 0 -1.265625 -0.234375q-0.546875 -0.234375 -0.8125 -0.59375q-0.25 -0.375 -0.34375 -1.0q-0.09375 -0.453125 -0.09375 -1.8125l0 -4.21875l-1.171875 0l0 -2.03125l1.171875 0l0 -1.921875l2.578125 -1.5l0 3.421875l1.75 0zm1.181427 4.703125q0 -1.28125 0.625 -2.46875q0.625 -1.203125 1.78125 -1.828125q1.15625 -0.625 2.578125 -0.625q2.1875 0 3.59375 1.421875q1.40625 1.421875 1.40625 3.609375q0 2.1875 -1.421875 3.640625q-1.421875 1.4375 -3.5625 1.4375q-1.328125 0 -2.546875 -0.59375q-1.203125 -0.609375 -1.828125 -1.765625q-0.625 -1.171875 -0.625 -2.828125zm2.625 0.125q0 1.453125 0.671875 2.21875q0.6875 0.75 1.6875 0.75q1.0 0 1.671875 -0.75q0.6875 -0.765625 0.6875 -2.234375q0 -1.421875 -0.6875 -2.1875q-0.671875 -0.765625 -1.671875 -0.765625q-1.0 0 -1.6875 0.765625q-0.671875 0.765625 -0.671875 2.203125zm9.286591 -4.828125l2.390625 0l0 1.421875q0.46875 -0.734375 1.25 -1.1875q0.796875 -0.453125 1.765625 -0.453125q1.6875 0 2.859375 1.328125q1.171875 1.3125 1.171875 3.671875q0 2.421875 -1.1875 3.765625q-1.1875 1.34375 -2.859375 1.34375q-0.8125 0 -1.46875 -0.3125q-0.640625 -0.328125 -1.359375 -1.09375l0 4.875l-2.5625 0l0 -13.359375zm2.53125 4.671875q0 1.625 0.640625 2.40625q0.65625 0.78125 1.578125 0.78125q0.90625 0 1.484375 -0.71875q0.59375 -0.71875 0.59375 -2.34375q0 -1.515625 -0.609375 -2.25q-0.609375 -0.75 -1.515625 -0.75q-0.9375 0 -1.5625 0.734375q-0.609375 0.71875 -0.609375 2.140625z" fill-rule="nonzero"/><path fill="#f4cccc" d="m63.2231 502.84778l0 0c0 -10.462982 8.94725 -18.944885 19.984253 -18.944885l0 0c5.300148 0 10.3832245 1.9959717 14.130997 5.548828c3.7477722 3.5528564 5.853256 8.3715515 5.853256 13.396057l0 0c0 10.462952 -8.947258 18.944885 -19.984253 18.944885l0 0c-11.037003 0 -19.984253 -8.481934 -19.984253 -18.944885z" fill-rule="evenodd"/><path stroke="#85200c" stroke-width="2.0" stroke-linejoin="round" stroke-linecap="butt" d="m63.2231 502.84778l0 0c0 -10.462982 8.94725 -18.944885 19.984253 -18.944885l0 0c5.300148 0 10.3832245 1.9959717 14.130997 5.548828c3.7477722 3.5528564 5.853256 8.3715515 5.853256 13.396057l0 0c0 10.462952 -8.947258 18.944885 -19.984253 18.944885l0 0c-11.037003 0 -19.984253 -8.481934 -19.984253 -18.944885z" fill-rule="evenodd"/><path fill="#000000" fill-opacity="0.0" d="m103.191605 502.84778l111.055115 -1.7952881" fill-rule="evenodd"/><path stroke="#cc0000" stroke-width="2.0" stroke-linejoin="round" stroke-linecap="butt" d="m103.191605 502.84778l99.05667 -1.6013184" fill-rule="evenodd"/><path fill="#cc0000" stroke="#cc0000" stroke-width="2.0" stroke-linecap="butt" d="m202.30168 504.5495l9.021622 -3.4497375l-9.128418 -3.1563416z" fill-rule="evenodd"/><path fill="#ffd966" d="m194.7769 166.4567l10.48819 -41.95276l155.43306 0l-10.48819 41.95276z" fill-rule="evenodd"/><path stroke="#000000" stroke-width="2.0" stroke-linejoin="round" stroke-linecap="butt" d="m194.7769 166.4567l10.48819 -41.95276l155.43306 0l-10.48819 41.95276z" fill-rule="evenodd"/><path fill="#000000" d="m259.39566 141.41594l0 -2.375l2.5625 0l0 2.375l-2.5625 0zm0 10.984375l0 -9.671875l2.5625 0l0 9.671875l-2.5625 0zm13.980164 0l-2.5625 0l0 -4.9375q0 -1.5625 -0.171875 -2.015625q-0.15625 -0.46875 -0.53125 -0.71875q-0.359375 -0.265625 -0.875 -0.265625q-0.671875 0 -1.203125 0.375q-0.53125 0.359375 -0.734375 0.96875q-0.1875 0.59375 -0.1875 2.21875l0 4.375l-2.546875 0l0 -9.671875l2.375 0l0 1.421875q1.265625 -1.640625 3.1875 -1.640625q0.84375 0 1.546875 0.3125q0.703125 0.296875 1.0625 0.78125q0.359375 0.46875 0.5 1.078125q0.140625 0.59375 0.140625 1.703125l0 6.015625zm2.599121 -10.984375l0 -2.375l2.5625 0l0 2.375l-2.5625 0zm0 10.984375l0 -9.671875l2.5625 0l0 9.671875l-2.5625 0zm9.620789 -9.671875l0 2.03125l-1.75 0l0 3.90625q0 1.1875 0.046875 1.390625q0.046875 0.1875 0.21875 0.3125q0.1875 0.125 0.4375 0.125q0.359375 0 1.03125 -0.25l0.21875 2.0q-0.890625 0.375 -2.015625 0.375q-0.703125 0 -1.265625 -0.234375q-0.546875 -0.234375 -0.8125 -0.59375q-0.25 -0.375 -0.34375 -1.0q-0.09375 -0.453125 -0.09375 -1.8125l0 -4.21875l-1.171875 0l0 -2.03125l1.171875 0l0 -1.921875l2.578125 -1.5l0 3.421875l1.75 0zm7.380371 2.5625l0 -2.5625l2.546875 0l0 2.5625l-2.546875 0zm0 4.546875l2.546875 0l0 1.828125q0 1.109375 -0.1875 1.75q-0.1875 0.65625 -0.71875 1.15625q-0.53125 0.515625 -1.359375 0.8125l-0.5 -1.0625q0.78125 -0.25 1.109375 -0.71875q0.328125 -0.453125 0.34375 -1.203125l-1.234375 0l0 -2.5625z" fill-rule="nonzero"/><path fill="#cfe2f3" d="m197.75328 388.81628l159.96849 0l0 47.905487l-159.96849 0z" fill-rule="evenodd"/><path stroke="#000000" stroke-width="2.0" stroke-linejoin="round" stroke-linecap="butt" d="m197.75328 388.81628l159.96849 0l0 47.905487l-159.96849 0z" fill-rule="evenodd"/><path fill="#000000" d="m213.10387 419.68903l-2.5625 0l0 -9.671875l2.375 0l0 1.375q0.609375 -0.984375 1.09375 -1.28125q0.484375 -0.3125 1.109375 -0.3125q0.875 0 1.6875 0.484375l-0.796875 2.234375q-0.640625 -0.421875 -1.203125 -0.421875q-0.53125 0 -0.90625 0.296875q-0.375 0.296875 -0.59375 1.078125q-0.203125 0.765625 -0.203125 3.234375l0 2.984375zm10.400894 -3.078125l2.546875 0.421875q-0.484375 1.40625 -1.546875 2.140625q-1.0625 0.734375 -2.65625 0.734375q-2.515625 0 -3.734375 -1.65625q-0.953125 -1.3125 -0.953125 -3.328125q0 -2.40625 1.25 -3.765625q1.265625 -1.359375 3.1875 -1.359375q2.15625 0 3.40625 1.421875q1.25 1.421875 1.1875 4.375l-6.40625 0q0.03125 1.140625 0.609375 1.78125q0.59375 0.625 1.484375 0.625q0.59375 0 1.0 -0.328125q0.421875 -0.328125 0.625 -1.0625zm0.15625 -2.59375q-0.03125 -1.109375 -0.578125 -1.6875q-0.546875 -0.578125 -1.328125 -0.578125q-0.84375 0 -1.390625 0.609375q-0.546875 0.609375 -0.53125 1.65625l3.828125 0zm4.547592 -4.0l2.390625 0l0 1.421875q0.46875 -0.734375 1.25 -1.1875q0.796875 -0.453125 1.765625 -0.453125q1.6875 0 2.859375 1.328125q1.171875 1.3125 1.171875 3.671875q0 2.421875 -1.1875 3.765625q-1.1875 1.34375 -2.859375 1.34375q-0.8125 0 -1.46875 -0.3125q-0.640625 -0.328125 -1.359375 -1.09375l0 4.875l-2.5625 0l0 -13.359375zm2.53125 4.671875q0 1.625 0.640625 2.40625q0.65625 0.78125 1.578125 0.78125q0.90625 0 1.484375 -0.71875q0.59375 -0.71875 0.59375 -2.34375q0 -1.515625 -0.609375 -2.25q-0.609375 -0.75 -1.515625 -0.75q-0.9375 0 -1.5625 0.734375q-0.609375 0.71875 -0.609375 2.140625zm14.536606 1.921875l2.546875 0.421875q-0.484375 1.40625 -1.546875 2.140625q-1.0625 0.734375 -2.65625 0.734375q-2.515625 0 -3.734375 -1.65625q-0.953125 -1.3125 -0.953125 -3.328125q0 -2.40625 1.25 -3.765625q1.265625 -1.359375 3.1875 -1.359375q2.15625 0 3.40625 1.421875q1.25 1.421875 1.1875 4.375l-6.40625 0q0.03125 1.140625 0.609375 1.78125q0.59375 0.625 1.484375 0.625q0.59375 0 1.0 -0.328125q0.421875 -0.328125 0.625 -1.0625zm0.15625 -2.59375q-0.03125 -1.109375 -0.578125 -1.6875q-0.546875 -0.578125 -1.328125 -0.578125q-0.84375 0 -1.390625 0.609375q-0.546875 0.609375 -0.53125 1.65625l3.828125 0zm9.063217 -4.0l0 2.03125l-1.75 0l0 3.90625q0 1.1875 0.046875 1.390625q0.046875 0.1875 0.21875 0.3125q0.1875 0.125 0.4375 0.125q0.359375 0 1.03125 -0.25l0.21875 2.0q-0.890625 0.375 -2.015625 0.375q-0.703125 0 -1.265625 -0.234375q-0.546875 -0.234375 -0.8125 -0.59375q-0.25 -0.375 -0.34375 -1.0q-0.09375 -0.453125 -0.09375 -1.8125l0 -4.21875l-1.171875 0l0 -2.03125l1.171875 0l0 -1.921875l2.578125 -1.5l0 3.421875l1.75 0zm1.7751923 -1.3125l0 -2.375l2.5625 0l0 2.375l-2.5625 0zm0 10.984375l0 -9.671875l2.5625 0l0 9.671875l-2.5625 0zm9.620789 -9.671875l0 2.03125l-1.75 0l0 3.90625q0 1.1875 0.046875 1.390625q0.046875 0.1875 0.21875 0.3125q0.1875 0.125 0.4375 0.125q0.359375 0 1.03125 -0.25l0.21875 2.0q-0.890625 0.375 -2.015625 0.375q-0.703125 0 -1.265625 -0.234375q-0.546875 -0.234375 -0.8125 -0.59375q-0.25 -0.375 -0.34375 -1.0q-0.09375 -0.453125 -0.09375 -1.8125l0 -4.21875l-1.171875 0l0 -2.03125l1.171875 0l0 -1.921875l2.578125 -1.5l0 3.421875l1.75 0zm1.775177 -1.3125l0 -2.375l2.5625 0l0 2.375l-2.5625 0zm0 10.984375l0 -9.671875l2.5625 0l0 9.671875l-2.5625 0zm7.839569 0l-3.90625 -9.671875l2.6875 0l1.828125 4.9375l0.53125 1.640625q0.203125 -0.625 0.265625 -0.828125q0.125 -0.40625 0.265625 -0.8125l1.84375 -4.9375l2.625 0l-3.84375 9.671875l-2.296875 0zm13.313202 -3.078125l2.546875 0.421875q-0.484375 1.40625 -1.546875 2.140625q-1.0625 0.734375 -2.65625 0.734375q-2.515625 0 -3.734375 -1.65625q-0.953125 -1.3125 -0.953125 -3.328125q0 -2.40625 1.25 -3.765625q1.265625 -1.359375 3.1875 -1.359375q2.15625 0 3.40625 1.421875q1.25 1.421875 1.1875 4.375l-6.40625 0q0.03125 1.140625 0.609375 1.78125q0.59375 0.625 1.484375 0.625q0.59375 0 1.0 -0.328125q0.421875 -0.328125 0.625 -1.0625zm0.15625 -2.59375q-0.03125 -1.109375 -0.578125 -1.6875q-0.546875 -0.578125 -1.328125 -0.578125q-0.84375 0 -1.390625 0.609375q-0.546875 0.609375 -0.53125 1.65625l3.828125 0zm9.699646 5.671875l0 -13.359375l2.5625 0l0 4.8125q1.171875 -1.34375 2.796875 -1.34375q1.765625 0 2.921875 1.28125q1.15625 1.28125 1.15625 3.671875q0 2.484375 -1.1875 3.828125q-1.171875 1.328125 -2.859375 1.328125q-0.828125 0 -1.640625 -0.40625q-0.796875 -0.421875 -1.375 -1.234375l0 1.421875l-2.375 0zm2.53125 -5.046875q0 1.5 0.484375 2.21875q0.65625 1.03125 1.765625 1.03125q0.84375 0 1.4375 -0.71875q0.59375 -0.734375 0.59375 -2.296875q0 -1.65625 -0.609375 -2.390625q-0.59375 -0.734375 -1.53125 -0.734375q-0.921875 0 -1.53125 0.71875q-0.609375 0.71875 -0.609375 2.171875zm8.974121 5.046875l0 -13.359375l2.5625 0l0 13.359375l-2.5625 0zm4.5895386 -4.96875q0 -1.28125 0.625 -2.46875q0.625 -1.203125 1.78125 -1.828125q1.15625 -0.625 2.578125 -0.625q2.1875 0 3.59375 1.421875q1.40625 1.421875 1.40625 3.609375q0 2.1875 -1.421875 3.640625q-1.421875 1.4375 -3.5625 1.4375q-1.328125 0 -2.546875 -0.59375q-1.203125 -0.609375 -1.828125 -1.765625q-0.625 -1.171875 -0.625 -2.828125zm2.625 0.125q0 1.453125 0.671875 2.21875q0.6875 0.75 1.6875 0.75q1.0 0 1.671875 -0.75q0.6875 -0.765625 0.6875 -2.234375q0 -1.421875 -0.6875 -2.1875q-0.671875 -0.765625 -1.671875 -0.765625q-1.0 0 -1.6875 0.765625q-0.671875 0.765625 -0.671875 2.203125zm17.802246 -1.96875l-2.53125 0.453125q-0.125 -0.75 -0.578125 -1.125q-0.453125 -0.390625 -1.171875 -0.390625q-0.953125 0 -1.53125 0.65625q-0.5625 0.65625 -0.5625 2.203125q0 1.734375 0.578125 2.4375q0.578125 0.703125 1.546875 0.703125q0.734375 0 1.203125 -0.40625q0.46875 -0.421875 0.65625 -1.421875l2.515625 0.421875q-0.390625 1.734375 -1.515625 2.625q-1.109375 0.875 -2.96875 0.875q-2.125 0 -3.390625 -1.328125q-1.25 -1.34375 -1.25 -3.71875q0 -2.390625 1.265625 -3.71875q1.265625 -1.34375 3.421875 -1.34375q1.765625 0 2.796875 0.765625q1.046875 0.75 1.515625 2.3125zm1.8444519 6.8125l0 -13.359375l2.5625 0l0 7.09375l3.0 -3.40625l3.140625 0l-3.296875 3.53125l3.53125 6.140625l-2.75 0l-2.4375 -4.34375l-1.1875 1.25l0 3.09375l-2.5625 0z" fill-rule="nonzero"/></g></svg>