<svg version="1.1" viewBox="0.0 0.0 745.3805774278215 636.1338582677165" fill="none" stroke="none" stroke-linecap="square" stroke-miterlimit="10" xmlns:xlink="http://www.w3.org/1999/xlink" xmlns="http://www.w3.org/2000/svg"><clipPath id="p.0"><path d="m0 0l745.38055 0l0 636.13385l-745.38055 0l0 -636.13385z" clip-rule="nonzero"/></clipPath><g clip-path="url(#p.0)"><path fill="#000000" fill-opacity="0.0" d="m0 0l745.38055 0l0 636.13385l-745.38055 0z" fill-rule="evenodd"/><path fill="#f1c232" d="m468.91864 484.20996l77.6535 -36.472443l77.653564 36.472443l-77.653564 36.472473z" fill-rule="evenodd"/><path stroke="#000000" stroke-width="2.0" stroke-linejoin="round" stroke-linecap="butt" d="m468.91864 484.20996l77.6535 -36.472443l77.653564 36.472443l-77.653564 36.472473z" fill-rule="evenodd"/><path fill="#000000" d="m526.287 480.56998l0 -11.453125l2.1875 0l0 4.125q1.015625 -1.15625 2.40625 -1.15625q1.515625 0 2.5 1.09375q1.0 1.09375 1.0 3.15625q0 2.125 -1.015625 3.28125q-1.0 1.140625 -2.453125 1.140625q-0.703125 0 -1.40625 -0.359375q-0.6875 -0.359375 -1.1875 -1.046875l0 1.21875l-2.03125 0zm2.171875 -4.328125q0 1.28125 0.40625 1.90625q0.578125 0.875 1.515625 0.875q0.734375 0 1.234375 -0.625q0.515625 -0.625 0.515625 -1.953125q0 -1.421875 -0.515625 -2.046875q-0.515625 -0.640625 -1.3125 -0.640625q-0.796875 0 -1.328125 0.625q-0.515625 0.609375 -0.515625 1.859375zm9.7890625 4.328125l-2.1875 0l0 -8.296875l2.03125 0l0 1.171875q0.53125 -0.828125 0.9375 -1.09375q0.421875 -0.265625 0.953125 -0.265625q0.75 0 1.453125 0.40625l-0.6875 1.921875q-0.546875 -0.359375 -1.03125 -0.359375q-0.453125 0 -0.78125 0.25q-0.3125 0.25 -0.5 0.921875q-0.1875 0.65625 -0.1875 2.78125l0 2.5625zm8.9296875 -2.640625l2.1875 0.359375q-0.421875 1.203125 -1.328125 1.84375q-0.90625 0.625 -2.28125 0.625q-2.15625 0 -3.203125 -1.421875q-0.8125 -1.125 -0.8125 -2.859375q0 -2.0625 1.078125 -3.21875q1.078125 -1.171875 2.71875 -1.171875q1.859375 0 2.921875 1.21875q1.078125 1.21875 1.03125 3.75l-5.5 0q0.015625 0.96875 0.515625 1.515625q0.515625 0.546875 1.28125 0.546875q0.515625 0 0.859375 -0.28125q0.359375 -0.28125 0.53125 -0.90625zm0.125 -2.21875q-0.015625 -0.953125 -0.484375 -1.453125q-0.46875 -0.5 -1.140625 -0.5q-0.71875 0 -1.1875 0.53125q-0.46875 0.515625 -0.46875 1.421875l3.28125 0zm5.6171875 -0.90625l-2.0 -0.359375q0.34375 -1.203125 1.15625 -1.78125q0.828125 -0.578125 2.4375 -0.578125q1.46875 0 2.1875 0.34375q0.71875 0.34375 1.015625 0.890625q0.296875 0.53125 0.296875 1.953125l-0.03125 2.5625q0 1.09375 0.109375 1.625q0.109375 0.515625 0.390625 1.109375l-2.171875 0q-0.078125 -0.21875 -0.203125 -0.65625q-0.0625 -0.1875 -0.078125 -0.25q-0.5625 0.546875 -1.203125 0.828125q-0.640625 0.265625 -1.375 0.265625q-1.28125 0 -2.015625 -0.6875q-0.734375 -0.703125 -0.734375 -1.765625q0 -0.703125 0.328125 -1.25q0.34375 -0.5625 0.9375 -0.84375q0.609375 -0.296875 1.75 -0.515625q1.546875 -0.296875 2.140625 -0.546875l0 -0.21875q0 -0.625 -0.3125 -0.890625q-0.3125 -0.28125 -1.1875 -0.28125q-0.578125 0 -0.90625 0.234375q-0.328125 0.234375 -0.53125 0.8125zm2.9375 1.78125q-0.421875 0.140625 -1.34375 0.34375q-0.90625 0.1875 -1.1875 0.375q-0.4375 0.296875 -0.4375 0.765625q0 0.46875 0.34375 0.8125q0.34375 0.328125 0.875 0.328125q0.59375 0 1.140625 -0.390625q0.390625 -0.296875 0.515625 -0.734375q0.09375 -0.28125 0.09375 -1.0625l0 -0.4375zm4.2421875 3.984375l0 -11.453125l2.1875 0l0 6.078125l2.578125 -2.921875l2.703125 0l-2.84375 3.03125l3.046875 5.265625l-2.375 0l-2.078125 -3.734375l-1.03125 1.078125l0 2.65625l-2.1875 0z" fill-rule="nonzero"/><path fill="#000000" d="m547.5604 496.61685l-2.0 0q0 -0.4375 0 -0.53125q0 -0.96875 0.3125 -1.59375q0.328125 -0.625 1.28125 -1.40625q0.96875 -0.78125 1.15625 -1.015625q0.28125 -0.390625 0.28125 -0.84375q0 -0.640625 -0.515625 -1.09375q-0.5 -0.46875 -1.375 -0.46875q-0.828125 0 -1.390625 0.484375q-0.5625 0.46875 -0.78125 1.453125l-2.015625 -0.25q0.09375 -1.40625 1.1875 -2.375q1.109375 -0.984375 2.90625 -0.984375q1.890625 0 3.0 1.0q1.125 0.984375 1.125 2.296875q0 0.71875 -0.40625 1.375q-0.40625 0.640625 -1.75 1.765625q-0.703125 0.578125 -0.875 0.9375q-0.15625 0.34375 -0.140625 1.25zm-2.0 2.953125l0 -2.203125l2.203125 0l0 2.203125l-2.203125 0z" fill-rule="nonzero"/><path fill="#f1c232" d="m317.4672 301.68896l91.24408 -31.73227l91.24411 31.73227l-91.24411 31.7323z" fill-rule="evenodd"/><path stroke="#000000" stroke-width="2.0" stroke-linejoin="round" stroke-linecap="butt" d="m317.4672 301.68896l91.24408 -31.73227l91.24411 31.73227l-91.24411 31.7323z" fill-rule="evenodd"/><path fill="#000000" d="m383.76987 292.20523l-2.171875 0.390625q-0.109375 -0.65625 -0.5 -0.984375q-0.375 -0.328125 -1.0 -0.328125q-0.8125 0 -1.3125 0.578125q-0.484375 0.5625 -0.484375 1.890625q0 1.46875 0.5 2.078125q0.5 0.609375 1.328125 0.609375q0.625 0 1.015625 -0.34375q0.40625 -0.359375 0.578125 -1.234375l2.15625 0.375q-0.34375 1.484375 -1.296875 2.25q-0.953125 0.75 -2.546875 0.75q-1.828125 0 -2.90625 -1.140625q-1.078125 -1.15625 -1.078125 -3.1875q0 -2.0625 1.078125 -3.203125q1.09375 -1.140625 2.9375 -1.140625q1.515625 0 2.40625 0.65625q0.90625 0.640625 1.296875 1.984375zm1.1484375 1.578125q0 -1.09375 0.53125 -2.109375q0.546875 -1.03125 1.53125 -1.5625q1.0 -0.546875 2.21875 -0.546875q1.875 0 3.078125 1.21875q1.203125 1.21875 1.203125 3.09375q0 1.875 -1.21875 3.125q-1.203125 1.234375 -3.046875 1.234375q-1.140625 0 -2.1875 -0.515625q-1.03125 -0.515625 -1.578125 -1.515625q-0.53125 -1.0 -0.53125 -2.421875zm2.25 0.109375q0 1.234375 0.578125 1.890625q0.59375 0.65625 1.453125 0.65625q0.859375 0 1.4375 -0.65625q0.59375 -0.65625 0.59375 -1.90625q0 -1.21875 -0.59375 -1.875q-0.578125 -0.65625 -1.4375 -0.65625q-0.859375 0 -1.453125 0.65625q-0.578125 0.65625 -0.578125 1.890625zm15.5859375 4.15625l-2.203125 0l0 -4.234375q0 -1.34375 -0.140625 -1.734375q-0.140625 -0.40625 -0.453125 -0.625q-0.3125 -0.21875 -0.765625 -0.21875q-0.5625 0 -1.015625 0.3125q-0.453125 0.3125 -0.625 0.828125q-0.171875 0.515625 -0.171875 1.90625l0 3.765625l-2.1875 0l0 -8.296875l2.03125 0l0 1.21875q1.09375 -1.40625 2.734375 -1.40625q0.734375 0 1.328125 0.265625q0.609375 0.25 0.90625 0.65625q0.3125 0.40625 0.4375 0.921875q0.125 0.515625 0.125 1.484375l0 5.15625zm6.0234375 -8.296875l0 1.75l-1.5 0l0 3.34375q0 1.015625 0.046875 1.1875q0.046875 0.15625 0.1875 0.265625q0.15625 0.109375 0.375 0.109375q0.3125 0 0.890625 -0.203125l0.1875 1.703125q-0.765625 0.328125 -1.734375 0.328125q-0.59375 0 -1.078125 -0.203125q-0.46875 -0.203125 -0.703125 -0.515625q-0.21875 -0.3125 -0.296875 -0.859375q-0.078125 -0.375 -0.078125 -1.546875l0 -3.609375l-1.0 0l0 -1.75l1.0 0l0 -1.65625l2.203125 -1.28125l0 2.9375l1.5 0zm1.53125 -1.125l0 -2.03125l2.1875 0l0 2.03125l-2.1875 0zm0 9.421875l0 -8.296875l2.1875 0l0 8.296875l-2.1875 0zm11.9921875 0l-2.203125 0l0 -4.234375q0 -1.34375 -0.140625 -1.734375q-0.140625 -0.40625 -0.453125 -0.625q-0.3125 -0.21875 -0.765625 -0.21875q-0.5625 0 -1.015625 0.3125q-0.453125 0.3125 -0.625 0.828125q-0.171875 0.515625 -0.171875 1.90625l0 3.765625l-2.1875 0l0 -8.296875l2.03125 0l0 1.21875q1.09375 -1.40625 2.734375 -1.40625q0.734375 0 1.328125 0.265625q0.609375 0.25 0.90625 0.65625q0.3125 0.40625 0.4375 0.921875q0.125 0.515625 0.125 1.484375l0 5.15625zm7.6796875 0l0 -1.25q-0.453125 0.671875 -1.1875 1.0625q-0.734375 0.375 -1.5625 0.375q-0.828125 0 -1.5 -0.359375q-0.65625 -0.375 -0.953125 -1.03125q-0.296875 -0.671875 -0.296875 -1.84375l0 -5.25l2.1875 0l0 3.8125q0 1.75 0.125 2.140625q0.125 0.390625 0.4375 0.625q0.328125 0.234375 0.8125 0.234375q0.5625 0 1.0 -0.3125q0.453125 -0.3125 0.609375 -0.765625q0.171875 -0.453125 0.171875 -2.234375l0 -3.5l2.203125 0l0 8.296875l-2.046875 0zm9.1171875 -2.640625l2.1875 0.359375q-0.421875 1.203125 -1.328125 1.84375q-0.90625 0.625 -2.28125 0.625q-2.15625 0 -3.203125 -1.421875q-0.8125 -1.125 -0.8125 -2.859375q0 -2.0625 1.078125 -3.21875q1.078125 -1.171875 2.71875 -1.171875q1.859375 0 2.921875 1.21875q1.078125 1.21875 1.03125 3.75l-5.5 0q0.015625 0.96875 0.515625 1.515625q0.515625 0.546875 1.28125 0.546875q0.515625 0 0.859375 -0.28125q0.359375 -0.28125 0.53125 -0.90625zm0.125 -2.21875q-0.015625 -0.953125 -0.484375 -1.453125q-0.46875 -0.5 -1.140625 -0.5q-0.71875 0 -1.1875 0.53125q-0.46875 0.515625 -0.46875 1.421875l3.28125 0z" fill-rule="nonzero"/><path fill="#000000" d="m409.69955 314.09586l-2.0 0q0 -0.4375 0 -0.53125q0 -0.96875 0.3125 -1.59375q0.328125 -0.625 1.28125 -1.40625q0.96875 -0.78125 1.15625 -1.015625q0.28125 -0.390625 0.28125 -0.84375q0 -0.640625 -0.515625 -1.09375q-0.5 -0.46875 -1.375 -0.46875q-0.828125 0 -1.390625 0.484375q-0.5625 0.46875 -0.78125 1.453125l-2.015625 -0.25q0.09375 -1.40625 1.1875 -2.375q1.109375 -0.984375 2.90625 -0.984375q1.890625 0 3.0 1.0q1.125 0.984375 1.125 2.296875q0 0.71875 -0.40625 1.375q-0.40625 0.640625 -1.75 1.765625q-0.703125 0.578125 -0.875 0.9375q-0.15625 0.34375 -0.140625 1.25zm-2.0 2.953125l0 -2.203125l2.203125 0l0 2.203125l-2.203125 0z" fill-rule="nonzero"/><path fill="#cfe2f3" d="m250.50362 25.094666l105.33388 0l0 0c13.799042 0 24.985352 8.06649 24.985352 18.01701c0 9.950516 -11.18631 18.017006 -24.985352 18.017006l-105.33388 0l0 0c-13.7990265 0 -24.985336 -8.06649 -24.985336 -18.017006c0 -9.95052 11.18631 -18.01701 24.985336 -18.01701z" fill-rule="evenodd"/><path stroke="#000000" stroke-width="2.0" stroke-linejoin="round" stroke-linecap="butt" d="m250.50362 25.094666l105.33388 0l0 0c13.799042 0 24.985352 8.06649 24.985352 18.01701c0 9.950516 -11.18631 18.017006 -24.985352 18.017006l-105.33388 0l0 0c-13.7990265 0 -24.985336 -8.06649 -24.985336 -18.017006c0 -9.95052 11.18631 -18.01701 24.985336 -18.01701z" fill-rule="evenodd"/><path fill="#000000" d="m285.52213 45.237297l2.25 -0.21875q0.203125 1.140625 0.828125 1.671875q0.625 0.53125 1.671875 0.53125q1.125 0 1.6875 -0.46875q0.5625 -0.484375 0.5625 -1.109375q0 -0.40625 -0.234375 -0.6875q-0.234375 -0.296875 -0.828125 -0.5q-0.40625 -0.140625 -1.859375 -0.5q-1.859375 -0.46875 -2.609375 -1.140625q-1.046875 -0.9375 -1.046875 -2.296875q0 -0.875 0.484375 -1.640625q0.5 -0.765625 1.4375 -1.15625q0.9375 -0.40625 2.25 -0.40625q2.15625 0 3.25 0.953125q1.09375 0.9375 1.140625 2.515625l-2.3125 0.109375q-0.140625 -0.890625 -0.640625 -1.265625q-0.484375 -0.390625 -1.453125 -0.390625q-1.015625 0 -1.578125 0.40625q-0.375 0.265625 -0.375 0.71875q0 0.40625 0.34375 0.6875q0.4375 0.375 2.125 0.78125q1.6875 0.390625 2.5 0.8125q0.8125 0.421875 1.265625 1.171875q0.453125 0.734375 0.453125 1.8125q0 0.984375 -0.546875 1.84375q-0.546875 0.859375 -1.546875 1.28125q-1.0 0.421875 -2.484375 0.421875q-2.171875 0 -3.34375 -1.0q-1.15625 -1.015625 -1.390625 -2.9375zm15.046875 -4.5625l0 1.75l-1.5 0l0 3.34375q0 1.015625 0.046875 1.1875q0.046875 0.15625 0.1875 0.265625q0.15625 0.109375 0.375 0.109375q0.3125 0 0.890625 -0.203125l0.1875 1.703125q-0.765625 0.328125 -1.734375 0.328125q-0.59375 0 -1.078125 -0.203125q-0.46875 -0.203125 -0.703125 -0.515625q-0.21875 -0.3125 -0.296875 -0.859375q-0.078125 -0.375 -0.078125 -1.546875l0 -3.609375l-1.0 0l0 -1.75l1.0 0l0 -1.65625l2.203125 -1.28125l0 2.9375l1.5 0zm3.171875 2.53125l-2.0 -0.359375q0.34375 -1.203125 1.15625 -1.78125q0.828125 -0.578125 2.4375 -0.578125q1.46875 0 2.1875 0.34375q0.71875 0.34375 1.015625 0.890625q0.296875 0.53125 0.296875 1.953125l-0.03125 2.5625q0 1.09375 0.109375 1.625q0.109375 0.515625 0.390625 1.109375l-2.171875 0q-0.078125 -0.21875 -0.203125 -0.65625q-0.0625 -0.1875 -0.078125 -0.25q-0.5625 0.546875 -1.203125 0.828125q-0.640625 0.265625 -1.375 0.265625q-1.28125 0 -2.015625 -0.6875q-0.734375 -0.703125 -0.734375 -1.765625q0 -0.703125 0.328125 -1.25q0.34375 -0.5625 0.9375 -0.84375q0.609375 -0.296875 1.75 -0.515625q1.546875 -0.296875 2.140625 -0.546875l0 -0.21875q0 -0.625 -0.3125 -0.890625q-0.3125 -0.28125 -1.1875 -0.28125q-0.578125 0 -0.90625 0.234375q-0.328125 0.234375 -0.53125 0.8125zm2.9375 1.78125q-0.421875 0.140625 -1.34375 0.34375q-0.90625 0.1875 -1.1875 0.375q-0.4375 0.296875 -0.4375 0.765625q0 0.46875 0.34375 0.8125q0.34375 0.328125 0.875 0.328125q0.59375 0 1.140625 -0.390625q0.390625 -0.296875 0.515625 -0.734375q0.09375 -0.28125 0.09375 -1.0625l0 -0.4375zm6.4140625 3.984375l-2.1875 0l0 -8.296875l2.03125 0l0 1.171875q0.53125 -0.828125 0.9375 -1.09375q0.421875 -0.265625 0.953125 -0.265625q0.75 0 1.453125 0.40625l-0.6875 1.921875q-0.546875 -0.359375 -1.03125 -0.359375q-0.453125 0 -0.78125 0.25q-0.3125 0.25 -0.5 0.921875q-0.1875 0.65625 -0.1875 2.78125l0 2.5625zm7.9296875 -8.296875l0 1.75l-1.5 0l0 3.34375q0 1.015625 0.046875 1.1875q0.046875 0.15625 0.1875 0.265625q0.15625 0.109375 0.375 0.109375q0.3125 0 0.890625 -0.203125l0.1875 1.703125q-0.765625 0.328125 -1.734375 0.328125q-0.59375 0 -1.078125 -0.203125q-0.46875 -0.203125 -0.703125 -0.515625q-0.21875 -0.3125 -0.296875 -0.859375q-0.078125 -0.375 -0.078125 -1.546875l0 -3.609375l-1.0 0l0 -1.75l1.0 0l0 -1.65625l2.203125 -1.28125l0 2.9375l1.5 0z" fill-rule="nonzero"/><path fill="#666666" d="m578.09424 525.063l-12.471069 4.5160522c-0.2265625 -0.08215332 -0.39849854 -0.14190674 -0.51568604 -0.17926025c-0.8361206 -0.28393555 -1.3596191 -0.48937988 -1.5706177 -0.616333c-0.28131104 -0.171875 -0.50006104 -0.3922119 -0.6563721 -0.66119385c-0.15625 -0.2689209 -0.23443604 -0.6275635 -0.23443604 -1.0758057c0 -0.32867432 0.062561035 -0.71343994 0.18756104 -1.1541748l0 0l-1.980835 0.2241211c-0.17193604 0.47808838 -0.25787354 0.91137695 -0.25787354 1.2998657c0 0.6425171 0.16278076 1.1953125 0.48840332 1.6585083c0.322937 0.4631958 0.8321533 0.8740845 1.5275879 1.232666c0.5157471 0.26898193 1.4573364 0.64624023 2.824768 1.1318359l12.658569 4.5272827l0 -2.0170898l-7.255249 -2.5438232c-0.9219971 -0.32122803 -1.8674927 -0.59765625 -2.8364258 -0.82922363c1.0079956 -0.25402832 1.9691162 -0.541626 2.8833008 -0.86291504l7.208374 -2.4765015z" fill-rule="evenodd"/><path fill="#666666" d="m576.64087 542.58936c0 1.0234985 -0.40631104 1.8565063 -1.2189941 2.4989624c-0.52349854 0.418396 -1.3088379 0.6723633 -2.355896 0.7620239l0 -6.6452026c1.0861206 0.06719971 1.9534912 0.41583252 2.6020508 1.0458984c0.6485596 0.6325073 0.97283936 1.4119263 0.97283936 2.3383179zm1.7346802 -0.022399902c0 -1.6435547 -0.57818604 -2.980835 -1.7346802 -4.01178c-1.1564941 -1.0310059 -2.7817383 -1.5464478 -4.8759155 -1.5464478c-2.0238037 0 -3.5969849 0.5092163 -4.7196045 1.527771c-1.1199951 1.0209961 -1.6799927 2.4018555 -1.6799927 4.142517c0 1.3820801 0.35162354 2.5176392 1.0548706 3.4066772c0.7032471 0.88897705 1.6917114 1.4978638 2.965393 1.8265991l0.2695923 -2.0843506c-0.8908081 -0.30633545 -1.5393677 -0.72094727 -1.9456787 -1.2438965c-0.40631104 -0.5229492 -0.6094971 -1.1542358 -0.6094971 -1.8938599c0 -0.9935913 0.3633423 -1.822815 1.0900269 -2.487732c0.7266846 -0.664917 1.7738037 -1.034668 3.1412354 -1.109375l0 8.875244c0.25006104 0.007446289 0.43756104 0.011169434 0.5626221 0.011169434c2.0550537 0 3.649109 -0.50427246 4.7821045 -1.5128174c1.1330566 -1.0085449 1.6995239 -2.3084717 1.6995239 -3.8997192z" fill-rule="evenodd"/><path fill="#666666" d="m578.37555 554.3558c0 -0.62005615 -0.08465576 -1.2015381 -0.25390625 -1.7443848c-0.16674805 -0.5404053 -0.37121582 -0.96746826 -0.6134033 -1.28125c-0.31256104 -0.418396 -0.7058716 -0.74957275 -1.1799316 -0.9935913c-0.47143555 -0.24157715 -0.9845581 -0.36236572 -1.5393677 -0.36236572c-0.60943604 0 -1.1668701 0.14691162 -1.6721802 0.4407959c-0.50268555 0.29632568 -0.89727783 0.72961426 -1.1837769 1.2999268c-0.28393555 0.5727539 -0.6212158 1.5986938 -1.0119019 3.077942c-0.28912354 1.0982056 -0.5274658 1.7854614 -0.71502686 2.0618896c-0.2734375 0.39593506 -0.6485596 0.5939331 -1.1251831 0.5939331c-0.5313721 0 -0.9949951 -0.2241211 -1.3908691 -0.6723633c-0.39331055 -0.4482422 -0.5899658 -1.1355591 -0.5899658 -2.0619507c0 -0.9188843 0.22271729 -1.6348267 0.6680908 -2.1478271c0.44537354 -0.51049805 1.0861206 -0.82177734 1.9222412 -0.9338379l-0.32818604 -1.99469c-1.3205566 0.2241211 -2.3168335 0.7408447 -2.9888306 1.5501709c-0.6719971 0.8118286 -1.0079956 1.9909668 -1.0079956 3.5374146c0 0.9338379 0.16931152 1.7705688 0.50787354 2.5101929c0.34124756 0.739563 0.82177734 1.3048706 1.4417114 1.6958618c0.62249756 0.39343262 1.2854004 0.5901489 1.9886475 0.5901489c0.7188721 0 1.3205566 -0.1605835 1.8049927 -0.48187256c0.48449707 -0.32122803 0.85302734 -0.76446533 1.1057129 -1.329773c0.25524902 -0.5628052 0.5820923 -1.5576172 0.98065186 -2.984558c0.28125 -0.986145 0.46099854 -1.5800781 0.53912354 -1.7817993c0.14849854 -0.35107422 0.33599854 -0.6088257 0.5626221 -0.77319336c0.21881104 -0.16436768 0.4649048 -0.246521 0.7384033 -0.246521c0.42974854 0 0.8048706 0.19793701 1.1252441 0.5939331c0.32037354 0.39593506 0.4805298 1.0570679 0.4805298 1.9834595c0 0.7844238 -0.17974854 1.3908081 -0.5391846 1.8191528c-0.35943604 0.43078613 -0.8594971 0.69104004 -1.5002441 0.78063965l0.28131104 1.97229c0.8048096 -0.12701416 1.4468384 -0.35858154 1.9261475 -0.6947632c0.48181152 -0.33618164 0.8634033 -0.85791016 1.1447144 -1.5651245c0.28131104 -0.7047119 0.42193604 -1.5240479 0.42193604 -2.4578857z" fill-rule="evenodd"/><path stroke="#666666" stroke-width="1.0" stroke-linejoin="round" stroke-linecap="butt" d="m578.09424 525.063l-12.471069 4.5160522c-0.2265625 -0.08215332 -0.39849854 -0.14190674 -0.51568604 -0.17926025c-0.8361206 -0.28393555 -1.3596191 -0.48937988 -1.5706177 -0.616333c-0.28131104 -0.171875 -0.50006104 -0.3922119 -0.6563721 -0.66119385c-0.15625 -0.2689209 -0.23443604 -0.6275635 -0.23443604 -1.0758057c0 -0.32867432 0.062561035 -0.71343994 0.18756104 -1.1541748l0 0l-1.980835 0.2241211c-0.17193604 0.47808838 -0.25787354 0.91137695 -0.25787354 1.2998657c0 0.6425171 0.16278076 1.1953125 0.48840332 1.6585083c0.322937 0.4631958 0.8321533 0.8740845 1.5275879 1.232666c0.5157471 0.26898193 1.4573364 0.64624023 2.824768 1.1318359l12.658569 4.5272827l0 -2.0170898l-7.255249 -2.5438232c-0.9219971 -0.32122803 -1.8674927 -0.59765625 -2.8364258 -0.82922363c1.0079956 -0.25402832 1.9691162 -0.541626 2.8833008 -0.86291504l7.208374 -2.4765015z" fill-rule="evenodd"/><path stroke="#666666" stroke-width="1.0" stroke-linejoin="round" stroke-linecap="butt" d="m576.64087 542.58936c0 1.0234985 -0.40631104 1.8565063 -1.2189941 2.4989624c-0.52349854 0.418396 -1.3088379 0.6723633 -2.355896 0.7620239l0 -6.6452026c1.0861206 0.06719971 1.9534912 0.41583252 2.6020508 1.0458984c0.6485596 0.6325073 0.97283936 1.4119263 0.97283936 2.3383179zm1.7346802 -0.022399902c0 -1.6435547 -0.57818604 -2.980835 -1.7346802 -4.01178c-1.1564941 -1.0310059 -2.7817383 -1.5464478 -4.8759155 -1.5464478c-2.0238037 0 -3.5969849 0.5092163 -4.7196045 1.527771c-1.1199951 1.0209961 -1.6799927 2.4018555 -1.6799927 4.142517c0 1.3820801 0.35162354 2.5176392 1.0548706 3.4066772c0.7032471 0.88897705 1.6917114 1.4978638 2.965393 1.8265991l0.2695923 -2.0843506c-0.8908081 -0.30633545 -1.5393677 -0.72094727 -1.9456787 -1.2438965c-0.40631104 -0.5229492 -0.6094971 -1.1542358 -0.6094971 -1.8938599c0 -0.9935913 0.3633423 -1.822815 1.0900269 -2.487732c0.7266846 -0.664917 1.7738037 -1.034668 3.1412354 -1.109375l0 8.875244c0.25006104 0.007446289 0.43756104 0.011169434 0.5626221 0.011169434c2.0550537 0 3.649109 -0.50427246 4.7821045 -1.5128174c1.1330566 -1.0085449 1.6995239 -2.3084717 1.6995239 -3.8997192z" fill-rule="evenodd"/><path stroke="#666666" stroke-width="1.0" stroke-linejoin="round" stroke-linecap="butt" d="m578.37555 554.3558c0 -0.62005615 -0.08465576 -1.2015381 -0.25390625 -1.7443848c-0.16674805 -0.5404053 -0.37121582 -0.96746826 -0.6134033 -1.28125c-0.31256104 -0.418396 -0.7058716 -0.74957275 -1.1799316 -0.9935913c-0.47143555 -0.24157715 -0.9845581 -0.36236572 -1.5393677 -0.36236572c-0.60943604 0 -1.1668701 0.14691162 -1.6721802 0.4407959c-0.50268555 0.29632568 -0.89727783 0.72961426 -1.1837769 1.2999268c-0.28393555 0.5727539 -0.6212158 1.5986938 -1.0119019 3.077942c-0.28912354 1.0982056 -0.5274658 1.7854614 -0.71502686 2.0618896c-0.2734375 0.39593506 -0.6485596 0.5939331 -1.1251831 0.5939331c-0.5313721 0 -0.9949951 -0.2241211 -1.3908691 -0.6723633c-0.39331055 -0.4482422 -0.5899658 -1.1355591 -0.5899658 -2.0619507c0 -0.9188843 0.22271729 -1.6348267 0.6680908 -2.1478271c0.44537354 -0.51049805 1.0861206 -0.82177734 1.9222412 -0.9338379l-0.32818604 -1.99469c-1.3205566 0.2241211 -2.3168335 0.7408447 -2.9888306 1.5501709c-0.6719971 0.8118286 -1.0079956 1.9909668 -1.0079956 3.5374146c0 0.9338379 0.16931152 1.7705688 0.50787354 2.5101929c0.34124756 0.739563 0.82177734 1.3048706 1.4417114 1.6958618c0.62249756 0.39343262 1.2854004 0.5901489 1.9886475 0.5901489c0.7188721 0 1.3205566 -0.1605835 1.8049927 -0.48187256c0.48449707 -0.32122803 0.85302734 -0.76446533 1.1057129 -1.329773c0.25524902 -0.5628052 0.5820923 -1.5576172 0.98065186 -2.984558c0.28125 -0.986145 0.46099854 -1.5800781 0.53912354 -1.7817993c0.14849854 -0.35107422 0.33599854 -0.6088257 0.5626221 -0.77319336c0.21881104 -0.16436768 0.4649048 -0.246521 0.7384033 -0.246521c0.42974854 0 0.8048706 0.19793701 1.1252441 0.5939331c0.32037354 0.39593506 0.4805298 1.0570679 0.4805298 1.9834595c0 0.7844238 -0.17974854 1.3908081 -0.5391846 1.8191528c-0.35943604 0.43078613 -0.8594971 0.69104004 -1.5002441 0.78063965l0.28131104 1.97229c0.8048096 -0.12701416 1.4468384 -0.35858154 1.9261475 -0.6947632c0.48181152 -0.33618164 0.8634033 -0.85791016 1.1447144 -1.5651245c0.28131104 -0.7047119 0.42193604 -1.5240479 0.42193604 -2.4578857z" fill-rule="evenodd"/><path fill="#cfe2f3" d="m463.70602 351.15747l157.9736 0c2.0577393 0 4.031189 0.81744385 5.486206 2.272461c1.4550781 1.4550476 2.272461 3.4284973 2.272461 5.4862366l0 38.79248l-165.73227 0z" fill-rule="evenodd"/><path stroke="#000000" stroke-width="2.0" stroke-linejoin="round" stroke-linecap="butt" d="m463.70602 351.15747l157.9736 0c2.0577393 0 4.031189 0.81744385 5.486206 2.272461c1.4550781 1.4550476 2.272461 3.4284973 2.272461 5.4862366l0 38.79248l-165.73227 0z" fill-rule="evenodd"/><path fill="#000000" d="m515.92426 380.29306l0 -11.453125l8.484375 0l0 1.9375l-6.171875 0l0 2.53125l5.75 0l0 1.9375l-5.75 0l0 3.109375l6.390625 0l0 1.9375l-8.703125 0zm9.59375 0l3.0 -4.28125l-2.875 -4.015625l2.6875 0l1.46875 2.28125l1.546875 -2.28125l2.578125 0l-2.8125 3.921875l3.0625 4.375l-2.6875 0l-1.6875 -2.578125l-1.703125 2.578125l-2.578125 0zm14.7578125 -2.640625l2.1875 0.359375q-0.421875 1.203125 -1.328125 1.84375q-0.90625 0.625 -2.28125 0.625q-2.15625 0 -3.203125 -1.421875q-0.8125 -1.125 -0.8125 -2.859375q0 -2.0625 1.078125 -3.21875q1.078125 -1.171875 2.71875 -1.171875q1.859375 0 2.921875 1.21875q1.078125 1.21875 1.03125 3.75l-5.5 0q0.015625 0.96875 0.515625 1.515625q0.515625 0.546875 1.28125 0.546875q0.515625 0 0.859375 -0.28125q0.359375 -0.28125 0.53125 -0.90625zm0.125 -2.21875q-0.015625 -0.953125 -0.484375 -1.453125q-0.46875 -0.5 -1.140625 -0.5q-0.71875 0 -1.1875 0.53125q-0.46875 0.515625 -0.46875 1.421875l3.28125 0zm11.2109375 -0.984375l-2.171875 0.390625q-0.109375 -0.65625 -0.5 -0.984375q-0.375 -0.328125 -1.0 -0.328125q-0.8125 0 -1.3125 0.578125q-0.484375 0.5625 -0.484375 1.890625q0 1.46875 0.5 2.078125q0.5 0.609375 1.328125 0.609375q0.625 0 1.015625 -0.34375q0.40625 -0.359375 0.578125 -1.234375l2.15625 0.375q-0.34375 1.484375 -1.296875 2.25q-0.953125 0.75 -2.546875 0.75q-1.828125 0 -2.90625 -1.140625q-1.078125 -1.15625 -1.078125 -3.1875q0 -2.0625 1.078125 -3.203125q1.09375 -1.140625 2.9375 -1.140625q1.515625 0 2.40625 0.65625q0.90625 0.640625 1.296875 1.984375zm7.1171875 5.84375l0 -1.25q-0.453125 0.671875 -1.1875 1.0625q-0.734375 0.375 -1.5625 0.375q-0.828125 0 -1.5 -0.359375q-0.65625 -0.375 -0.953125 -1.03125q-0.296875 -0.671875 -0.296875 -1.84375l0 -5.25l2.1875 0l0 3.8125q0 1.75 0.125 2.140625q0.125 0.390625 0.4375 0.625q0.328125 0.234375 0.8125 0.234375q0.5625 0 1.0 -0.3125q0.453125 -0.3125 0.609375 -0.765625q0.171875 -0.453125 0.171875 -2.234375l0 -3.5l2.203125 0l0 8.296875l-2.046875 0zm8.1171875 -8.296875l0 1.75l-1.5 0l0 3.34375q0 1.015625 0.046875 1.1875q0.046875 0.15625 0.1875 0.265625q0.15625 0.109375 0.375 0.109375q0.3125 0 0.890625 -0.203125l0.1875 1.703125q-0.765625 0.328125 -1.734375 0.328125q-0.59375 0 -1.078125 -0.203125q-0.46875 -0.203125 -0.703125 -0.515625q-0.21875 -0.3125 -0.296875 -0.859375q-0.078125 -0.375 -0.078125 -1.546875l0 -3.609375l-1.0 0l0 -1.75l1.0 0l0 -1.65625l2.203125 -1.28125l0 2.9375l1.5 0zm6.328125 5.65625l2.1875 0.359375q-0.421875 1.203125 -1.328125 1.84375q-0.90625 0.625 -2.28125 0.625q-2.15625 0 -3.203125 -1.421875q-0.8125 -1.125 -0.8125 -2.859375q0 -2.0625 1.078125 -3.21875q1.078125 -1.171875 2.71875 -1.171875q1.859375 0 2.921875 1.21875q1.078125 1.21875 1.03125 3.75l-5.5 0q0.015625 0.96875 0.515625 1.515625q0.515625 0.546875 1.28125 0.546875q0.515625 0 0.859375 -0.28125q0.359375 -0.28125 0.53125 -0.90625zm0.125 -2.21875q-0.015625 -0.953125 -0.484375 -1.453125q-0.46875 -0.5 -1.140625 -0.5q-0.71875 0 -1.1875 0.53125q-0.46875 0.515625 -0.46875 1.421875l3.28125 0z" fill-rule="nonzero"/><path fill="#cfe2f3" d="m325.84515 193.6483l159.01822 0c1.7807007 0 3.4884338 0.70736694 4.7475586 1.9664917c1.2591248 1.2591248 1.9664917 2.9668732 1.9664917 4.7475433l0 33.569427l-165.73227 0z" fill-rule="evenodd"/><path stroke="#000000" stroke-width="2.0" stroke-linejoin="round" stroke-linecap="butt" d="m325.84515 193.6483l159.01822 0c1.7807007 0 3.4884338 0.70736694 4.7475586 1.9664917c1.2591248 1.2591248 1.9664917 2.9668732 1.9664917 4.7475433l0 33.569427l-165.73227 0z" fill-rule="evenodd"/><path fill="#000000" d="m378.21634 219.65002l0 -11.453125l8.484375 0l0 1.9375l-6.171875 0l0 2.53125l5.75 0l0 1.9375l-5.75 0l0 3.109375l6.390625 0l0 1.9375l-8.703125 0zm9.59375 0l3.0 -4.28125l-2.875 -4.015625l2.6875 0l1.46875 2.28125l1.546875 -2.28125l2.578125 0l-2.8125 3.921875l3.0625 4.375l-2.6875 0l-1.6875 -2.578125l-1.703125 2.578125l-2.578125 0zm14.7578125 -2.640625l2.1875 0.359375q-0.421875 1.203125 -1.328125 1.84375q-0.90625 0.625 -2.28125 0.625q-2.15625 0 -3.203125 -1.421875q-0.8125 -1.125 -0.8125 -2.859375q0 -2.0625 1.078125 -3.21875q1.078125 -1.171875 2.71875 -1.171875q1.859375 0 2.921875 1.21875q1.078125 1.21875 1.03125 3.75l-5.5 0q0.015625 0.96875 0.515625 1.515625q0.515625 0.546875 1.28125 0.546875q0.515625 0 0.859375 -0.28125q0.359375 -0.28125 0.53125 -0.90625zm0.125 -2.21875q-0.015625 -0.953125 -0.484375 -1.453125q-0.46875 -0.5 -1.140625 -0.5q-0.71875 0 -1.1875 0.53125q-0.46875 0.515625 -0.46875 1.421875l3.28125 0zm11.2109375 -0.984375l-2.171875 0.390625q-0.109375 -0.65625 -0.5 -0.984375q-0.375 -0.328125 -1.0 -0.328125q-0.8125 0 -1.3125 0.578125q-0.484375 0.5625 -0.484375 1.890625q0 1.46875 0.5 2.078125q0.5 0.609375 1.328125 0.609375q0.625 0 1.015625 -0.34375q0.40625 -0.359375 0.578125 -1.234375l2.15625 0.375q-0.34375 1.484375 -1.296875 2.25q-0.953125 0.75 -2.546875 0.75q-1.828125 0 -2.90625 -1.140625q-1.078125 -1.15625 -1.078125 -3.1875q0 -2.0625 1.078125 -3.203125q1.09375 -1.140625 2.9375 -1.140625q1.515625 0 2.40625 0.65625q0.90625 0.640625 1.296875 1.984375zm7.1171875 5.84375l0 -1.25q-0.453125 0.671875 -1.1875 1.0625q-0.734375 0.375 -1.5625 0.375q-0.828125 0 -1.5 -0.359375q-0.65625 -0.375 -0.953125 -1.03125q-0.296875 -0.671875 -0.296875 -1.84375l0 -5.25l2.1875 0l0 3.8125q0 1.75 0.125 2.140625q0.125 0.390625 0.4375 0.625q0.328125 0.234375 0.8125 0.234375q0.5625 0 1.0 -0.3125q0.453125 -0.3125 0.609375 -0.765625q0.171875 -0.453125 0.171875 -2.234375l0 -3.5l2.203125 0l0 8.296875l-2.046875 0zm8.1171875 -8.296875l0 1.75l-1.5 0l0 3.34375q0 1.015625 0.046875 1.1875q0.046875 0.15625 0.1875 0.265625q0.15625 0.109375 0.375 0.109375q0.3125 0 0.890625 -0.203125l0.1875 1.703125q-0.765625 0.328125 -1.734375 0.328125q-0.59375 0 -1.078125 -0.203125q-0.46875 -0.203125 -0.703125 -0.515625q-0.21875 -0.3125 -0.296875 -0.859375q-0.078125 -0.375 -0.078125 -1.546875l0 -3.609375l-1.0 0l0 -1.75l1.0 0l0 -1.65625l2.203125 -1.28125l0 2.9375l1.5 0zm6.328125 5.65625l2.1875 0.359375q-0.421875 1.203125 -1.328125 1.84375q-0.90625 0.625 -2.28125 0.625q-2.15625 0 -3.203125 -1.421875q-0.8125 -1.125 -0.8125 -2.859375q0 -2.0625 1.078125 -3.21875q1.078125 -1.171875 2.71875 -1.171875q1.859375 0 2.921875 1.21875q1.078125 1.21875 1.03125 3.75l-5.5 0q0.015625 0.96875 0.515625 1.515625q0.515625 0.546875 1.28125 0.546875q0.515625 0 0.859375 -0.28125q0.359375 -0.28125 0.53125 -0.90625zm0.125 -2.21875q-0.015625 -0.953125 -0.484375 -1.453125q-0.46875 -0.5 -1.140625 -0.5q-0.71875 0 -1.1875 0.53125q-0.46875 0.515625 -0.46875 1.421875l3.28125 0z" fill-rule="nonzero"/><path fill="#000000" fill-opacity="0.0" d="m317.4672 301.68896l-184.69292 0l0 -147.49605" fill-rule="evenodd"/><path stroke="#674ea7" stroke-width="2.0" stroke-linejoin="round" stroke-linecap="butt" d="m317.4672 301.68896l-184.69292 0l0 -135.49605" fill-rule="evenodd"/><path fill="#674ea7" stroke="#674ea7" stroke-width="2.0" stroke-linecap="butt" d="m136.07774 166.19292l-3.3034668 -9.076202l-3.3034668 9.076202z" fill-rule="evenodd"/><path fill="#000000" fill-opacity="0.0" d="m303.2021 157.62204l0 56.157486l22.64569 0" fill-rule="evenodd"/><path stroke="#674ea7" stroke-width="2.0" stroke-linejoin="round" stroke-linecap="butt" d="m303.2021 157.62204l0 56.157486l10.645691 0" fill-rule="evenodd"/><path fill="#674ea7" stroke="#674ea7" stroke-width="2.0" stroke-linecap="butt" d="m313.84778 217.083l9.076172 -3.3034668l-9.076172 -3.3034668z" fill-rule="evenodd"/><path fill="#000000" fill-opacity="0.0" d="m408.71127 333.42126l0 41.007874l54.992126 0" fill-rule="evenodd"/><path stroke="#674ea7" stroke-width="2.0" stroke-linejoin="round" stroke-linecap="butt" d="m408.71127 333.42126l0 41.007874l42.992126 0" fill-rule="evenodd"/><path fill="#674ea7" stroke="#674ea7" stroke-width="2.0" stroke-linecap="butt" d="m451.7034 377.7326l9.076202 -3.3034668l-9.076202 -3.3034668z" fill-rule="evenodd"/><path fill="#000000" fill-opacity="0.0" d="m408.71127 233.93176l0 18.012497l0.0630188 0l0 18.018997" fill-rule="evenodd"/><path stroke="#674ea7" stroke-width="2.0" stroke-linejoin="round" stroke-linecap="butt" d="m408.71127 233.93176l0 18.012497l0.0630188 0l0 6.018997" fill-rule="evenodd"/><path fill="#674ea7" stroke="#674ea7" stroke-width="2.0" stroke-linecap="butt" d="m405.47083 257.96326l3.3034668 9.076202l3.3034363 -9.076202z" fill-rule="evenodd"/><path fill="#cfe2f3" d="m233.2677 452.4777l97.61133 0c2.805359 0 5.495819 1.1144104 7.4795227 3.098114c1.9837036 1.9837036 3.098114 4.674164 3.098114 7.4795227l0 52.886932l-108.188965 0z" fill-rule="evenodd"/><path stroke="#000000" stroke-width="2.0" stroke-linejoin="round" stroke-linecap="butt" d="m233.2677 452.4777l97.61133 0c2.805359 0 5.495819 1.1144104 7.4795227 3.098114c1.9837036 1.9837036 3.098114 4.674164 3.098114 7.4795227l0 52.886932l-108.188965 0z" fill-rule="evenodd"/><path fill="#000000" d="m256.30142 490.06998l0 -11.453125l8.484375 0l0 1.9375l-6.171875 0l0 2.53125l5.75 0l0 1.9375l-5.75 0l0 3.109375l6.390625 0l0 1.9375l-8.703125 0zm9.59375 0l3.0 -4.28125l-2.875 -4.015625l2.6875 0l1.46875 2.28125l1.546875 -2.28125l2.578125 0l-2.8125 3.921875l3.0625 4.375l-2.6875 0l-1.6875 -2.578125l-1.703125 2.578125l-2.578125 0zm14.7578125 -2.640625l2.1875 0.359375q-0.421875 1.203125 -1.328125 1.84375q-0.90625 0.625 -2.28125 0.625q-2.15625 0 -3.203125 -1.421875q-0.8125 -1.125 -0.8125 -2.859375q0 -2.0625 1.078125 -3.21875q1.078125 -1.171875 2.71875 -1.171875q1.859375 0 2.921875 1.21875q1.078125 1.21875 1.03125 3.75l-5.5 0q0.015625 0.96875 0.515625 1.515625q0.515625 0.546875 1.28125 0.546875q0.515625 0 0.859375 -0.28125q0.359375 -0.28125 0.53125 -0.90625zm0.125 -2.21875q-0.015625 -0.953125 -0.484375 -1.453125q-0.46875 -0.5 -1.140625 -0.5q-0.71875 0 -1.1875 0.53125q-0.46875 0.515625 -0.46875 1.421875l3.28125 0zm11.2109375 -0.984375l-2.171875 0.390625q-0.109375 -0.65625 -0.5 -0.984375q-0.375 -0.328125 -1.0 -0.328125q-0.8125 0 -1.3125 0.578125q-0.484375 0.5625 -0.484375 1.890625q0 1.46875 0.5 2.078125q0.5 0.609375 1.328125 0.609375q0.625 0 1.015625 -0.34375q0.40625 -0.359375 0.578125 -1.234375l2.15625 0.375q-0.34375 1.484375 -1.296875 2.25q-0.953125 0.75 -2.546875 0.75q-1.828125 0 -2.90625 -1.140625q-1.078125 -1.15625 -1.078125 -3.1875q0 -2.0625 1.078125 -3.203125q1.09375 -1.140625 2.9375 -1.140625q1.515625 0 2.40625 0.65625q0.90625 0.640625 1.296875 1.984375zm7.1171875 5.84375l0 -1.25q-0.453125 0.671875 -1.1875 1.0625q-0.734375 0.375 -1.5625 0.375q-0.828125 0 -1.5 -0.359375q-0.65625 -0.375 -0.953125 -1.03125q-0.296875 -0.671875 -0.296875 -1.84375l0 -5.25l2.1875 0l0 3.8125q0 1.75 0.125 2.140625q0.125 0.390625 0.4375 0.625q0.328125 0.234375 0.8125 0.234375q0.5625 0 1.0 -0.3125q0.453125 -0.3125 0.609375 -0.765625q0.171875 -0.453125 0.171875 -2.234375l0 -3.5l2.203125 0l0 8.296875l-2.046875 0zm8.1171875 -8.296875l0 1.75l-1.5 0l0 3.34375q0 1.015625 0.046875 1.1875q0.046875 0.15625 0.1875 0.265625q0.15625 0.109375 0.375 0.109375q0.3125 0 0.890625 -0.203125l0.1875 1.703125q-0.765625 0.328125 -1.734375 0.328125q-0.59375 0 -1.078125 -0.203125q-0.46875 -0.203125 -0.703125 -0.515625q-0.21875 -0.3125 -0.296875 -0.859375q-0.078125 -0.375 -0.078125 -1.546875l0 -3.609375l-1.0 0l0 -1.75l1.0 0l0 -1.65625l2.203125 -1.28125l0 2.9375l1.5 0zm6.328125 5.65625l2.1875 0.359375q-0.421875 1.203125 -1.328125 1.84375q-0.90625 0.625 -2.28125 0.625q-2.15625 0 -3.203125 -1.421875q-0.8125 -1.125 -0.8125 -2.859375q0 -2.0625 1.078125 -3.21875q1.078125 -1.171875 2.71875 -1.171875q1.859375 0 2.921875 1.21875q1.078125 1.21875 1.03125 3.75l-5.5 0q0.015625 0.96875 0.515625 1.515625q0.515625 0.546875 1.28125 0.546875q0.515625 0 0.859375 -0.28125q0.359375 -0.28125 0.53125 -0.90625zm0.125 -2.21875q-0.015625 -0.953125 -0.484375 -1.453125q-0.46875 -0.5 -1.140625 -0.5q-0.71875 0 -1.1875 0.53125q-0.46875 0.515625 -0.46875 1.421875l3.28125 0z" fill-rule="nonzero"/><path fill="#000000" fill-opacity="0.0" d="m233.2677 484.20996l-145.48615 0l0 -348.97638l25.013695 0" fill-rule="evenodd"/><path stroke="#674ea7" stroke-width="2.0" stroke-linejoin="round" stroke-linecap="butt" d="m233.2677 484.20996l-145.48615 0l0 -348.97638l13.013702 0" fill-rule="evenodd"/><path fill="#674ea7" stroke="#674ea7" stroke-width="2.0" stroke-linecap="butt" d="m100.79526 138.53706l9.076195 -3.3034668l-9.076195 -3.3034668z" fill-rule="evenodd"/><path fill="#000000" fill-opacity="0.0" d="m546.57214 520.68243l0.03149414 57.07086" fill-rule="evenodd"/><path stroke="#674ea7" stroke-width="2.0" stroke-linejoin="round" stroke-linecap="butt" d="m546.5722 520.68243l0.024841309 45.07086" fill-rule="evenodd"/><path fill="#674ea7" stroke="#674ea7" stroke-width="2.0" stroke-linecap="butt" d="m543.2936 565.7551l3.3084717 9.074341l3.298462 -9.078003z" fill-rule="evenodd"/><path fill="#000000" fill-opacity="0.0" d="m468.91864 484.20996l-63.731018 0l0 0.0630188l-63.73355 0" fill-rule="evenodd"/><path stroke="#674ea7" stroke-width="2.0" stroke-linejoin="round" stroke-linecap="butt" d="m468.91864 484.20996l-63.731018 0l0 0.0630188l-51.73355 0" fill-rule="evenodd"/><path fill="#674ea7" stroke="#674ea7" stroke-width="2.0" stroke-linecap="butt" d="m353.45407 480.9695l-9.076202 3.3034668l9.076202 3.3034363z" fill-rule="evenodd"/><path fill="#000000" fill-opacity="0.0" d="m303.17056 61.12868l0 25.86884l0.06298828 0l0 25.879196" fill-rule="evenodd"/><path stroke="#674ea7" stroke-width="2.0" stroke-linejoin="round" stroke-linecap="butt" d="m303.17056 61.12868l0 25.86884l0.06298828 0l0 13.879189" fill-rule="evenodd"/><path fill="#674ea7" stroke="#674ea7" stroke-width="2.0" stroke-linecap="butt" d="m299.93008 100.87671l3.3034668 9.076202l3.3034668 -9.076202z" fill-rule="evenodd"/><path fill="#000000" fill-opacity="0.0" d="m546.5722 397.70865l0 25.014374l0.06298828 0l0 25.001373" fill-rule="evenodd"/><path stroke="#674ea7" stroke-width="2.0" stroke-linejoin="round" stroke-linecap="butt" d="m546.5722 397.70865l0 25.014404l0.06298828 0l0 13.001343" fill-rule="evenodd"/><path fill="#674ea7" stroke="#674ea7" stroke-width="2.0" stroke-linecap="butt" d="m543.3317 435.7244l3.3034668 9.076202l3.3034668 -9.076202z" fill-rule="evenodd"/><path fill="#f1c232" d="m213.78215 135.2441l35.767975 -22.377953l107.30394 0l35.767975 22.377953l-35.767975 22.377945l-107.30394 0z" fill-rule="evenodd"/><path stroke="#000000" stroke-width="2.0" stroke-linejoin="round" stroke-linecap="butt" d="m213.78215 135.2441l35.767975 -22.377953l107.30394 0l35.767975 22.377953l-35.767975 22.377945l-107.30394 0z" fill-rule="evenodd"/><path fill="#000000" d="m269.17474 132.80722l1.21875 0l0 -0.625q0 -1.046875 0.21875 -1.5625q0.234375 -0.515625 0.828125 -0.84375q0.59375 -0.328125 1.515625 -0.328125q0.9375 0 1.828125 0.28125l-0.296875 1.53125q-0.515625 -0.125 -1.0 -0.125q-0.484375 0 -0.6875 0.234375q-0.203125 0.21875 -0.203125 0.84375l0 0.59375l1.640625 0l0 1.71875l-1.640625 0l0 6.578125l-2.203125 0l0 -6.578125l-1.21875 0l0 -1.71875zm5.78125 4.03125q0 -1.09375 0.53125 -2.109375q0.546875 -1.03125 1.53125 -1.5625q1.0 -0.546875 2.21875 -0.546875q1.875 0 3.078125 1.21875q1.203125 1.21875 1.203125 3.09375q0 1.875 -1.21875 3.125q-1.203125 1.234375 -3.046875 1.234375q-1.140625 0 -2.1875 -0.515625q-1.03125 -0.515625 -1.578125 -1.515625q-0.53125 -1.0 -0.53125 -2.421875zm2.25 0.109375q0 1.234375 0.578125 1.890625q0.59375 0.65625 1.453125 0.65625q0.859375 0 1.4375 -0.65625q0.59375 -0.65625 0.59375 -1.90625q0 -1.21875 -0.59375 -1.875q-0.578125 -0.65625 -1.4375 -0.65625q-0.859375 0 -1.453125 0.65625q-0.578125 0.65625 -0.578125 1.890625zm10.1328125 4.15625l-2.1875 0l0 -8.296875l2.03125 0l0 1.171875q0.53125 -0.828125 0.9375 -1.09375q0.421875 -0.265625 0.953125 -0.265625q0.75 0 1.453125 0.40625l-0.6875 1.921875q-0.546875 -0.359375 -1.03125 -0.359375q-0.453125 0 -0.78125 0.25q-0.3125 0.25 -0.5 0.921875q-0.1875 0.65625 -0.1875 2.78125l0 2.5625zm7.390625 0.203125l2.84375 -11.859375l1.65625 0l-2.875 11.859375l-1.625 0zm10.078125 -0.203125l0 -11.453125l2.1875 0l0 11.453125l-2.1875 0zm3.9296875 -4.265625q0 -1.09375 0.53125 -2.109375q0.546875 -1.03125 1.53125 -1.5625q1.0 -0.546875 2.21875 -0.546875q1.875 0 3.078125 1.21875q1.203125 1.21875 1.203125 3.09375q0 1.875 -1.21875 3.125q-1.203125 1.234375 -3.046875 1.234375q-1.140625 0 -2.1875 -0.515625q-1.03125 -0.515625 -1.578125 -1.515625q-0.53125 -1.0 -0.53125 -2.421875zm2.25 0.109375q0 1.234375 0.578125 1.890625q0.59375 0.65625 1.453125 0.65625q0.859375 0 1.4375 -0.65625q0.59375 -0.65625 0.59375 -1.90625q0 -1.21875 -0.59375 -1.875q-0.578125 -0.65625 -1.4375 -0.65625q-0.859375 0 -1.453125 0.65625q-0.578125 0.65625 -0.578125 1.890625zm7.5234375 -0.109375q0 -1.09375 0.53125 -2.109375q0.546875 -1.03125 1.53125 -1.5625q1.0 -0.546875 2.21875 -0.546875q1.875 0 3.078125 1.21875q1.203125 1.21875 1.203125 3.09375q0 1.875 -1.21875 3.125q-1.203125 1.234375 -3.046875 1.234375q-1.140625 0 -2.1875 -0.515625q-1.03125 -0.515625 -1.578125 -1.515625q-0.53125 -1.0 -0.53125 -2.421875zm2.25 0.109375q0 1.234375 0.578125 1.890625q0.59375 0.65625 1.453125 0.65625q0.859375 0 1.4375 -0.65625q0.59375 -0.65625 0.59375 -1.90625q0 -1.21875 -0.59375 -1.875q-0.578125 -0.65625 -1.4375 -0.65625q-0.859375 0 -1.453125 0.65625q-0.578125 0.65625 -0.578125 1.890625zm7.9765625 -4.140625l2.046875 0l0 1.21875q0.390625 -0.625 1.0625 -1.015625q0.6875 -0.390625 1.515625 -0.390625q1.453125 0 2.453125 1.140625q1.015625 1.125 1.015625 3.140625q0 2.078125 -1.015625 3.234375q-1.015625 1.15625 -2.46875 1.15625q-0.6875 0 -1.25 -0.265625q-0.546875 -0.28125 -1.171875 -0.953125l0 4.1875l-2.1875 0l0 -11.453125zm2.171875 4.0q0 1.40625 0.546875 2.078125q0.5625 0.65625 1.359375 0.65625q0.765625 0 1.265625 -0.609375q0.515625 -0.609375 0.515625 -2.015625q0 -1.296875 -0.53125 -1.921875q-0.515625 -0.640625 -1.296875 -0.640625q-0.796875 0 -1.328125 0.625q-0.53125 0.609375 -0.53125 1.828125z" fill-rule="nonzero"/><path fill="#000000" fill-opacity="0.0" d="m392.62204 135.2441l281.35434 0l0 441.57483" fill-rule="evenodd"/><path stroke="#cc0000" stroke-width="2.0" stroke-linejoin="round" stroke-linecap="butt" d="m392.62204 135.2441l281.35434 0l0 429.57483" fill-rule="evenodd"/><path fill="#cc0000" stroke="#cc0000" stroke-width="2.0" stroke-linecap="butt" d="m670.6729 564.8189l3.3034668 9.076172l3.3034668 -9.076172z" fill-rule="evenodd"/><path fill="#666666" d="m57.990005 338.12042c0 0.5048218 0.15005875 0.9682312 0.4501686 1.3902283c0.30010986 0.41934204 0.9211731 0.8774109 1.8631859 1.3742371l-2.0132408 0l0 1.9471436l13.279896 0l0 -2.1635132l-6.9525604 0c-0.9503517 0 -1.825676 -0.12017822 -2.6259727 -0.3605652c-0.52519226 -0.16027832 -0.9350662 -0.42871094 -1.2296181 -0.80529785c-0.29733276 -0.37661743 -0.44599915 -0.80130005 -0.44599915 -1.2740784c0 -0.5288391 0.16255951 -1.0577087 0.48768234 -1.5865479l-2.088272 -0.74520874c-0.48351288 0.75320435 -0.7252693 1.4944153 -0.7252693 2.2236023z" fill-rule="evenodd"/><path fill="#666666" d="m59.84069 329.34625c0 -1.0977783 0.43349075 -1.9912109 1.3004799 -2.6803284c0.55854034 -0.44873047 1.396347 -0.7211609 2.5134277 -0.8173218l0 7.1275024c-1.1587601 -0.07211304 -2.0841026 -0.44604492 -2.7760239 -1.1217957c-0.69192505 -0.6784363 -1.0378838 -1.5144653 -1.0378838 -2.5080566zm-1.8506851 0.024017334c0 1.7628479 0.6168976 3.197174 1.8506851 4.302948c1.2337875 1.1058044 2.967762 1.6586914 5.2019196 1.6586914c2.1591263 0 3.8375244 -0.5462036 5.035187 -1.6386414c1.1948853 -1.0950928 1.7923355 -2.5761719 1.7923355 -4.4431763c0 -1.4823914 -0.37514496 -2.700348 -1.1254196 -3.6539001c-0.75027466 -0.95355225 -1.8048325 -1.6065979 -3.1636658 -1.9591675l-0.2876053 2.2356262c0.9503479 0.32852173 1.642273 0.7732239 2.0757675 1.334137c0.43348694 0.5609131 0.65023804 1.2380066 0.65023804 2.0312805c0 1.0657349 -0.3876419 1.9551697 -1.1629333 2.6683044c-0.7752838 0.7131653 -1.8923645 1.1098022 -3.3512344 1.1899414l0 -9.519379c-0.26676178 -0.008026123 -0.46683502 -0.012023926 -0.6002197 -0.012023926c-2.1924782 0 -3.8931046 0.54086304 -5.101883 1.6226196c-1.2087784 1.0817566 -1.8131714 2.4759827 -1.8131714 4.1827393z" fill-rule="evenodd"/><path fill="#666666" d="m59.75316 315.4518c0 -0.9295044 0.42098618 -1.7281189 1.2629662 -2.395874c0.84197617 -0.67041016 2.1091118 -1.0056152 3.801403 -1.0056152c1.77565 0 3.0872498 0.34320068 3.934784 1.0296631c0.8447571 0.68377686 1.2671356 1.5064392 1.2671356 2.467987c0 0.9455261 -0.4084854 1.750824 -1.2254562 2.4158936c-0.8169632 0.6650696 -2.0799332 0.9976196 -3.7888947 0.9976196c-1.7089653 0 -3.0108337 -0.35391235 -3.9056091 -1.0617371c-0.8975525 -0.71047974 -1.3463287 -1.5264587 -1.3463287 -2.447937zm-1.7631531 -0.2043457c0 0.8333435 0.16950989 1.542511 0.50852203 2.1274414c0.33623505 0.58496094 0.84197617 1.1098022 1.5172272 1.5745544l-1.7256355 0l0 1.9711914l18.369274 0l0 -2.1635132l-6.464882 0c0.48351288 -0.3685913 0.88365936 -0.8386841 1.2004395 -1.4102783c0.31678772 -0.57424927 0.47518158 -1.2219543 0.47518158 -1.9431458c0 -0.9855652 -0.28900146 -1.9244385 -0.86698914 -2.8165283c-0.5807724 -0.8947754 -1.4144135 -1.5758972 -2.5009232 -2.0433044c-1.0892944 -0.47009277 -2.3133545 -0.70513916 -3.6721878 -0.70513916c-1.2671356 0 -2.4314537 0.21234131 -3.492958 0.6370239c-1.0642815 0.42468262 -1.888195 1.0537109 -2.4717445 1.8870544c-0.5835495 0.8333435 -0.87532425 1.7948914 -0.87532425 2.8846436z" fill-rule="evenodd"/><path fill="#666666" d="m59.84069 301.96603c0 -1.0977783 0.43349075 -1.9912109 1.3004799 -2.6803284c0.55854034 -0.44873047 1.396347 -0.7211609 2.5134277 -0.8173218l0 7.1275024c-1.1587601 -0.07211304 -2.0841026 -0.44604492 -2.7760239 -1.1217957c-0.69192505 -0.6784363 -1.0378838 -1.5144653 -1.0378838 -2.5080566zm-1.8506851 0.024047852c0 1.7628479 0.6168976 3.1971436 1.8506851 4.302948c1.2337875 1.1057739 2.967762 1.6586609 5.2019196 1.6586609c2.1591263 0 3.8375244 -0.5462036 5.035187 -1.6386414c1.1948853 -1.0950928 1.7923355 -2.5761719 1.7923355 -4.4431763c0 -1.4823914 -0.37514496 -2.700348 -1.1254196 -3.6539001c-0.75027466 -0.9535217 -1.8048325 -1.6065979 -3.1636658 -1.9591675l-0.2876053 2.2356262c0.9503479 0.32852173 1.642273 0.7732544 2.0757675 1.334137c0.43348694 0.5609131 0.65023804 1.2380066 0.65023804 2.0312805c0 1.0657349 -0.3876419 1.9551697 -1.1629333 2.6683044c-0.7752838 0.7131653 -1.8923645 1.1098022 -3.3512344 1.1899414l0 -9.519379c-0.26676178 -0.008026123 -0.46683502 -0.012023926 -0.6002197 -0.012023926c-2.1924782 0 -3.8931046 0.54089355 -5.101883 1.6226196c-1.2087784 1.0817566 -1.8131714 2.4760132 -1.8131714 4.18277z" fill-rule="evenodd"/><path fill="#666666" d="m64.90506 285.39127l0.8253021 0c0.9920349 0 1.7423096 0.11618042 2.2508316 0.34857178c0.65857697 0.30447388 1.178215 0.78125 1.5589066 1.4302979c0.37792206 0.64904785 0.5668793 1.3902588 0.5668793 2.2236023c0 0.8413391 -0.20007324 1.4810486 -0.6002197 1.9190979c-0.4001541 0.43536377 -0.9003372 0.65304565 -1.500557 0.65304565c-0.39180756 0 -0.74749756 -0.10015869 -1.0670624 -0.30047607c-0.32234192 -0.20031738 -0.56687164 -0.48480225 -0.73360443 -0.85339355c-0.16672516 -0.3685913 -0.3167801 -0.9975891 -0.4501648 -1.8870239c-0.23342133 -1.5705566 -0.51685333 -2.7484436 -0.8503113 -3.533722zm-6.9150543 2.7524414c0 1.0977783 0.15700531 2.063324 0.4710083 2.896698c0.3112259 0.8333435 0.75722504 1.4703674 1.3379936 1.9110718c0.5779915 0.44070435 1.3379936 0.75723267 2.2800102 0.9495239l0.30010986 -2.1154175c-0.9420166 -0.23236084 -1.5978127 -0.590271 -1.967392 -1.0737305c-0.37236023 -0.4861145 -0.55854034 -1.2380066 -0.55854034 -2.2556458c0 -1.0897522 0.25426102 -1.9110718 0.76277924 -2.4639587c0.37514114 -0.4086609 1.0212135 -0.6130066 1.9382172 -0.6130066c0.08336258 0 0.27927017 0.0040283203 0.58771515 0.012023926c0.30011368 0.8253479 0.55854034 2.1114197 0.7752876 3.8582458c0.108371735 0.85736084 0.22091293 1.4984131 0.3376274 1.9230957c0.16672516 0.5769348 0.41265106 1.0964355 0.7377701 1.5585022c0.32511902 0.45941162 0.75722504 0.83203125 1.2963104 1.1178284c0.5363083 0.28311157 1.1295853 0.42468262 1.7798233 0.42468262c1.1087418 0 2.0201874 -0.37661743 2.7343445 -1.1298218c0.7113724 -0.75323486 1.0670624 -1.8309631 1.0670624 -3.2332458c0 -0.84936523 -0.14588928 -1.6439819 -0.43766785 -2.38385c-0.29177094 -0.7425232 -0.79195404 -1.5144348 -1.5005493 -2.3157349c0.6252289 -0.064086914 1.1712646 -0.20831299 1.6380997 -0.43267822l0 -2.259674c-0.5085144 0.27246094 -1.0392685 0.45541382 -1.5922546 0.54888916c-0.5557556 0.09082031 -1.8798599 0.13623047 -3.9722977 0.13623047l-3.0011063 0c-1.00037 0 -1.6922913 0.036071777 -2.0757637 0.108184814c-0.61689377 0.12820435 -1.1268044 0.35256958 -1.5297318 0.6730652c-0.4057045 0.32052612 -0.74193954 0.8213501 -1.0087051 1.5024414c-0.2667656 0.6810913 -0.4001503 1.5665283 -0.4001503 2.6562805z" fill-rule="evenodd"/><path fill="#666666" d="m53.650906 277.30222l1.3504982 2.1514587l3.2887154 0l0 1.5865784l1.7506447 0l0 -1.5865784l7.64032 0c1.3504944 0 2.2369385 -0.088134766 2.659317 -0.2644348c0.4195938 -0.17626953 0.7586136 -0.48077393 1.0170364 -0.91345215c0.25843048 -0.43270874 0.3876419 -1.041687 0.3876419 -1.8269653c0 -0.48077393 -0.06668854 -1.0256348 -0.20007324 -1.6346436l-1.9882278 0.3125c0.05834961 0.39263916 0.08753204 0.7091675 0.08753204 0.94955444c0 0.32052612 -0.05419159 0.5675659 -0.16255951 0.7411804c-0.10837555 0.17095947 -0.25426483 0.29516602 -0.43766785 0.37261963c-0.18339539 0.07476807 -0.59604645 0.11218262 -1.2379532 0.11218262l-7.7653656 0l0 -2.175537l-1.7506447 0l0 2.175537l-4.6392136 0z" fill-rule="evenodd"/><path stroke="#999999" stroke-width="1.0" stroke-linejoin="round" stroke-linecap="butt" d="m57.990005 338.12042c0 0.5048218 0.15005875 0.9682312 0.4501686 1.3902283c0.30010986 0.41934204 0.9211731 0.8774109 1.8631859 1.3742371l-2.0132408 0l0 1.9471436l13.279896 0l0 -2.1635132l-6.9525604 0c-0.9503517 0 -1.825676 -0.12017822 -2.6259727 -0.3605652c-0.52519226 -0.16027832 -0.9350662 -0.42871094 -1.2296181 -0.80529785c-0.29733276 -0.37661743 -0.44599915 -0.80130005 -0.44599915 -1.2740784c0 -0.5288391 0.16255951 -1.0577087 0.48768234 -1.5865479l-2.088272 -0.74520874c-0.48351288 0.75320435 -0.7252693 1.4944153 -0.7252693 2.2236023z" fill-rule="evenodd"/><path stroke="#999999" stroke-width="1.0" stroke-linejoin="round" stroke-linecap="butt" d="m59.84069 329.34625c0 -1.0977783 0.43349075 -1.9912109 1.3004799 -2.6803284c0.55854034 -0.44873047 1.396347 -0.7211609 2.5134277 -0.8173218l0 7.1275024c-1.1587601 -0.07211304 -2.0841026 -0.44604492 -2.7760239 -1.1217957c-0.69192505 -0.6784363 -1.0378838 -1.5144653 -1.0378838 -2.5080566zm-1.8506851 0.024017334c0 1.7628479 0.6168976 3.197174 1.8506851 4.302948c1.2337875 1.1058044 2.967762 1.6586914 5.2019196 1.6586914c2.1591263 0 3.8375244 -0.5462036 5.035187 -1.6386414c1.1948853 -1.0950928 1.7923355 -2.5761719 1.7923355 -4.4431763c0 -1.4823914 -0.37514496 -2.700348 -1.1254196 -3.6539001c-0.75027466 -0.95355225 -1.8048325 -1.6065979 -3.1636658 -1.9591675l-0.2876053 2.2356262c0.9503479 0.32852173 1.642273 0.7732239 2.0757675 1.334137c0.43348694 0.5609131 0.65023804 1.2380066 0.65023804 2.0312805c0 1.0657349 -0.3876419 1.9551697 -1.1629333 2.6683044c-0.7752838 0.7131653 -1.8923645 1.1098022 -3.3512344 1.1899414l0 -9.519379c-0.26676178 -0.008026123 -0.46683502 -0.012023926 -0.6002197 -0.012023926c-2.1924782 0 -3.8931046 0.54086304 -5.101883 1.6226196c-1.2087784 1.0817566 -1.8131714 2.4759827 -1.8131714 4.1827393z" fill-rule="evenodd"/><path stroke="#999999" stroke-width="1.0" stroke-linejoin="round" stroke-linecap="butt" d="m59.75316 315.4518c0 -0.9295044 0.42098618 -1.7281189 1.2629662 -2.395874c0.84197617 -0.67041016 2.1091118 -1.0056152 3.801403 -1.0056152c1.77565 0 3.0872498 0.34320068 3.934784 1.0296631c0.8447571 0.68377686 1.2671356 1.5064392 1.2671356 2.467987c0 0.9455261 -0.4084854 1.750824 -1.2254562 2.4158936c-0.8169632 0.6650696 -2.0799332 0.9976196 -3.7888947 0.9976196c-1.7089653 0 -3.0108337 -0.35391235 -3.9056091 -1.0617371c-0.8975525 -0.71047974 -1.3463287 -1.5264587 -1.3463287 -2.447937zm-1.7631531 -0.2043457c0 0.8333435 0.16950989 1.542511 0.50852203 2.1274414c0.33623505 0.58496094 0.84197617 1.1098022 1.5172272 1.5745544l-1.7256355 0l0 1.9711914l18.369274 0l0 -2.1635132l-6.464882 0c0.48351288 -0.3685913 0.88365936 -0.8386841 1.2004395 -1.4102783c0.31678772 -0.57424927 0.47518158 -1.2219543 0.47518158 -1.9431458c0 -0.9855652 -0.28900146 -1.9244385 -0.86698914 -2.8165283c-0.5807724 -0.8947754 -1.4144135 -1.5758972 -2.5009232 -2.0433044c-1.0892944 -0.47009277 -2.3133545 -0.70513916 -3.6721878 -0.70513916c-1.2671356 0 -2.4314537 0.21234131 -3.492958 0.6370239c-1.0642815 0.42468262 -1.888195 1.0537109 -2.4717445 1.8870544c-0.5835495 0.8333435 -0.87532425 1.7948914 -0.87532425 2.8846436z" fill-rule="evenodd"/><path stroke="#999999" stroke-width="1.0" stroke-linejoin="round" stroke-linecap="butt" d="m59.84069 301.96603c0 -1.0977783 0.43349075 -1.9912109 1.3004799 -2.6803284c0.55854034 -0.44873047 1.396347 -0.7211609 2.5134277 -0.8173218l0 7.1275024c-1.1587601 -0.07211304 -2.0841026 -0.44604492 -2.7760239 -1.1217957c-0.69192505 -0.6784363 -1.0378838 -1.5144653 -1.0378838 -2.5080566zm-1.8506851 0.024047852c0 1.7628479 0.6168976 3.1971436 1.8506851 4.302948c1.2337875 1.1057739 2.967762 1.6586609 5.2019196 1.6586609c2.1591263 0 3.8375244 -0.5462036 5.035187 -1.6386414c1.1948853 -1.0950928 1.7923355 -2.5761719 1.7923355 -4.4431763c0 -1.4823914 -0.37514496 -2.700348 -1.1254196 -3.6539001c-0.75027466 -0.9535217 -1.8048325 -1.6065979 -3.1636658 -1.9591675l-0.2876053 2.2356262c0.9503479 0.32852173 1.642273 0.7732544 2.0757675 1.334137c0.43348694 0.5609131 0.65023804 1.2380066 0.65023804 2.0312805c0 1.0657349 -0.3876419 1.9551697 -1.1629333 2.6683044c-0.7752838 0.7131653 -1.8923645 1.1098022 -3.3512344 1.1899414l0 -9.519379c-0.26676178 -0.008026123 -0.46683502 -0.012023926 -0.6002197 -0.012023926c-2.1924782 0 -3.8931046 0.54089355 -5.101883 1.6226196c-1.2087784 1.0817566 -1.8131714 2.4760132 -1.8131714 4.18277z" fill-rule="evenodd"/><path stroke="#999999" stroke-width="1.0" stroke-linejoin="round" stroke-linecap="butt" d="m64.90506 285.39127l0.8253021 0c0.9920349 0 1.7423096 0.11618042 2.2508316 0.34857178c0.65857697 0.30447388 1.178215 0.78125 1.5589066 1.4302979c0.37792206 0.64904785 0.5668793 1.3902588 0.5668793 2.2236023c0 0.8413391 -0.20007324 1.4810486 -0.6002197 1.9190979c-0.4001541 0.43536377 -0.9003372 0.65304565 -1.500557 0.65304565c-0.39180756 0 -0.74749756 -0.10015869 -1.0670624 -0.30047607c-0.32234192 -0.20031738 -0.56687164 -0.48480225 -0.73360443 -0.85339355c-0.16672516 -0.3685913 -0.3167801 -0.9975891 -0.4501648 -1.8870239c-0.23342133 -1.5705566 -0.51685333 -2.7484436 -0.8503113 -3.533722zm-6.9150543 2.7524414c0 1.0977783 0.15700531 2.063324 0.4710083 2.896698c0.3112259 0.8333435 0.75722504 1.4703674 1.3379936 1.9110718c0.5779915 0.44070435 1.3379936 0.75723267 2.2800102 0.9495239l0.30010986 -2.1154175c-0.9420166 -0.23236084 -1.5978127 -0.590271 -1.967392 -1.0737305c-0.37236023 -0.4861145 -0.55854034 -1.2380066 -0.55854034 -2.2556458c0 -1.0897522 0.25426102 -1.9110718 0.76277924 -2.4639587c0.37514114 -0.4086609 1.0212135 -0.6130066 1.9382172 -0.6130066c0.08336258 0 0.27927017 0.0040283203 0.58771515 0.012023926c0.30011368 0.8253479 0.55854034 2.1114197 0.7752876 3.8582458c0.108371735 0.85736084 0.22091293 1.4984131 0.3376274 1.9230957c0.16672516 0.5769348 0.41265106 1.0964355 0.7377701 1.5585022c0.32511902 0.45941162 0.75722504 0.83203125 1.2963104 1.1178284c0.5363083 0.28311157 1.1295853 0.42468262 1.7798233 0.42468262c1.1087418 0 2.0201874 -0.37661743 2.7343445 -1.1298218c0.7113724 -0.75323486 1.0670624 -1.8309631 1.0670624 -3.2332458c0 -0.84936523 -0.14588928 -1.6439819 -0.43766785 -2.38385c-0.29177094 -0.7425232 -0.79195404 -1.5144348 -1.5005493 -2.3157349c0.6252289 -0.064086914 1.1712646 -0.20831299 1.6380997 -0.43267822l0 -2.259674c-0.5085144 0.27246094 -1.0392685 0.45541382 -1.5922546 0.54888916c-0.5557556 0.09082031 -1.8798599 0.13623047 -3.9722977 0.13623047l-3.0011063 0c-1.00037 0 -1.6922913 0.036071777 -2.0757637 0.108184814c-0.61689377 0.12820435 -1.1268044 0.35256958 -1.5297318 0.6730652c-0.4057045 0.32052612 -0.74193954 0.8213501 -1.0087051 1.5024414c-0.2667656 0.6810913 -0.4001503 1.5665283 -0.4001503 2.6562805z" fill-rule="evenodd"/><path stroke="#999999" stroke-width="1.0" stroke-linejoin="round" stroke-linecap="butt" d="m53.650906 277.30222l1.3504982 2.1514587l3.2887154 0l0 1.5865784l1.7506447 0l0 -1.5865784l7.64032 0c1.3504944 0 2.2369385 -0.088134766 2.659317 -0.2644348c0.4195938 -0.17626953 0.7586136 -0.48077393 1.0170364 -0.91345215c0.25843048 -0.43270874 0.3876419 -1.041687 0.3876419 -1.8269653c0 -0.48077393 -0.06668854 -1.0256348 -0.20007324 -1.6346436l-1.9882278 0.3125c0.05834961 0.39263916 0.08753204 0.7091675 0.08753204 0.94955444c0 0.32052612 -0.05419159 0.5675659 -0.16255951 0.7411804c-0.10837555 0.17095947 -0.25426483 0.29516602 -0.43766785 0.37261963c-0.18339539 0.07476807 -0.59604645 0.11218262 -1.2379532 0.11218262l-7.7653656 0l0 -2.175537l-1.7506447 0l0 2.175537l-4.6392136 0z" fill-rule="evenodd"/><path fill="#cc0000" d="m501.26938 118.30627c0.82180786 0 1.508728 0.3327713 2.0606995 0.9983063c0.55407715 0.6633606 0.8311157 1.6398544 0.8311157 2.9294739c0 1.3681793 -0.2749939 2.3861237 -0.82492065 3.0538483c-0.54992676 0.6677246 -1.2389221 1.0015869 -2.0668945 1.0015869c-0.834198 0 -1.5262451 -0.3316803 -2.0761719 -0.9950409c-0.5499573 -0.6655426 -0.82492065 -1.6660309 -0.82492065 -3.00148c0 -1.3354416 0.27496338 -2.3337555 0.82492065 -2.994934c0.54992676 -0.66117096 1.2419739 -0.99176025 2.0761719 -0.99176025zm0 -1.4630966c-1.2172852 0 -2.2492065 0.38623047 -3.0957336 1.1586914c-1.0133667 0.92957306 -1.52005 2.3599396 -1.52005 4.2910995c0 1.7609558 0.4242859 3.109497 1.2728882 4.045616c0.850647 0.9361191 1.9649353 1.4041824 3.3428955 1.4041824c0.8588867 0 1.6508179 -0.2127533 2.3758545 -0.6382675c0.7270508 -0.4255066 1.2800903 -1.022316 1.6590881 -1.7904129c0.38104248 -0.77027893 0.5715637 -1.826416 0.5715637 -3.1684113c0 -1.6562119 -0.42944336 -2.9534683 -1.2883606 -3.8917694c-0.8588867 -0.9404907 -1.9649353 -1.4107285 -3.3181458 -1.4107285z" fill-rule="evenodd"/><path fill="#cc0000" d="m507.7945 117.078835l0 6.461197c0 0.7528229 0.033966064 1.3027191 0.10192871 1.6496735c0.09887695 0.5171509 0.26983643 0.95466614 0.5128784 1.3125305c0.24508667 0.35568237 0.618927 0.65135956 1.1214905 0.8870239c0.5046387 0.23566437 1.0473633 0.35350037 1.6282043 0.35350037c1.3161621 0 2.3572998 -0.58916473 3.1235352 -1.7675018l0 1.5318375l1.4922485 0l0 -10.428261l-1.668335 0l0 5.587265c0 0.89029694 -0.091674805 1.5700226 -0.2750244 2.039177c-0.18121338 0.46696472 -0.49121094 0.83683014 -0.92993164 1.1095963c-0.4387207 0.27057648 -0.9083252 0.40586853 -1.4088135 0.40586853c-0.5005188 0 -0.9206848 -0.13201904 -1.2605591 -0.3960495c-0.33984375 -0.26621246 -0.5622864 -0.63171387 -0.6673279 -1.0965042c-0.06796265 -0.32077026 -0.10195923 -0.9426651 -0.10195923 -1.8656998l0 -5.7836533z" fill-rule="evenodd"/><path fill="#cc0000" d="m520.35345 113.435814l-1.6590576 1.0605011l0 2.5825195l-1.2234497 0l0 1.3747253l1.2234497 0l0 5.9996796c0 1.0605011 0.06793213 1.7565918 0.20391846 2.088272c0.1359253 0.3294983 0.37072754 0.59571075 0.70440674 0.79865265c0.3336792 0.20293427 0.8032837 0.30439758 1.4088135 0.30439758c0.37072754 0 0.7909546 -0.052368164 1.2605591 -0.15711212l-0.24102783 -1.5612869c-0.30273438 0.045822144 -0.54681396 0.068733215 -0.73217773 0.068733215c-0.24719238 0 -0.4376831 -0.042549133 -0.57159424 -0.12765503c-0.13183594 -0.08509827 -0.2276001 -0.19966125 -0.28729248 -0.34368134c-0.057678223 -0.14401245 -0.08654785 -0.46805573 -0.08654785 -0.9721222l0 -6.0978775l1.6776123 0l0 -1.3747253l-1.6776123 0l0 -3.6430206z" fill-rule="evenodd"/><path fill="#cc0000" d="m532.931 118.30627c0.82177734 0 1.508728 0.3327713 2.060669 0.9983063c0.55407715 0.6633606 0.8311157 1.6398544 0.8311157 2.9294739c0 1.3681793 -0.27496338 2.3861237 -0.82489014 3.0538483c-0.54992676 0.6677246 -1.2389526 1.0015869 -2.0668945 1.0015869c-0.8342285 0 -1.5262451 -0.3316803 -2.0761719 -0.9950409c-0.5499878 -0.6655426 -0.8249512 -1.6660309 -0.8249512 -3.00148c0 -1.3354416 0.27496338 -2.3337555 0.8249512 -2.994934c0.54992676 -0.66117096 1.2419434 -0.99176025 2.0761719 -0.99176025zm0 -1.4630966c-1.2172852 0 -2.2492065 0.38623047 -3.0957642 1.1586914c-1.0133667 0.92957306 -1.5200195 2.3599396 -1.5200195 4.2910995c0 1.7609558 0.42425537 3.109497 1.2728882 4.045616c0.850647 0.9361191 1.9649048 1.4041824 3.3428955 1.4041824c0.8588867 0 1.6508179 -0.2127533 2.3758545 -0.6382675c0.7270508 -0.4255066 1.2800903 -1.022316 1.6590576 -1.7904129c0.38104248 -0.77027893 0.57159424 -1.826416 0.57159424 -3.1684113c0 -1.6562119 -0.42944336 -2.9534683 -1.2883911 -3.8917694c-0.8588867 -0.9404907 -1.9649048 -1.4107285 -3.3181152 -1.4107285z" fill-rule="evenodd"/><path fill="#cc0000" d="m542.6167 112.86629c-0.729126 0 -1.2965698 0.14292908 -1.7023315 0.42878723c-0.40368652 0.28366852 -0.68585205 0.65462494 -0.8464966 1.1128693c-0.11743164 0.34040833 -0.17614746 0.86083984 -0.17614746 1.5612946l0 1.1095963l-1.4736938 0l0 1.3747253l1.4736938 0l0 9.053535l1.6591187 0l0 -9.053535l1.9185791 0l0 -1.3747253l-1.9185791 0l0 -0.96230316c0 -0.6284485 0.105041504 -1.0572281 0.3151245 -1.2863541c0.21008301 -0.22911835 0.56848145 -0.34368134 1.0751343 -0.34368134c0.30895996 0 0.6364746 0.032737732 0.9824829 0.09819794l0.25024414 -1.5416565c-0.56848145 -0.11782837 -1.0875244 -0.17675018 -1.5571289 -0.17675018z" fill-rule="evenodd"/><path fill="#cc0000" d="m553.65564 116.84317c-0.38928223 0 -0.74664307 0.11782837 -1.0720215 0.35350037c-0.3234253 0.23566437 -0.67663574 0.7233658 -1.0597534 1.4630966l0 -1.5809326l-1.5015259 0l0 10.428261l1.668396 0l0 -5.4596176c0 -0.74627686 0.09265137 -1.4336395 0.27801514 -2.062088c0.12359619 -0.41241455 0.33062744 -0.7342758 0.6210327 -0.9655762c0.29040527 -0.23348236 0.6179199 -0.35022736 0.9824829 -0.35022736c0.40777588 0 0.8156128 0.12765503 1.2234497 0.38295746l0.574646 -1.6398468c-0.58081055 -0.37968445 -1.1524048 -0.5695267 -1.7147217 -0.5695267z" fill-rule="evenodd"/><path fill="#cc0000" d="m562.64624 122.27332l0 0.64808655c0 0.77900696 -0.08959961 1.3681717 -0.26879883 1.7675018c-0.23480225 0.5171585 -0.602478 0.92520905 -1.1029663 1.2241592c-0.5004883 0.29676056 -1.0720825 0.44514465 -1.7147217 0.44514465c-0.6488037 0 -1.1420898 -0.15711212 -1.4798584 -0.47133636c-0.3357544 -0.3142166 -0.5036011 -0.70700073 -0.5036011 -1.1783295c0 -0.30767822 0.07720947 -0.58699036 0.23168945 -0.8379288c0.15447998 -0.25312042 0.37384033 -0.44514465 0.65808105 -0.5760727c0.28424072 -0.13092804 0.7692871 -0.24876404 1.4552002 -0.35350037c1.2110596 -0.1832962 2.1193848 -0.40586853 2.7249756 -0.6677246zm-2.1224976 -5.430153c-0.8465576 0 -1.5911255 0.123283386 -2.2337646 0.36986542c-0.64263916 0.2443924 -1.1338501 0.59461975 -1.4736938 1.0506821c-0.33984375 0.45387268 -0.58392334 1.0506821 -0.73223877 1.7904129l1.6312866 0.23566437c0.17919922 -0.73973083 0.4552002 -1.2547073 0.8280029 -1.5449295c0.3748169 -0.29239655 0.9546509 -0.43859863 1.7393799 -0.43859863c0.84039307 0 1.4737549 0.19966125 1.9000854 0.59898376c0.3151245 0.29458618 0.4727173 0.80192566 0.4727173 1.5220184c0 0.065460205 -0.003112793 0.21929932 -0.009277344 0.4615097c-0.6364746 0.235672 -1.6281738 0.43860626 -2.9752197 0.6088104c-0.66119385 0.08509827 -1.1555176 0.17347717 -1.4829712 0.26512146c-0.4449463 0.13092804 -0.84552 0.32404327 -1.2018433 0.57935333c-0.35430908 0.25530243 -0.64160156 0.59461975 -0.8619995 1.0179443c-0.21832275 0.4211502 -0.32751465 0.8870239 -0.32751465 1.3976364c0 0.8706589 0.2904663 1.5863876 0.87127686 2.1471863c0.58081055 0.55861664 1.4119263 0.8379288 2.4932861 0.8379288c0.65496826 0 1.2677002 -0.11456299 1.8382568 -0.34368134c0.5725708 -0.22911835 1.1678467 -0.62190247 1.7857666 -1.1783371c0.049438477 0.49097443 0.16064453 0.919754 0.3336792 1.2863541l1.7424927 0c-0.21008301 -0.39933014 -0.3511963 -0.8161087 -0.4232788 -1.2503433c-0.070007324 -0.43642426 -0.105041504 -1.4761963 -0.105041504 -3.119316l0 -2.3566666c0 -0.7855606 -0.027832031 -1.3289032 -0.08343506 -1.6300278c-0.09887695 -0.4844284 -0.2718506 -0.8848419 -0.51904297 -1.2012482c-0.24713135 -0.31858826 -0.6333618 -0.5826187 -1.1585693 -0.7921066c-0.5252075 -0.20948029 -1.2080078 -0.3142166 -2.0483398 -0.3142166z" fill-rule="evenodd"/><path fill="#cc0000" d="m571.5534 116.84317c-1.3656006 0 -2.409851 0.5727997 -3.1328125 1.718399l0 -1.4827347l-1.5015259 0l0 10.428261l1.668335 0l0 -5.695282c0 -1.3354492 0.25750732 -2.2421112 0.7723999 -2.7199936c0.5169678 -0.47787476 1.1307983 -0.71681976 1.8413696 -0.71681976c0.44488525 0 0.8320923 0.106925964 1.1616821 0.32077026c0.331604 0.21166229 0.56225586 0.49642944 0.6920166 0.8542938c0.12976074 0.35568237 0.19464111 0.89356995 0.19464111 1.6136627l0 6.3433685l1.668396 0l0 -6.4121017c0 -0.8182907 -0.030883789 -1.3910904 -0.0927124 -1.7184067c-0.09887695 -0.50406647 -0.2718506 -0.9393921 -0.51904297 -1.3059845c-0.24713135 -0.36660004 -0.6199341 -0.6622696 -1.1184082 -0.8870239c-0.49639893 -0.22694397 -1.0411987 -0.34040833 -1.6343384 -0.34040833z" fill-rule="evenodd"/><path fill="#cc0000" d="m581.2206 118.30627c0.7538452 0 1.3974609 0.32404327 1.9309692 0.9721222c0.53552246 0.64808655 0.8032837 1.6103897 0.8032837 2.8869247c0 1.3354416 -0.25952148 2.3162918 -0.77856445 2.9425583c-0.51904297 0.62407684 -1.1616821 0.9361191 -1.9279175 0.9361191c-0.77233887 0 -1.414978 -0.3142166 -1.9278564 -0.9426651c-0.5128784 -0.6284485 -0.7692871 -1.6267548 -0.7692871 -2.994934c0 -1.2568893 0.25952148 -2.2039185 0.77856445 -2.841095c0.51904297 -0.6393509 1.149292 -0.95903015 1.8908081 -0.95903015zm-0.1204834 -1.4630966c-0.87127686 0 -1.630249 0.22911835 -2.2770386 0.68735504c-0.6446533 0.45824432 -1.1369629 1.1085129 -1.4768066 1.950798c-0.33984375 0.8401108 -0.5097656 1.7576828 -0.5097656 2.7527237c0 1.4467316 0.37078857 2.6872559 1.1122437 3.7215729c0.7415161 1.034317 1.7888794 1.5514755 3.1420898 1.5514755c1.0875244 0 1.9958496 -0.4549713 2.7249756 -1.3649063l0 0c0.006164551 1.1521454 -0.033996582 1.9082413 -0.1204834 2.2682877c-0.14831543 0.58917236 -0.43255615 1.047409 -0.85272217 1.3747253c-0.42016602 0.32731628 -1.0164795 0.49098206 -1.7888794 0.49098206c-0.71673584 0 -1.2821655 -0.16366577 -1.696167 -0.49098206c-0.30895996 -0.24221802 -0.4973755 -0.6284485 -0.56536865 -1.1586914l-1.6220093 -0.25531006l0 0c-0.024719238 1.1259613 0.32440186 1.9682617 1.0473633 2.5268707c0.7229614 0.5608063 1.6714478 0.8412018 2.845459 0.8412018c0.98864746 0 1.8208008 -0.19638062 2.496338 -0.58917236c0.67767334 -0.3927765 1.1719971 -0.92848206 1.4829712 -1.6071167c0.31311035 -0.6764374 0.46966553 -1.8264084 0.46966553 -3.4498901l0 -9.014259l-1.5386353 0l0 1.2568893c-0.7538452 -0.9950409 -1.7116089 -1.4925537 -2.87323 -1.4925537z" fill-rule="evenodd"/><path fill="#cc0000" d="m592.09265 118.29645c0.8465576 0 1.5355225 0.34040833 2.0668945 1.021225c0.34606934 0.43859863 0.55615234 1.0965042 0.63031006 1.9737091l-5.496338 0c0.055603027 -0.909935 0.34399414 -1.6365814 0.8651123 -2.179924c0.5231323 -0.5433426 1.1678467 -0.8150101 1.934021 -0.8150101zm-0.018493652 -1.4532776c-1.359436 0 -2.4655151 0.48442078 -3.3181763 1.4532776c-0.85272217 0.9688492 -1.2791138 2.3304825 -1.2791138 4.0848923c0 1.695488 0.4212036 3.0134811 1.2636719 3.9539642c0.8444214 0.9383011 1.9865723 1.4074554 3.4262695 1.4074554c1.1431274 0 2.0823364 -0.29458618 2.817688 -0.8837509c0.7352905 -0.58916473 1.2388916 -1.4172745 1.5107422 -2.4843216l-1.723938 -0.22584534c-0.25335693 0.74627686 -0.5963135 1.2896194 -1.0288086 1.6300278c-0.43255615 0.34040833 -0.9546509 0.5106125 -1.5664062 0.5106125c-0.8218384 0 -1.5076904 -0.3044052 -2.0576172 -0.913208c-0.5499878 -0.6088104 -0.85583496 -1.4860153 -0.91760254 -2.6316147l7.3407593 0c0.006164551 -0.20948029 0.009277344 -0.3665924 0.009277344 -0.47133636c0 -1.7216797 -0.41711426 -3.0571213 -1.2512817 -4.0063324c-0.8341675 -0.94921875 -1.9093628 -1.4238205 -3.2254639 -1.4238205z" fill-rule="evenodd"/><path stroke="#e06666" stroke-width="1.0" stroke-linejoin="round" stroke-linecap="butt" d="m501.26938 118.30627c0.82180786 0 1.508728 0.3327713 2.0606995 0.9983063c0.55407715 0.6633606 0.8311157 1.6398544 0.8311157 2.9294739c0 1.3681793 -0.2749939 2.3861237 -0.82492065 3.0538483c-0.54992676 0.6677246 -1.2389221 1.0015869 -2.0668945 1.0015869c-0.834198 0 -1.5262451 -0.3316803 -2.0761719 -0.9950409c-0.5499573 -0.6655426 -0.82492065 -1.6660309 -0.82492065 -3.00148c0 -1.3354416 0.27496338 -2.3337555 0.82492065 -2.994934c0.54992676 -0.66117096 1.2419739 -0.99176025 2.0761719 -0.99176025zm0 -1.4630966c-1.2172852 0 -2.2492065 0.38623047 -3.0957336 1.1586914c-1.0133667 0.92957306 -1.52005 2.3599396 -1.52005 4.2910995c0 1.7609558 0.4242859 3.109497 1.2728882 4.045616c0.850647 0.9361191 1.9649353 1.4041824 3.3428955 1.4041824c0.8588867 0 1.6508179 -0.2127533 2.3758545 -0.6382675c0.7270508 -0.4255066 1.2800903 -1.022316 1.6590881 -1.7904129c0.38104248 -0.77027893 0.5715637 -1.826416 0.5715637 -3.1684113c0 -1.6562119 -0.42944336 -2.9534683 -1.2883606 -3.8917694c-0.8588867 -0.9404907 -1.9649353 -1.4107285 -3.3181458 -1.4107285z" fill-rule="evenodd"/><path stroke="#e06666" stroke-width="1.0" stroke-linejoin="round" stroke-linecap="butt" d="m507.7945 117.078835l0 6.461197c0 0.7528229 0.033966064 1.3027191 0.10192871 1.6496735c0.09887695 0.5171509 0.26983643 0.95466614 0.5128784 1.3125305c0.24508667 0.35568237 0.618927 0.65135956 1.1214905 0.8870239c0.5046387 0.23566437 1.0473633 0.35350037 1.6282043 0.35350037c1.3161621 0 2.3572998 -0.58916473 3.1235352 -1.7675018l0 1.5318375l1.4922485 0l0 -10.428261l-1.668335 0l0 5.587265c0 0.89029694 -0.091674805 1.5700226 -0.2750244 2.039177c-0.18121338 0.46696472 -0.49121094 0.83683014 -0.92993164 1.1095963c-0.4387207 0.27057648 -0.9083252 0.40586853 -1.4088135 0.40586853c-0.5005188 0 -0.9206848 -0.13201904 -1.2605591 -0.3960495c-0.33984375 -0.26621246 -0.5622864 -0.63171387 -0.6673279 -1.0965042c-0.06796265 -0.32077026 -0.10195923 -0.9426651 -0.10195923 -1.8656998l0 -5.7836533z" fill-rule="evenodd"/><path stroke="#e06666" stroke-width="1.0" stroke-linejoin="round" stroke-linecap="butt" d="m520.35345 113.435814l-1.6590576 1.0605011l0 2.5825195l-1.2234497 0l0 1.3747253l1.2234497 0l0 5.9996796c0 1.0605011 0.06793213 1.7565918 0.20391846 2.088272c0.1359253 0.3294983 0.37072754 0.59571075 0.70440674 0.79865265c0.3336792 0.20293427 0.8032837 0.30439758 1.4088135 0.30439758c0.37072754 0 0.7909546 -0.052368164 1.2605591 -0.15711212l-0.24102783 -1.5612869c-0.30273438 0.045822144 -0.54681396 0.068733215 -0.73217773 0.068733215c-0.24719238 0 -0.4376831 -0.042549133 -0.57159424 -0.12765503c-0.13183594 -0.08509827 -0.2276001 -0.19966125 -0.28729248 -0.34368134c-0.057678223 -0.14401245 -0.08654785 -0.46805573 -0.08654785 -0.9721222l0 -6.0978775l1.6776123 0l0 -1.3747253l-1.6776123 0l0 -3.6430206z" fill-rule="evenodd"/><path stroke="#e06666" stroke-width="1.0" stroke-linejoin="round" stroke-linecap="butt" d="m532.931 118.30627c0.82177734 0 1.508728 0.3327713 2.060669 0.9983063c0.55407715 0.6633606 0.8311157 1.6398544 0.8311157 2.9294739c0 1.3681793 -0.27496338 2.3861237 -0.82489014 3.0538483c-0.54992676 0.6677246 -1.2389526 1.0015869 -2.0668945 1.0015869c-0.8342285 0 -1.5262451 -0.3316803 -2.0761719 -0.9950409c-0.5499878 -0.6655426 -0.8249512 -1.6660309 -0.8249512 -3.00148c0 -1.3354416 0.27496338 -2.3337555 0.8249512 -2.994934c0.54992676 -0.66117096 1.2419434 -0.99176025 2.0761719 -0.99176025zm0 -1.4630966c-1.2172852 0 -2.2492065 0.38623047 -3.0957642 1.1586914c-1.0133667 0.92957306 -1.5200195 2.3599396 -1.5200195 4.2910995c0 1.7609558 0.42425537 3.109497 1.2728882 4.045616c0.850647 0.9361191 1.9649048 1.4041824 3.3428955 1.4041824c0.8588867 0 1.6508179 -0.2127533 2.3758545 -0.6382675c0.7270508 -0.4255066 1.2800903 -1.022316 1.6590576 -1.7904129c0.38104248 -0.77027893 0.57159424 -1.826416 0.57159424 -3.1684113c0 -1.6562119 -0.42944336 -2.9534683 -1.2883911 -3.8917694c-0.8588867 -0.9404907 -1.9649048 -1.4107285 -3.3181152 -1.4107285z" fill-rule="evenodd"/><path stroke="#e06666" stroke-width="1.0" stroke-linejoin="round" stroke-linecap="butt" d="m542.6167 112.86629c-0.729126 0 -1.2965698 0.14292908 -1.7023315 0.42878723c-0.40368652 0.28366852 -0.68585205 0.65462494 -0.8464966 1.1128693c-0.11743164 0.34040833 -0.17614746 0.86083984 -0.17614746 1.5612946l0 1.1095963l-1.4736938 0l0 1.3747253l1.4736938 0l0 9.053535l1.6591187 0l0 -9.053535l1.9185791 0l0 -1.3747253l-1.9185791 0l0 -0.96230316c0 -0.6284485 0.105041504 -1.0572281 0.3151245 -1.2863541c0.21008301 -0.22911835 0.56848145 -0.34368134 1.0751343 -0.34368134c0.30895996 0 0.6364746 0.032737732 0.9824829 0.09819794l0.25024414 -1.5416565c-0.56848145 -0.11782837 -1.0875244 -0.17675018 -1.5571289 -0.17675018z" fill-rule="evenodd"/><path stroke="#e06666" stroke-width="1.0" stroke-linejoin="round" stroke-linecap="butt" d="m553.65564 116.84317c-0.38928223 0 -0.74664307 0.11782837 -1.0720215 0.35350037c-0.3234253 0.23566437 -0.67663574 0.7233658 -1.0597534 1.4630966l0 -1.5809326l-1.5015259 0l0 10.428261l1.668396 0l0 -5.4596176c0 -0.74627686 0.09265137 -1.4336395 0.27801514 -2.062088c0.12359619 -0.41241455 0.33062744 -0.7342758 0.6210327 -0.9655762c0.29040527 -0.23348236 0.6179199 -0.35022736 0.9824829 -0.35022736c0.40777588 0 0.8156128 0.12765503 1.2234497 0.38295746l0.574646 -1.6398468c-0.58081055 -0.37968445 -1.1524048 -0.5695267 -1.7147217 -0.5695267z" fill-rule="evenodd"/><path stroke="#e06666" stroke-width="1.0" stroke-linejoin="round" stroke-linecap="butt" d="m562.64624 122.27332l0 0.64808655c0 0.77900696 -0.08959961 1.3681717 -0.26879883 1.7675018c-0.23480225 0.5171585 -0.602478 0.92520905 -1.1029663 1.2241592c-0.5004883 0.29676056 -1.0720825 0.44514465 -1.7147217 0.44514465c-0.6488037 0 -1.1420898 -0.15711212 -1.4798584 -0.47133636c-0.3357544 -0.3142166 -0.5036011 -0.70700073 -0.5036011 -1.1783295c0 -0.30767822 0.07720947 -0.58699036 0.23168945 -0.8379288c0.15447998 -0.25312042 0.37384033 -0.44514465 0.65808105 -0.5760727c0.28424072 -0.13092804 0.7692871 -0.24876404 1.4552002 -0.35350037c1.2110596 -0.1832962 2.1193848 -0.40586853 2.7249756 -0.6677246zm-2.1224976 -5.430153c-0.8465576 0 -1.5911255 0.123283386 -2.2337646 0.36986542c-0.64263916 0.2443924 -1.1338501 0.59461975 -1.4736938 1.0506821c-0.33984375 0.45387268 -0.58392334 1.0506821 -0.73223877 1.7904129l1.6312866 0.23566437c0.17919922 -0.73973083 0.4552002 -1.2547073 0.8280029 -1.5449295c0.3748169 -0.29239655 0.9546509 -0.43859863 1.7393799 -0.43859863c0.84039307 0 1.4737549 0.19966125 1.9000854 0.59898376c0.3151245 0.29458618 0.4727173 0.80192566 0.4727173 1.5220184c0 0.065460205 -0.003112793 0.21929932 -0.009277344 0.4615097c-0.6364746 0.235672 -1.6281738 0.43860626 -2.9752197 0.6088104c-0.66119385 0.08509827 -1.1555176 0.17347717 -1.4829712 0.26512146c-0.4449463 0.13092804 -0.84552 0.32404327 -1.2018433 0.57935333c-0.35430908 0.25530243 -0.64160156 0.59461975 -0.8619995 1.0179443c-0.21832275 0.4211502 -0.32751465 0.8870239 -0.32751465 1.3976364c0 0.8706589 0.2904663 1.5863876 0.87127686 2.1471863c0.58081055 0.55861664 1.4119263 0.8379288 2.4932861 0.8379288c0.65496826 0 1.2677002 -0.11456299 1.8382568 -0.34368134c0.5725708 -0.22911835 1.1678467 -0.62190247 1.7857666 -1.1783371c0.049438477 0.49097443 0.16064453 0.919754 0.3336792 1.2863541l1.7424927 0c-0.21008301 -0.39933014 -0.3511963 -0.8161087 -0.4232788 -1.2503433c-0.070007324 -0.43642426 -0.105041504 -1.4761963 -0.105041504 -3.119316l0 -2.3566666c0 -0.7855606 -0.027832031 -1.3289032 -0.08343506 -1.6300278c-0.09887695 -0.4844284 -0.2718506 -0.8848419 -0.51904297 -1.2012482c-0.24713135 -0.31858826 -0.6333618 -0.5826187 -1.1585693 -0.7921066c-0.5252075 -0.20948029 -1.2080078 -0.3142166 -2.0483398 -0.3142166z" fill-rule="evenodd"/><path stroke="#e06666" stroke-width="1.0" stroke-linejoin="round" stroke-linecap="butt" d="m571.5534 116.84317c-1.3656006 0 -2.409851 0.5727997 -3.1328125 1.718399l0 -1.4827347l-1.5015259 0l0 10.428261l1.668335 0l0 -5.695282c0 -1.3354492 0.25750732 -2.2421112 0.7723999 -2.7199936c0.5169678 -0.47787476 1.1307983 -0.71681976 1.8413696 -0.71681976c0.44488525 0 0.8320923 0.106925964 1.1616821 0.32077026c0.331604 0.21166229 0.56225586 0.49642944 0.6920166 0.8542938c0.12976074 0.35568237 0.19464111 0.89356995 0.19464111 1.6136627l0 6.3433685l1.668396 0l0 -6.4121017c0 -0.8182907 -0.030883789 -1.3910904 -0.0927124 -1.7184067c-0.09887695 -0.50406647 -0.2718506 -0.9393921 -0.51904297 -1.3059845c-0.24713135 -0.36660004 -0.6199341 -0.6622696 -1.1184082 -0.8870239c-0.49639893 -0.22694397 -1.0411987 -0.34040833 -1.6343384 -0.34040833z" fill-rule="evenodd"/><path stroke="#e06666" stroke-width="1.0" stroke-linejoin="round" stroke-linecap="butt" d="m581.2206 118.30627c0.7538452 0 1.3974609 0.32404327 1.9309692 0.9721222c0.53552246 0.64808655 0.8032837 1.6103897 0.8032837 2.8869247c0 1.3354416 -0.25952148 2.3162918 -0.77856445 2.9425583c-0.51904297 0.62407684 -1.1616821 0.9361191 -1.9279175 0.9361191c-0.77233887 0 -1.414978 -0.3142166 -1.9278564 -0.9426651c-0.5128784 -0.6284485 -0.7692871 -1.6267548 -0.7692871 -2.994934c0 -1.2568893 0.25952148 -2.2039185 0.77856445 -2.841095c0.51904297 -0.6393509 1.149292 -0.95903015 1.8908081 -0.95903015zm-0.1204834 -1.4630966c-0.87127686 0 -1.630249 0.22911835 -2.2770386 0.68735504c-0.6446533 0.45824432 -1.1369629 1.1085129 -1.4768066 1.950798c-0.33984375 0.8401108 -0.5097656 1.7576828 -0.5097656 2.7527237c0 1.4467316 0.37078857 2.6872559 1.1122437 3.7215729c0.7415161 1.034317 1.7888794 1.5514755 3.1420898 1.5514755c1.0875244 0 1.9958496 -0.4549713 2.7249756 -1.3649063l0 0c0.006164551 1.1521454 -0.033996582 1.9082413 -0.1204834 2.2682877c-0.14831543 0.58917236 -0.43255615 1.047409 -0.85272217 1.3747253c-0.42016602 0.32731628 -1.0164795 0.49098206 -1.7888794 0.49098206c-0.71673584 0 -1.2821655 -0.16366577 -1.696167 -0.49098206c-0.30895996 -0.24221802 -0.4973755 -0.6284485 -0.56536865 -1.1586914l-1.6220093 -0.25531006l0 0c-0.024719238 1.1259613 0.32440186 1.9682617 1.0473633 2.5268707c0.7229614 0.5608063 1.6714478 0.8412018 2.845459 0.8412018c0.98864746 0 1.8208008 -0.19638062 2.496338 -0.58917236c0.67767334 -0.3927765 1.1719971 -0.92848206 1.4829712 -1.6071167c0.31311035 -0.6764374 0.46966553 -1.8264084 0.46966553 -3.4498901l0 -9.014259l-1.5386353 0l0 1.2568893c-0.7538452 -0.9950409 -1.7116089 -1.4925537 -2.87323 -1.4925537z" fill-rule="evenodd"/><path stroke="#e06666" stroke-width="1.0" stroke-linejoin="round" stroke-linecap="butt" d="m592.09265 118.29645c0.8465576 0 1.5355225 0.34040833 2.0668945 1.021225c0.34606934 0.43859863 0.55615234 1.0965042 0.63031006 1.9737091l-5.496338 0c0.055603027 -0.909935 0.34399414 -1.6365814 0.8651123 -2.179924c0.5231323 -0.5433426 1.1678467 -0.8150101 1.934021 -0.8150101zm-0.018493652 -1.4532776c-1.359436 0 -2.4655151 0.48442078 -3.3181763 1.4532776c-0.85272217 0.9688492 -1.2791138 2.3304825 -1.2791138 4.0848923c0 1.695488 0.4212036 3.0134811 1.2636719 3.9539642c0.8444214 0.9383011 1.9865723 1.4074554 3.4262695 1.4074554c1.1431274 0 2.0823364 -0.29458618 2.817688 -0.8837509c0.7352905 -0.58916473 1.2388916 -1.4172745 1.5107422 -2.4843216l-1.723938 -0.22584534c-0.25335693 0.74627686 -0.5963135 1.2896194 -1.0288086 1.6300278c-0.43255615 0.34040833 -0.9546509 0.5106125 -1.5664062 0.5106125c-0.8218384 0 -1.5076904 -0.3044052 -2.0576172 -0.913208c-0.5499878 -0.6088104 -0.85583496 -1.4860153 -0.91760254 -2.6316147l7.3407593 0c0.006164551 -0.20948029 0.009277344 -0.3665924 0.009277344 -0.47133636c0 -1.7216797 -0.41711426 -3.0571213 -1.2512817 -4.0063324c-0.8341675 -0.94921875 -1.9093628 -1.4238205 -3.2254639 -1.4238205z" fill-rule="evenodd"/><path fill="#666666" d="m430.6278 352.54166c-1.4787598 0 -2.7052002 0.70581055 -3.6793518 2.1174622l0 -1.835144l-2.743744 0l0 12.49295l2.95401 0l0 -5.6582947c0 -1.395935 0.07473755 -2.3527222 0.22424316 -2.8703003c0.15185547 -0.51760864 0.43103027 -0.93325806 0.8374939 -1.2469482c0.40649414 -0.3136902 0.86550903 -0.47055054 1.3771362 -0.47055054c0.3994751 0 0.74053955 0.109802246 1.0231934 0.32937622c0.28500366 0.21960449 0.49057007 0.52804565 0.61672974 0.92541504c0.12615967 0.39471436 0.1892395 1.2665405 0.1892395 2.615448l0 6.3758545l2.9539795 0l0 -7.763977c0 -0.9645996 -0.054901123 -1.705719 -0.16470337 -2.2233276c-0.10745239 -0.5175781 -0.30020142 -0.98028564 -0.57818604 -1.388092c-0.27566528 -0.4078064 -0.6832886 -0.74243164 -1.2229309 -1.0038452c-0.53964233 -0.26400757 -1.1353455 -0.3960266 -1.7871094 -0.3960266z" fill-rule="evenodd"/><path fill="#666666" d="m442.45425 355.23553c0.77090454 0 1.4168396 0.32937622 1.9377747 0.98812866c0.5232849 0.65875244 0.7849426 1.5998535 0.7849426 2.8232727c0 1.2547913 -0.2616577 2.2115479 -0.7849426 2.8703003c-0.52093506 0.65878296 -1.1668701 0.9881592 -1.9377747 0.9881592c-0.77090454 0 -1.4191895 -0.32937622 -1.9447937 -0.9881592c-0.52563477 -0.65875244 -0.78842163 -1.607666 -0.78842163 -2.8467712c0 -1.2391052 0.26278687 -2.1880493 0.78842163 -2.8468018c0.52560425 -0.65875244 1.1738892 -0.98812866 1.9447937 -0.98812866zm-0.010528564 -2.6938782c-1.0932617 0 -2.0837708 0.27056885 -2.9714966 0.811676c-0.885376 0.5411377 -1.5698547 1.3253784 -2.0534058 2.3527222c-0.48358154 1.0273743 -0.7253723 2.0900269 -0.7253723 3.1879578c0 1.4351501 0.24179077 2.6533508 0.7253723 3.654541c0.48355103 0.9985962 1.1890564 1.7567139 2.1164856 2.274292c0.92974854 0.51760864 1.90625 0.7763977 2.9294434 0.7763977c1.6539612 0 3.025238 -0.6208496 4.113861 -1.8625488c1.0909424 -1.2443237 1.6364441 -2.8115234 1.6364441 -4.701538c0 -1.8743286 -0.53964233 -3.4244995 -1.618927 -4.650543c-1.0792542 -1.2286377 -2.4634094 -1.8429565 -4.152405 -1.8429565z" fill-rule="evenodd"/><path fill="#cfe2f3" d="m508.61957 577.7522l75.968506 0l0 0c9.952087 0 18.019836 8.066467 18.019836 18.016968c0 9.950562 -8.067749 18.017029 -18.019836 18.017029l-75.968506 0l0 0c-9.952087 0 -18.019836 -8.066467 -18.019836 -18.017029c0 -9.9505005 8.067749 -18.016968 18.019836 -18.016968z" fill-rule="evenodd"/><path stroke="#000000" stroke-width="2.0" stroke-linejoin="round" stroke-linecap="butt" d="m508.61957 577.7522l75.968506 0l0 0c9.952087 0 18.019836 8.066467 18.019836 18.016968c0 9.950562 -8.067749 18.017029 -18.019836 18.017029l-75.968506 0l0 0c-9.952087 0 -18.019836 -8.066467 -18.019836 -18.017029c0 -9.9505005 8.067749 -18.016968 18.019836 -18.016968z" fill-rule="evenodd"/><path fill="#000000" d="m529.4085 597.89484l2.25 -0.21875q0.203125 1.140625 0.828125 1.671875q0.625 0.53125 1.671875 0.53125q1.125 0 1.6875 -0.46875q0.5625 -0.484375 0.5625 -1.109375q0 -0.40625 -0.234375 -0.6875q-0.234375 -0.296875 -0.828125 -0.5q-0.40625 -0.140625 -1.859375 -0.5q-1.859375 -0.46875 -2.609375 -1.140625q-1.046875 -0.9375 -1.046875 -2.296875q0 -0.875 0.484375 -1.640625q0.5 -0.765625 1.4375 -1.15625q0.9375 -0.40625 2.25 -0.40625q2.15625 0 3.25 0.953125q1.09375 0.9375 1.140625 2.515625l-2.3125 0.109375q-0.140625 -0.890625 -0.640625 -1.265625q-0.484375 -0.390625 -1.453125 -0.390625q-1.015625 0 -1.578125 0.40625q-0.375 0.265625 -0.375 0.71875q0 0.40625 0.34375 0.6875q0.4375 0.375 2.125 0.78125q1.6875 0.390625 2.5 0.8125q0.8125 0.421875 1.265625 1.171875q0.453125 0.734375 0.453125 1.8125q0 0.984375 -0.546875 1.84375q-0.546875 0.859375 -1.546875 1.28125q-1.0 0.421875 -2.484375 0.421875q-2.171875 0 -3.34375 -1.0q-1.15625 -1.015625 -1.390625 -2.9375zm15.046875 -4.5625l0 1.75l-1.5 0l0 3.34375q0 1.015625 0.046875 1.1875q0.046875 0.15625 0.1875 0.265625q0.15625 0.109375 0.375 0.109375q0.3125 0 0.890625 -0.203125l0.1875 1.703125q-0.765625 0.328125 -1.734375 0.328125q-0.59375 0 -1.078125 -0.203125q-0.46875 -0.203125 -0.703125 -0.515625q-0.21875 -0.3125 -0.296875 -0.859375q-0.078125 -0.375 -0.078125 -1.546875l0 -3.609375l-1.0 0l0 -1.75l1.0 0l0 -1.65625l2.203125 -1.28125l0 2.9375l1.5 0zm1.015625 4.03125q0 -1.09375 0.53125 -2.109375q0.546875 -1.03125 1.53125 -1.5625q1.0 -0.546875 2.21875 -0.546875q1.875 0 3.078125 1.21875q1.203125 1.21875 1.203125 3.09375q0 1.875 -1.21875 3.125q-1.203125 1.234375 -3.046875 1.234375q-1.140625 0 -2.1875 -0.515625q-1.03125 -0.515625 -1.578125 -1.515625q-0.53125 -1.0 -0.53125 -2.421875zm2.25 0.109375q0 1.234375 0.578125 1.890625q0.59375 0.65625 1.453125 0.65625q0.859375 0 1.4375 -0.65625q0.59375 -0.65625 0.59375 -1.90625q0 -1.21875 -0.59375 -1.875q-0.578125 -0.65625 -1.4375 -0.65625q-0.859375 0 -1.453125 0.65625q-0.578125 0.65625 -0.578125 1.890625zm7.9765625 -4.140625l2.046875 0l0 1.21875q0.390625 -0.625 1.0625 -1.015625q0.6875 -0.390625 1.515625 -0.390625q1.453125 0 2.453125 1.140625q1.015625 1.125 1.015625 3.140625q0 2.078125 -1.015625 3.234375q-1.015625 1.15625 -2.46875 1.15625q-0.6875 0 -1.25 -0.265625q-0.546875 -0.28125 -1.171875 -0.953125l0 4.1875l-2.1875 0l0 -11.453125zm2.171875 4.0q0 1.40625 0.546875 2.078125q0.5625 0.65625 1.359375 0.65625q0.765625 0 1.265625 -0.609375q0.515625 -0.609375 0.515625 -2.015625q0 -1.296875 -0.53125 -1.921875q-0.515625 -0.640625 -1.296875 -0.640625q-0.796875 0 -1.328125 0.625q-0.53125 0.609375 -0.53125 1.828125z" fill-rule="nonzero"/><path fill="#f4cccc" d="m654.0026 595.76904l0 0c0 -10.463013 8.947266 -18.944885 19.984253 -18.944885l0 0c5.300171 0 10.38324 1.9959717 14.130981 5.548828c3.7478027 3.5528564 5.8532715 8.371521 5.8532715 13.396057l0 0c0 10.462952 -8.947266 18.944885 -19.984253 18.944885l0 0c-11.036987 0 -19.984253 -8.481934 -19.984253 -18.944885z" fill-rule="evenodd"/><path stroke="#cc0000" stroke-width="2.0" stroke-linejoin="round" stroke-linecap="butt" d="m654.0026 595.76904l0 0c0 -10.463013 8.947266 -18.944885 19.984253 -18.944885l0 0c5.300171 0 10.38324 1.9959717 14.130981 5.548828c3.7478027 3.5528564 5.8532715 8.371521 5.8532715 13.396057l0 0c0 10.462952 -8.947266 18.944885 -19.984253 18.944885l0 0c-11.036987 0 -19.984253 -8.481934 -19.984253 -18.944885z" fill-rule="evenodd"/><path fill="#000000" fill-opacity="0.0" d="m654.0026 595.76904l-51.40155 0" fill-rule="evenodd"/><path stroke="#cc0000" stroke-width="2.0" stroke-linejoin="round" stroke-linecap="butt" d="m654.0026 595.76904l-39.40155 0" fill-rule="evenodd"/><path fill="#cc0000" stroke="#cc0000" stroke-width="2.0" stroke-linecap="butt" d="m614.6011 592.4656l-9.076233 3.3034668l9.076233 3.3034668z" fill-rule="evenodd"/><path fill="#666666" d="m403.08636 460.06824c-1.499115 0 -2.7424622 0.70581055 -3.7300415 2.1174622l0 -1.8351135l-2.7815247 0l0 12.49295l2.99469 0l0 -5.6582947c0 -1.3959656 0.07577515 -2.3527222 0.22735596 -2.8703308c0.15393066 -0.51760864 0.43695068 -0.93325806 0.84902954 -1.2469482c0.41207886 -0.3136902 0.8774414 -0.47055054 1.3960876 -0.47055054c0.40496826 0 0.7507324 0.109802246 1.0372925 0.32937622c0.28894043 0.21960449 0.49734497 0.5280762 0.6252136 0.92541504c0.12789917 0.39474487 0.1918335 1.2665405 0.1918335 2.615448l0 6.375885l2.99469 0l0 -7.7640076c0 -0.9645996 -0.055664062 -1.705719 -0.16696167 -2.223297c-0.108947754 -0.51760864 -0.3043213 -0.98031616 -0.5861511 -1.3881226c-0.27944946 -0.4078064 -0.6927185 -0.7424011 -1.2397766 -1.0038147c-0.5470886 -0.2640381 -1.151001 -0.39605713 -1.8117371 -0.39605713z" fill-rule="evenodd"/><path fill="#666666" d="m415.07574 462.76212c0.78152466 0 1.4363403 0.32937622 1.9644775 0.98812866c0.53048706 0.65878296 0.79574585 1.5998535 0.79574585 2.8232727c0 1.2547913 -0.2652588 2.2115479 -0.79574585 2.8703308c-0.5281372 0.65875244 -1.1829529 0.98812866 -1.9644775 0.98812866c-0.78152466 0 -1.4387207 -0.32937622 -1.9715881 -0.98812866c-0.53286743 -0.65878296 -0.7992859 -1.6076965 -0.7992859 -2.8468018c0 -1.2391052 0.26641846 -2.1880188 0.7992859 -2.8468018c0.53286743 -0.65875244 1.1900635 -0.98812866 1.9715881 -0.98812866zm-0.010681152 -2.6938782c-1.1083374 0 -2.1124878 0.27056885 -3.0124207 0.81170654c-0.897583 0.5411072 -1.5914917 1.3253479 -2.081726 2.3527222c-0.49023438 1.0273438 -0.73535156 2.0899963 -0.73535156 3.1879272c0 1.4351501 0.24511719 2.6533508 0.73535156 3.6545715c0.49023438 0.9985962 1.2054749 1.7566833 2.1456604 2.274292c0.9425659 0.5175781 1.9325256 0.7763977 2.969818 0.7763977c1.6767273 0 3.0668945 -0.6208496 4.170532 -1.8625793c1.1059875 -1.2443237 1.6589661 -2.811493 1.6589661 -4.7015076c0 -1.8743591 -0.5470581 -3.42453 -1.6412048 -4.650543c-1.0941467 -1.2286682 -2.497345 -1.8429871 -4.2096252 -1.8429871z" fill-rule="evenodd"/><path fill="#666666" d="m267.9685 275.09802l4.3051147 12.3871155c-0.1776123 0.6901245 -0.43338013 1.2574463 -0.76727295 1.7020264c-0.33389282 0.44714355 -0.848938 0.67071533 -1.5451355 0.67071533c-0.37652588 0 -0.79922485 -0.05041504 -1.2680969 -0.1512146l0 0l0.26641846 2.558838c0.55410767 0.13183594 1.1188965 0.1977539 1.6943359 0.1977539c0.56832886 0 1.0774536 -0.06591797 1.5273743 -0.1977539c0.45230103 -0.13180542 0.83236694 -0.31661987 1.1402283 -0.55441284c0.31021118 -0.23519897 0.5837097 -0.54278564 0.8205261 -0.9227295c0.23916626 -0.37994385 0.49017334 -0.93048096 0.75302124 -1.6516113l0.71398926 -2.1517334l3.9960632 -11.886993l-3.1009521 0l-2.6427307 8.769836l-2.7066956 -8.769836z" fill-rule="evenodd"/><path fill="#666666" d="m286.0201 277.31955c0.6109314 0 1.1295471 0.24685669 1.5557861 0.74053955c0.426239 0.49108887 0.6500244 1.2096252 0.6713562 2.1556091l-4.4756165 0c-0.0071105957 -0.89172363 0.20248413 -1.5973206 0.62872314 -2.1168518c0.426239 -0.51953125 0.966156 -0.7792969 1.619751 -0.7792969zm-0.18118286 -2.5006714c-1.4989624 0 -2.738617 0.58026123 -3.7189941 1.7407837c-0.9803772 1.157959 -1.4705505 2.760437 -1.4705505 4.8075256c0 1.7136536 0.37295532 3.1326294 1.1188965 4.2569885c0.94485474 1.4034729 2.401184 2.1052246 4.369049 2.1052246c1.2431946 0 2.2780457 -0.3114624 3.1044922 -0.9343872c0.8288269 -0.6254883 1.4350281 -1.5352783 1.8186646 -2.7294312l-2.9837341 -0.5466614c-0.16339111 0.6203308 -0.40493774 1.0700684 -0.7246399 1.3492126c-0.31967163 0.2791443 -0.71395874 0.4187317 -1.1828308 0.4187317c-0.6890869 0 -1.2645264 -0.26879883 -1.7262878 -0.806427c-0.461792 -0.54019165 -0.7033081 -1.2949219 -0.7246399 -2.2641907l7.501953 0c0.042633057 -2.504547 -0.42266846 -4.3629456 -1.395935 -5.575165c-0.9732666 -1.2148132 -2.3017578 -1.8222046 -3.985443 -1.8222046z" fill-rule="evenodd"/><path fill="#666666" d="m297.78455 274.81888c-1.6268616 0 -2.8274536 0.36444092 -3.6018066 1.0933228c-0.774353 0.72888184 -1.1615295 1.6283569 -1.1615295 2.6984253c0 1.1863708 0.4475708 2.112976 1.3426819 2.7798157c0.6464844 0.4807434 2.1774292 1.0119019 4.5928345 1.5934753c0.5185852 0.13180542 0.852478 0.27526855 1.0016785 0.43032837c0.14208984 0.1628418 0.21310425 0.36831665 0.21310425 0.6164551c0 0.36444092 -0.13140869 0.6552124 -0.3942566 0.872345c-0.39074707 0.31015015 -0.9732666 0.46524048 -1.7476196 0.46524048c-0.7033081 0 -1.2503357 -0.16412354 -1.6410522 -0.49240112c-0.39074707 -0.33084106 -0.6500244 -0.81417847 -0.7779236 -1.4500122l-3.0050354 0.5001526c0.2770691 1.1708679 0.86434937 2.0974731 1.7618408 2.7798157c0.8998413 0.68237305 2.120575 1.0235596 3.6621704 1.0235596c1.697876 0 2.9801636 -0.4071045 3.8468933 -1.221283c0.8666992 -0.81417847 1.3000488 -1.7872925 1.3000488 -2.919403c0 -1.039032 -0.31259155 -1.8493347 -0.93774414 -2.4308777c-0.6322632 -0.573822 -1.7464294 -1.0584412 -3.3424988 -1.4538879c-1.593689 -0.3954773 -2.5255127 -0.7017517 -2.7954712 -0.91885376c-0.19891357 -0.1628418 -0.29837036 -0.3605652 -0.29837036 -0.5932007c0 -0.27139282 0.11364746 -0.4923706 0.34100342 -0.66296387c0.3409729 -0.24038696 0.9057617 -0.3605652 1.6943359 -0.3605652c0.6251526 0 1.1058655 0.12792969 1.4421387 0.38381958c0.33862305 0.2558899 0.56832886 0.62420654 0.6890869 1.10495l2.823883 -0.5699158c-0.28414917 -1.0778198 -0.8027649 -1.8919983 -1.5557861 -2.4425354c-0.75305176 -0.5505371 -1.9039307 -0.82580566 -3.4526062 -0.82580566z" fill-rule="evenodd"/><path fill="#f4cccc" d="m112.78215 135.2441l0 0c0 -10.462967 8.947258 -18.944885 19.984253 -18.944885l0 0c5.3001556 0 10.3832245 1.9959793 14.130997 5.548828c3.7477722 3.5528564 5.853256 8.371567 5.853256 13.396057l0 0c0 10.462967 -8.94725 18.944885 -19.984253 18.944885l0 0c-11.036995 0 -19.984253 -8.481918 -19.984253 -18.944885z" fill-rule="evenodd"/><path stroke="#cc0000" stroke-width="2.0" stroke-linejoin="round" stroke-linecap="butt" d="m112.78215 135.2441l0 0c0 -10.462967 8.947258 -18.944885 19.984253 -18.944885l0 0c5.3001556 0 10.3832245 1.9959793 14.130997 5.548828c3.7477722 3.5528564 5.853256 8.371567 5.853256 13.396057l0 0c0 10.462967 -8.94725 18.944885 -19.984253 18.944885l0 0c-11.036995 0 -19.984253 -8.481918 -19.984253 -18.944885z" fill-rule="evenodd"/><path fill="#000000" fill-opacity="0.0" d="m152.75066 135.2441l30.516022 0l0 0.06298828l30.523346 0" fill-rule="evenodd"/><path stroke="#674ea7" stroke-width="2.0" stroke-linejoin="round" stroke-linecap="butt" d="m152.75066 135.2441l30.516022 0l0 0.06298828l18.523346 0" fill-rule="evenodd"/><path fill="#674ea7" stroke="#674ea7" stroke-width="2.0" stroke-linecap="butt" d="m201.79002 138.61055l9.076202 -3.3034668l-9.076202 -3.3034668z" fill-rule="evenodd"/></g></svg>