<svg version="1.1" viewBox="0.0 0.0 480.0 384.0" fill="none" stroke="none" stroke-linecap="square" stroke-miterlimit="10" xmlns:xlink="http://www.w3.org/1999/xlink" xmlns="http://www.w3.org/2000/svg"><clipPath id="p.0"><path d="m0 0l480.0 0l0 384.0l-480.0 0l0 -384.0z" clip-rule="nonzero"/></clipPath><g clip-path="url(#p.0)"><path fill="#000000" fill-opacity="0.0" d="m0 0l480.0 0l0 384.0l-480.0 0z" fill-rule="evenodd"/><path fill="#666666" d="m189.84871 63.56323l73.01204 -7.8082466l0 39.04122l-73.01204 0z" fill-rule="evenodd"/><path stroke="#000000" stroke-width="2.0" stroke-linejoin="round" stroke-linecap="butt" d="m189.84871 63.56323l73.01204 -7.8082466l0 39.04122l-73.01204 0z" fill-rule="evenodd"/><path fill="#ffffff" d="m211.02515 76.13596l0 -1.703125l1.828125 0l0 1.703125l-1.828125 0zm0 7.84375l0 -6.90625l1.828125 0l0 6.90625l-1.828125 0zm9.999863 0l-1.828125 0l0 -3.53125q0 -1.109375 -0.125 -1.4375q-0.109375 -0.328125 -0.375 -0.515625q-0.265625 -0.1875 -0.640625 -0.1875q-0.46875 0 -0.859375 0.265625q-0.375 0.265625 -0.515625 0.703125q-0.140625 0.421875 -0.140625 1.578125l0 3.125l-1.828125 0l0 -6.90625l1.703125 0l0 1.015625q0.90625 -1.171875 2.28125 -1.171875q0.609375 0 1.109375 0.21875q0.5 0.21875 0.75 0.5625q0.265625 0.328125 0.359375 0.765625q0.109375 0.421875 0.109375 1.21875l0 4.296875zm1.7976074 -6.90625l1.703125 0l0 1.015625q0.328125 -0.53125 0.890625 -0.84375q0.578125 -0.328125 1.265625 -0.328125q1.203125 0 2.03125 0.9375q0.84375 0.9375 0.84375 2.625q0 1.734375 -0.84375 2.703125q-0.84375 0.953125 -2.046875 0.953125q-0.578125 0 -1.046875 -0.21875q-0.453125 -0.234375 -0.96875 -0.796875l0 3.484375l-1.828125 0l0 -9.53125zm1.8125 3.328125q0 1.171875 0.453125 1.734375q0.46875 0.546875 1.125 0.546875q0.640625 0 1.0625 -0.5q0.421875 -0.515625 0.421875 -1.6875q0 -1.078125 -0.4375 -1.609375q-0.4375 -0.53125 -1.078125 -0.53125q-0.671875 0 -1.109375 0.515625q-0.4375 0.515625 -0.4375 1.53125zm10.922607 3.578125l0 -1.03125q-0.375 0.546875 -1.0 0.875q-0.609375 0.3125 -1.28125 0.3125q-0.703125 0 -1.265625 -0.296875q-0.546875 -0.3125 -0.796875 -0.859375q-0.234375 -0.5625 -0.234375 -1.53125l0 -4.375l1.828125 0l0 3.171875q0 1.453125 0.09375 1.78125q0.109375 0.328125 0.375 0.53125q0.265625 0.1875 0.671875 0.1875q0.46875 0 0.84375 -0.25q0.375 -0.265625 0.5 -0.640625q0.140625 -0.390625 0.140625 -1.875l0 -2.90625l1.828125 0l0 6.90625l-1.703125 0zm6.7663574 -6.90625l0 1.453125l-1.25 0l0 2.78125q0 0.84375 0.03125 0.984375q0.046875 0.140625 0.171875 0.234375q0.125 0.09375 0.3125 0.09375q0.25 0 0.734375 -0.171875l0.15625 1.421875q-0.640625 0.265625 -1.453125 0.265625q-0.484375 0 -0.890625 -0.15625q-0.390625 -0.171875 -0.578125 -0.4375q-0.1875 -0.265625 -0.265625 -0.71875q-0.046875 -0.3125 -0.046875 -1.28125l0 -3.015625l-0.84375 0l0 -1.453125l0.84375 0l0 -1.375l1.828125 -1.078125l0 2.453125l1.25 0z" fill-rule="nonzero"/><path fill="#666666" d="m245.2469 313.28955l82.7433 0l0 31.311462c-41.371643 0 -41.371643 11.930237 -82.7433 5.1516724z" fill-rule="evenodd"/><path stroke="#000000" stroke-width="2.0" stroke-linejoin="round" stroke-linecap="butt" d="m245.2469 313.28955l82.7433 0l0 31.311462c-41.371643 0 -41.371643 11.930237 -82.7433 5.1516724z" fill-rule="evenodd"/><path fill="#ffffff" d="m266.4287 330.1984q0 -0.921875 0.453125 -1.765625q0.453125 -0.859375 1.265625 -1.296875q0.828125 -0.453125 1.84375 -0.453125q1.5625 0 2.5625 1.015625q1.015625 1.015625 1.015625 2.578125q0 1.5625 -1.015625 2.59375q-1.015625 1.03125 -2.546875 1.03125q-0.953125 0 -1.8125 -0.421875q-0.859375 -0.4375 -1.3125 -1.265625q-0.453125 -0.828125 -0.453125 -2.015625zm1.875 0.09375q0 1.03125 0.484375 1.578125q0.5 0.546875 1.203125 0.546875q0.71875 0 1.203125 -0.546875q0.484375 -0.546875 0.484375 -1.59375q0 -1.015625 -0.484375 -1.5625q-0.484375 -0.546875 -1.203125 -0.546875q-0.703125 0 -1.203125 0.546875q-0.484375 0.546875 -0.484375 1.578125zm11.235107 3.453125l0 -1.03125q-0.375 0.546875 -1.0 0.875q-0.609375 0.3125 -1.28125 0.3125q-0.703125 0 -1.265625 -0.296875q-0.546875 -0.3125 -0.796875 -0.859375q-0.234375 -0.5625 -0.234375 -1.53125l0 -4.375l1.828125 0l0 3.171875q0 1.453125 0.09375 1.78125q0.109375 0.328125 0.375 0.53125q0.265625 0.1875 0.671875 0.1875q0.46875 0 0.84375 -0.25q0.375 -0.265625 0.5 -0.640625q0.140625 -0.390625 0.140625 -1.875l0 -2.90625l1.828125 0l0 6.90625l-1.703125 0zm6.7663574 -6.90625l0 1.453125l-1.25 0l0 2.78125q0 0.84375 0.03125 0.984375q0.046875 0.140625 0.171875 0.234375q0.125 0.09375 0.3125 0.09375q0.25 0 0.734375 -0.171875l0.15625 1.421875q-0.640625 0.265625 -1.453125 0.265625q-0.484375 0 -0.890625 -0.15625q-0.390625 -0.171875 -0.578125 -0.4375q-0.1875 -0.265625 -0.265625 -0.71875q-0.046875 -0.3125 -0.046875 -1.28125l0 -3.015625l-0.84375 0l0 -1.453125l0.84375 0l0 -1.375l1.828125 -1.078125l0 2.453125l1.25 0zm1.219635 0l1.703125 0l0 1.015625q0.328125 -0.53125 0.890625 -0.84375q0.578125 -0.328125 1.265625 -0.328125q1.203125 0 2.03125 0.9375q0.84375 0.9375 0.84375 2.625q0 1.734375 -0.84375 2.703125q-0.84375 0.953125 -2.046875 0.953125q-0.578125 0 -1.046875 -0.21875q-0.453125 -0.234375 -0.96875 -0.796875l0 3.484375l-1.828125 0l0 -9.53125zm1.8125 3.328125q0 1.171875 0.453125 1.734375q0.46875 0.546875 1.125 0.546875q0.640625 0 1.0625 -0.5q0.421875 -0.515625 0.421875 -1.6875q0 -1.078125 -0.4375 -1.609375q-0.4375 -0.53125 -1.078125 -0.53125q-0.671875 0 -1.109375 0.515625q-0.4375 0.515625 -0.4375 1.53125zm10.922607 3.578125l0 -1.03125q-0.375 0.546875 -1.0 0.875q-0.609375 0.3125 -1.28125 0.3125q-0.703125 0 -1.265625 -0.296875q-0.546875 -0.3125 -0.796875 -0.859375q-0.234375 -0.5625 -0.234375 -1.53125l0 -4.375l1.828125 0l0 3.171875q0 1.453125 0.09375 1.78125q0.109375 0.328125 0.375 0.53125q0.265625 0.1875 0.671875 0.1875q0.46875 0 0.84375 -0.25q0.375 -0.265625 0.5 -0.640625q0.140625 -0.390625 0.140625 -1.875l0 -2.90625l1.828125 0l0 6.90625l-1.703125 0zm6.7663574 -6.90625l0 1.453125l-1.25 0l0 2.78125q0 0.84375 0.03125 0.984375q0.046875 0.140625 0.171875 0.234375q0.125 0.09375 0.3125 0.09375q0.25 0 0.734375 -0.171875l0.15625 1.421875q-0.640625 0.265625 -1.453125 0.265625q-0.484375 0 -0.890625 -0.15625q-0.390625 -0.171875 -0.578125 -0.4375q-0.1875 -0.265625 -0.265625 -0.71875q-0.046875 -0.3125 -0.046875 -1.28125l0 -3.015625l-0.84375 0l0 -1.453125l0.84375 0l0 -1.375l1.828125 -1.078125l0 2.453125l1.25 0z" fill-rule="nonzero"/><path fill="#f1c232" d="m15.811024 255.70395l73.012054 0l0 33.3367l-73.012054 0z" fill-rule="evenodd"/><path stroke="#000000" stroke-width="2.0" stroke-linejoin="round" stroke-linecap="butt" stroke-dasharray="8.0,6.0" d="m15.811024 255.70395l73.012054 0l0 33.3367l-73.012054 0z" fill-rule="evenodd"/><path fill="#000000" d="m48.185963 272.2973l-1.7968788 0.328125q-0.09375 -0.53125 -0.421875 -0.796875q-0.328125 -0.28125 -0.828125 -0.28125q-0.6875 0 -1.09375 0.46875q-0.40625 0.46875 -0.40625 1.578125q0 1.234375 0.40625 1.75q0.421875 0.5 1.109375 0.5q0.53125 0 0.859375 -0.296875q0.328125 -0.296875 0.46875 -1.03125l1.7968788 0.3125q-0.28125 1.234375 -1.0781288 1.875q-0.796875 0.625 -2.125 0.625q-1.515625 0 -2.421875 -0.953125q-0.90625 -0.953125 -0.90625 -2.65625q0 -1.703125 0.90625 -2.65625q0.90625 -0.953125 2.453125 -0.953125q1.265625 0 2.0 0.546875q0.7500038 0.53125 1.0781288 1.640625zm2.7562256 0.078125l-1.671875 -0.3125q0.28125 -1.0 0.96875 -1.46875q0.6875 -0.484375 2.03125 -0.484375q1.21875 0 1.8125 0.296875q0.609375 0.28125 0.84375 0.734375q0.25 0.4375 0.25 1.625l-0.015625 2.140625q0 0.90625 0.078125 1.34375q0.09375 0.421875 0.34375 0.921875l-1.8125 0q-0.078125 -0.1875 -0.171875 -0.546875q-0.046875 -0.15625 -0.078125 -0.203125q-0.46875 0.453125 -1.0 0.6875q-0.53125 0.21875 -1.140625 0.21875q-1.0625 0 -1.6875 -0.578125q-0.609375 -0.578125 -0.609375 -1.46875q0 -0.578125 0.28125 -1.03125q0.28125 -0.46875 0.78125 -0.703125q0.515625 -0.25 1.46875 -0.4375q1.28125 -0.234375 1.765625 -0.453125l0 -0.171875q0 -0.53125 -0.265625 -0.75q-0.25 -0.234375 -0.96875 -0.234375q-0.484375 0 -0.765625 0.203125q-0.265625 0.1875 -0.4375 0.671875zm2.4375 1.484375q-0.34375 0.109375 -1.109375 0.28125q-0.765625 0.15625 -1.0 0.3125q-0.359375 0.25 -0.359375 0.640625q0 0.390625 0.28125 0.671875q0.296875 0.28125 0.734375 0.28125q0.5 0 0.953125 -0.328125q0.328125 -0.25 0.4375 -0.609375q0.0625 -0.234375 0.0625 -0.890625l0 -0.359375zm3.5999756 3.3125l0 -9.546875l1.828125 0l0 9.546875l-1.828125 0zm3.7029877 0l0 -9.546875l1.828125 0l0 9.546875l-1.828125 0z" fill-rule="nonzero"/><path fill="#f1c232" d="m122.267 255.70395l73.012054 0l0 33.3367l-73.012054 0z" fill-rule="evenodd"/><path stroke="#000000" stroke-width="2.0" stroke-linejoin="round" stroke-linecap="butt" stroke-dasharray="8.0,6.0" d="m122.267 255.70395l73.012054 0l0 33.3367l-73.012054 0z" fill-rule="evenodd"/><path fill="#000000" d="m154.64194 272.2973l-1.796875 0.328125q-0.09375 -0.53125 -0.421875 -0.796875q-0.328125 -0.28125 -0.828125 -0.28125q-0.6875 0 -1.09375 0.46875q-0.40625 0.46875 -0.40625 1.578125q0 1.234375 0.40625 1.75q0.421875 0.5 1.109375 0.5q0.53125 0 0.859375 -0.296875q0.328125 -0.296875 0.46875 -1.03125l1.796875 0.3125q-0.28125 1.234375 -1.078125 1.875q-0.796875 0.625 -2.125 0.625q-1.515625 0 -2.421875 -0.953125q-0.90625 -0.953125 -0.90625 -2.65625q0 -1.703125 0.90625 -2.65625q0.90625 -0.953125 2.453125 -0.953125q1.265625 0 2.0 0.546875q0.75 0.53125 1.078125 1.640625zm2.7562256 0.078125l-1.671875 -0.3125q0.28125 -1.0 0.96875 -1.46875q0.6875 -0.484375 2.03125 -0.484375q1.21875 0 1.8125 0.296875q0.609375 0.28125 0.84375 0.734375q0.25 0.4375 0.25 1.625l-0.015625 2.140625q0 0.90625 0.078125 1.34375q0.09375 0.421875 0.34375 0.921875l-1.8125 0q-0.078125 -0.1875 -0.171875 -0.546875q-0.046875 -0.15625 -0.078125 -0.203125q-0.46875 0.453125 -1.0 0.6875q-0.53125 0.21875 -1.140625 0.21875q-1.0625 0 -1.6875 -0.578125q-0.609375 -0.578125 -0.609375 -1.46875q0 -0.578125 0.28125 -1.03125q0.28125 -0.46875 0.78125 -0.703125q0.515625 -0.25 1.46875 -0.4375q1.28125 -0.234375 1.765625 -0.453125l0 -0.171875q0 -0.53125 -0.265625 -0.75q-0.25 -0.234375 -0.96875 -0.234375q-0.484375 0 -0.765625 0.203125q-0.265625 0.1875 -0.4375 0.671875zm2.4375 1.484375q-0.34375 0.109375 -1.109375 0.28125q-0.765625 0.15625 -1.0 0.3125q-0.359375 0.25 -0.359375 0.640625q0 0.390625 0.28125 0.671875q0.296875 0.28125 0.734375 0.28125q0.5 0 0.953125 -0.328125q0.328125 -0.25 0.4375 -0.609375q0.0625 -0.234375 0.0625 -0.890625l0 -0.359375zm3.5999756 3.3125l0 -9.546875l1.828125 0l0 9.546875l-1.828125 0zm3.7029877 0l0 -9.546875l1.828125 0l0 9.546875l-1.828125 0z" fill-rule="nonzero"/><path fill="#000000" fill-opacity="0.0" d="m158.79466 225.8315l-0.03149414 29.858261" fill-rule="evenodd"/><path stroke="#85200c" stroke-width="2.0" stroke-linejoin="round" stroke-linecap="butt" stroke-dasharray="8.0,6.0" d="m158.79468 225.83148l-0.018844604 17.858276" fill-rule="evenodd"/><path fill="#85200c" stroke="#85200c" stroke-width="2.0" stroke-linecap="butt" d="m155.47237 243.68628l3.2938995 9.079666l3.313034 -9.072693z" fill-rule="evenodd"/><path fill="#f1c232" d="m250.11232 257.72617l73.01204 0l0 33.3367l-73.01204 0z" fill-rule="evenodd"/><path stroke="#000000" stroke-width="2.0" stroke-linejoin="round" stroke-linecap="butt" d="m250.11232 257.72617l73.01204 0l0 33.3367l-73.01204 0z" fill-rule="evenodd"/><path fill="#000000" d="m282.48724 274.31952l-1.796875 0.328125q-0.09375 -0.53125 -0.421875 -0.796875q-0.328125 -0.28125 -0.828125 -0.28125q-0.6875 0 -1.09375 0.46875q-0.40625 0.46875 -0.40625 1.578125q0 1.234375 0.40625 1.75q0.421875 0.5 1.109375 0.5q0.53125 0 0.859375 -0.296875q0.328125 -0.296875 0.46875 -1.03125l1.796875 0.3125q-0.28125 1.234375 -1.078125 1.875q-0.796875 0.625 -2.125 0.625q-1.515625 0 -2.421875 -0.953125q-0.90625 -0.953125 -0.90625 -2.65625q0 -1.703125 0.90625 -2.65625q0.90625 -0.953125 2.453125 -0.953125q1.265625 0 2.0 0.546875q0.75 0.53125 1.078125 1.640625zm2.7562256 0.078125l-1.671875 -0.3125q0.28125 -1.0 0.96875 -1.46875q0.6875 -0.484375 2.03125 -0.484375q1.21875 0 1.8125 0.296875q0.609375 0.28125 0.84375 0.734375q0.25 0.4375 0.25 1.625l-0.015625 2.140625q0 0.90625 0.078125 1.34375q0.09375 0.421875 0.34375 0.921875l-1.8125 0q-0.078125 -0.1875 -0.171875 -0.546875q-0.046875 -0.15625 -0.078125 -0.203125q-0.46875 0.453125 -1.0 0.6875q-0.53125 0.21875 -1.140625 0.21875q-1.0625 0 -1.6875 -0.578125q-0.609375 -0.578125 -0.609375 -1.46875q0 -0.578125 0.28125 -1.03125q0.28125 -0.46875 0.78125 -0.703125q0.515625 -0.25 1.46875 -0.4375q1.28125 -0.234375 1.765625 -0.453125l0 -0.171875q0 -0.53125 -0.265625 -0.75q-0.25 -0.234375 -0.96875 -0.234375q-0.484375 0 -0.765625 0.203125q-0.265625 0.1875 -0.4375 0.671875zm2.4375 1.484375q-0.34375 0.109375 -1.109375 0.28125q-0.765625 0.15625 -1.0 0.3125q-0.359375 0.25 -0.359375 0.640625q0 0.390625 0.28125 0.671875q0.296875 0.28125 0.734375 0.28125q0.5 0 0.953125 -0.328125q0.328125 -0.25 0.4375 -0.609375q0.0625 -0.234375 0.0625 -0.890625l0 -0.359375zm3.5999756 3.3125l0 -9.546875l1.828125 0l0 9.546875l-1.828125 0zm3.703003 0l0 -9.546875l1.828125 0l0 9.546875l-1.828125 0z" fill-rule="nonzero"/><path fill="#000000" fill-opacity="0.0" d="m52.317047 289.04065l0 87.79596l234.29922 0l0 -27.071533" fill-rule="evenodd"/><path stroke="#85200c" stroke-width="2.0" stroke-linejoin="round" stroke-linecap="butt" stroke-dasharray="8.0,6.0" d="m52.317047 289.04065l0 87.79596l234.29922 0l0 -15.071564" fill-rule="evenodd"/><path fill="#85200c" stroke="#85200c" stroke-width="2.0" stroke-linecap="butt" d="m289.91974 361.76505l-3.3034668 -9.076202l-3.3034668 9.076202z" fill-rule="evenodd"/><path fill="#000000" fill-opacity="0.0" d="m286.61835 291.06287l0 11.113434l0.06298828 0l0 11.122772" fill-rule="evenodd"/><path stroke="#cc0000" stroke-width="2.0" stroke-linejoin="round" stroke-linecap="butt" d="m286.61835 291.06287l0 10.236389" fill-rule="evenodd"/><path fill="#cc0000" stroke="#cc0000" stroke-width="2.0" stroke-linecap="butt" d="m283.3149 301.3166l3.3510742 9.058746l3.2557678 -9.093414z" fill-rule="evenodd"/><path fill="#000000" fill-opacity="0.0" d="m226.35474 94.7962l0 0" fill-rule="evenodd"/><path stroke="#000000" stroke-width="2.0" stroke-linejoin="round" stroke-linecap="butt" d="m226.35474 94.7962l0 0" fill-rule="evenodd"/><path fill="#000000" fill-opacity="0.0" d="m327.9902 332.81177l91.653534 0l0 -118.23624" fill-rule="evenodd"/><path stroke="#cc0000" stroke-width="2.0" stroke-linejoin="round" stroke-linecap="butt" d="m327.9902 332.81177l91.653534 0l0 -106.23622" fill-rule="evenodd"/><path fill="#cc0000" stroke="#cc0000" stroke-width="2.0" stroke-linecap="butt" d="m422.9472 226.57555l-3.3034668 -9.076202l-3.3034668 9.076202z" fill-rule="evenodd"/><path fill="#cfe2f3" d="m42.138172 7.1640434l53.83971 0l0 0c7.0531464 0 12.770851 6.5663967 12.770851 14.666456c0 8.100061 -5.717705 14.666456 -12.770851 14.666456l-53.83971 0l0 0c-7.05315 0 -12.770855 -6.566395 -12.770855 -14.666456c0 -8.1000595 5.717705 -14.666456 12.770855 -14.666456z" fill-rule="evenodd"/><path stroke="#000000" stroke-width="2.0" stroke-linejoin="round" stroke-linecap="butt" d="m42.138172 7.1640434l53.83971 0l0 0c7.0531464 0 12.770851 6.5663967 12.770851 14.666456c0 8.100061 -5.717705 14.666456 -12.770851 14.666456l-53.83971 0l0 0c-7.05315 0 -12.770855 -6.566395 -12.770855 -14.666456c0 -8.1000595 5.717705 -14.666456 12.770855 -14.666456z" fill-rule="evenodd"/><path fill="#000000" d="m54.92629 24.661749l1.828125 -0.28125q0.125 0.53125 0.484375 0.8125q0.359375 0.265625 1.0 0.265625q0.703125 0 1.0625 -0.25q0.25 -0.1875 0.25 -0.484375q0 -0.21875 -0.140625 -0.359375q-0.125 -0.125 -0.609375 -0.234375q-2.203125 -0.484375 -2.796875 -0.890625q-0.828125 -0.5625 -0.828125 -1.5625q0 -0.890625 0.703125 -1.5q0.71875 -0.609375 2.203125 -0.609375q1.421875 0 2.109375 0.46875q0.703125 0.453125 0.953125 1.359375l-1.71875 0.3125q-0.109375 -0.40625 -0.421875 -0.609375q-0.3125 -0.21875 -0.890625 -0.21875q-0.71875 0 -1.03125 0.203125q-0.203125 0.140625 -0.203125 0.359375q0 0.203125 0.1875 0.34375q0.234375 0.171875 1.6875 0.515625q1.46875 0.328125 2.0625 0.8125q0.5625 0.484375 0.5625 1.359375q0 0.953125 -0.796875 1.640625q-0.78125 0.671875 -2.34375 0.671875q-1.40625 0 -2.234375 -0.5625q-0.828125 -0.578125 -1.078125 -1.5625zm11.224979 -4.9375l0 1.453125l-1.25 0l0 2.78125q0 0.84375 0.03125 0.984375q0.046875 0.140625 0.171875 0.234375q0.125 0.09375 0.3125 0.09375q0.25 0 0.734375 -0.171875l0.15625 1.421875q-0.640625 0.265625 -1.453125 0.265625q-0.484375 0 -0.8906288 -0.15625q-0.390625 -0.171875 -0.578125 -0.4375q-0.1875 -0.265625 -0.265625 -0.71875q-0.046875 -0.3125 -0.046875 -1.28125l0 -3.015625l-0.84375 0l0 -1.453125l0.84375 0l0 -1.375l1.8281288 -1.078125l0 2.453125l1.25 0zm2.6414948 2.109375l-1.671875 -0.3125q0.28125 -1.0 0.96875 -1.46875q0.6875 -0.484375 2.03125 -0.484375q1.21875 0 1.8125 0.296875q0.609375 0.28125 0.84375 0.734375q0.25 0.4375 0.25 1.625l-0.015625 2.140625q0 0.90625 0.078125 1.34375q0.09375 0.421875 0.34375 0.921875l-1.8125 0q-0.078125 -0.1875 -0.171875 -0.546875q-0.046875 -0.15625 -0.078125 -0.203125q-0.46875 0.453125 -1.0 0.6875q-0.53125 0.21875 -1.140625 0.21875q-1.0625 0 -1.6875 -0.578125q-0.609375 -0.578125 -0.609375 -1.46875q0 -0.578125 0.28125 -1.03125q0.28125 -0.46875 0.78125 -0.703125q0.515625 -0.25 1.46875 -0.4375q1.28125 -0.234375 1.765625 -0.453125l0 -0.171875q0 -0.53125 -0.265625 -0.75q-0.25 -0.234375 -0.96875 -0.234375q-0.484375 0 -0.765625 0.203125q-0.265625 0.1875 -0.4375 0.671875zm2.4375 1.484375q-0.34375 0.109375 -1.109375 0.28125q-0.765625 0.15625 -1.0 0.3125q-0.359375 0.25 -0.359375 0.640625q0 0.390625 0.28125 0.671875q0.296875 0.28125 0.734375 0.28125q0.5 0 0.953125 -0.328125q0.328125 -0.25 0.4375 -0.609375q0.0625 -0.234375 0.0625 -0.890625l0 -0.359375zm5.3499756 3.3125l-1.828125 0l0 -6.90625l1.703125 0l0 0.984375q0.4375 -0.703125 0.78125 -0.921875q0.34375 -0.21875 0.796875 -0.21875q0.625 0 1.203125 0.34375l-0.5625 1.59375q-0.46875 -0.296875 -0.859375 -0.296875q-0.390625 0 -0.65625 0.21875q-0.265625 0.203125 -0.421875 0.765625q-0.15625 0.546875 -0.15625 2.296875l0 2.140625zm6.608658 -6.90625l0 1.453125l-1.25 0l0 2.78125q0 0.84375 0.03125 0.984375q0.046875 0.140625 0.171875 0.234375q0.125 0.09375 0.3125 0.09375q0.25 0 0.734375 -0.171875l0.15625 1.421875q-0.640625 0.265625 -1.453125 0.265625q-0.484375 0 -0.890625 -0.15625q-0.390625 -0.171875 -0.578125 -0.4375q-0.1875 -0.265625 -0.265625 -0.71875q-0.046875 -0.3125 -0.046875 -1.28125l0 -3.015625l-0.84375 0l0 -1.453125l0.84375 0l0 -1.375l1.828125 -1.078125l0 2.453125l1.25 0z" fill-rule="nonzero"/><path fill="#cfe2f3" d="m258.01886 163.17609l53.83972 0l0 0c7.053131 0 12.7708435 7.4636536 12.7708435 16.670547c0 9.206894 -5.7177124 16.670547 -12.7708435 16.670547l-53.83972 0l0 0c-7.0531464 0 -12.770859 -7.4636536 -12.770859 -16.670547c0 -9.206894 5.7177124 -16.670547 12.770859 -16.670547z" fill-rule="evenodd"/><path stroke="#000000" stroke-width="2.0" stroke-linejoin="round" stroke-linecap="butt" d="m258.01886 163.17609l53.83972 0l0 0c7.053131 0 12.7708435 7.4636536 12.7708435 16.670547c0 9.206894 -5.7177124 16.670547 -12.7708435 16.670547l-53.83972 0l0 0c-7.0531464 0 -12.770859 -7.4636536 -12.770859 -16.670547c0 -9.206894 5.7177124 -16.670547 12.770859 -16.670547z" fill-rule="evenodd"/><path fill="#000000" d="m278.4087 182.44351l1.828125 0.3125q-0.34375 1.0 -1.109375 1.53125q-0.765625 0.515625 -1.890625 0.515625q-1.8125 0 -2.671875 -1.171875q-0.6875 -0.953125 -0.6875 -2.390625q0 -1.71875 0.890625 -2.6875q0.90625 -0.96875 2.28125 -0.96875q1.546875 0 2.4375 1.015625q0.890625 1.015625 0.84375 3.125l-4.578125 0q0.015625 0.8125 0.4375 1.265625q0.421875 0.453125 1.0625 0.453125q0.421875 0 0.71875 -0.234375q0.296875 -0.234375 0.4375 -0.765625zm0.109375 -1.84375q-0.015625 -0.796875 -0.40625 -1.203125q-0.390625 -0.421875 -0.953125 -0.421875q-0.59375 0 -0.984375 0.4375q-0.390625 0.4375 -0.390625 1.1875l2.734375 0zm2.4281006 4.046875l2.5 -3.5625l-2.390625 -3.34375l2.234375 0l1.21875 1.890625l1.28125 -1.890625l2.15625 0l-2.34375 3.265625l2.546875 3.640625l-2.234375 0l-1.40625 -2.140625l-1.421875 2.140625l-2.140625 0zm8.287476 -7.84375l0 -1.703125l1.828125 0l0 1.703125l-1.828125 0zm0 7.84375l0 -6.90625l1.828125 0l0 6.90625l-1.828125 0zm6.8748474 -6.90625l0 1.453125l-1.25 0l0 2.78125q0 0.84375 0.03125 0.984375q0.046875 0.140625 0.171875 0.234375q0.125 0.09375 0.3125 0.09375q0.25 0 0.734375 -0.171875l0.15625 1.421875q-0.640625 0.265625 -1.453125 0.265625q-0.484375 0 -0.890625 -0.15625q-0.390625 -0.171875 -0.578125 -0.4375q-0.1875 -0.265625 -0.265625 -0.71875q-0.046875 -0.3125 -0.046875 -1.28125l0 -3.015625l-0.84375 0l0 -1.453125l0.84375 0l0 -1.375l1.828125 -1.078125l0 2.453125l1.25 0z" fill-rule="nonzero"/><path fill="#000000" fill-opacity="0.0" d="m115.76156 75.2774l39.129875 0l0 0.06299591l34.948868 0" fill-rule="evenodd"/><path stroke="#666666" stroke-width="2.0" stroke-linejoin="round" stroke-linecap="butt" d="m115.76155 75.2774l39.129883 0l0 0.06299591l22.948868 0" fill-rule="evenodd"/><path fill="#666666" stroke="#666666" stroke-width="2.0" stroke-linecap="butt" d="m177.8403 78.64386l9.076202 -3.3034668l-9.076202 -3.3034668z" fill-rule="evenodd"/><path fill="#000000" fill-opacity="0.0" d="m226.35474 94.7962l-67.55905 43.62204" fill-rule="evenodd"/><path stroke="#cc0000" stroke-width="2.0" stroke-linejoin="round" stroke-linecap="butt" d="m226.35474 94.796196l-57.477905 37.112785" fill-rule="evenodd"/><path fill="#cc0000" stroke="#cc0000" stroke-width="2.0" stroke-linecap="butt" d="m167.0849 129.13376l-5.832947 7.6985016l9.416809 -2.148056z" fill-rule="evenodd"/><path fill="#000000" fill-opacity="0.0" d="m69.05803 36.496956l0 11.043785l0.06298828 0l0 11.034958" fill-rule="evenodd"/><path stroke="#666666" stroke-width="2.0" stroke-linejoin="round" stroke-linecap="butt" d="m69.05802 36.496956l0 10.078903" fill-rule="evenodd"/><path fill="#666666" stroke="#666666" stroke-width="2.0" stroke-linecap="butt" d="m65.75461 46.5932l3.351059 9.058731l3.2557755 -9.0934105z" fill-rule="evenodd"/><path fill="#000000" fill-opacity="0.0" d="m203.3931 182.1307l41.85826 -2.2992096" fill-rule="evenodd"/><path stroke="#85200c" stroke-width="2.0" stroke-linejoin="round" stroke-linecap="butt" stroke-dasharray="8.0,6.0" d="m203.39308 182.1307l29.876343 -1.6410675" fill-rule="evenodd"/><path fill="#85200c" stroke="#85200c" stroke-width="2.0" stroke-linecap="butt" d="m233.45059 183.78813l8.881363 -3.79628l-9.243713 -2.800705z" fill-rule="evenodd"/><path fill="#000000" fill-opacity="0.0" d="m190.33052 213.03183l96.28346 44.6929" fill-rule="evenodd"/><path stroke="#cc0000" stroke-width="2.0" stroke-linejoin="round" stroke-linecap="butt" d="m190.33052 213.03183l85.39894 39.64052" fill-rule="evenodd"/><path fill="#cc0000" stroke="#cc0000" stroke-width="2.0" stroke-linecap="butt" d="m274.33856 255.66873l9.623413 0.8249817l-6.841675 -6.8177643z" fill-rule="evenodd"/><path fill="#000000" fill-opacity="0.0" d="m158.77303 289.04065l0 43.77954l86.48819 0" fill-rule="evenodd"/><path stroke="#85200c" stroke-width="2.0" stroke-linejoin="round" stroke-linecap="butt" stroke-dasharray="8.0,6.0" d="m158.77301 289.04065l0 43.77954l74.488205 0" fill-rule="evenodd"/><path fill="#85200c" stroke="#85200c" stroke-width="2.0" stroke-linecap="butt" d="m233.26122 336.12366l9.076202 -3.3034668l-9.076202 -3.3034668z" fill-rule="evenodd"/><path fill="#000000" fill-opacity="0.0" d="m114.19624 182.1307l-61.889763 0l0 73.5748" fill-rule="evenodd"/><path stroke="#85200c" stroke-width="2.0" stroke-linejoin="round" stroke-linecap="butt" stroke-dasharray="8.0,6.0" d="m114.19624 182.1307l-61.889763 0l0 61.5748" fill-rule="evenodd"/><path fill="#85200c" stroke="#85200c" stroke-width="2.0" stroke-linecap="butt" d="m49.003017 243.7055l3.303463 9.076187l3.3034668 -9.076187z" fill-rule="evenodd"/><path fill="#f1c232" d="m114.19624 182.1307l0 0c0 -24.13527 19.967392 -43.70079 44.59842 -43.70079l0 0c11.828247 0 23.172028 4.604187 31.535858 12.799667c8.363831 8.195496 13.062576 19.310959 13.062576 30.901123l0 0c0 24.135284 -19.967392 43.70079 -44.598434 43.70079l0 0c-24.631027 0 -44.59842 -19.565506 -44.59842 -43.70079z" fill-rule="evenodd"/><path stroke="#000000" stroke-width="2.0" stroke-linejoin="round" stroke-linecap="butt" d="m114.19624 182.1307l0 0c0 -24.13527 19.967392 -43.70079 44.59842 -43.70079l0 0c11.828247 0 23.172028 4.604187 31.535858 12.799667c8.363831 8.195496 13.062576 19.310959 13.062576 30.901123l0 0c0 24.135284 -19.967392 43.70079 -44.598434 43.70079l0 0c-24.631027 0 -44.59842 -19.565506 -44.59842 -43.70079z" fill-rule="evenodd"/><path fill="#000000" d="m136.57132 184.96196l1.828125 -0.28125q0.125 0.53125 0.484375 0.8125q0.359375 0.265625 1.0 0.265625q0.703125 0 1.0625 -0.25q0.25 -0.1875 0.25 -0.484375q0 -0.21875 -0.140625 -0.359375q-0.125 -0.125 -0.609375 -0.234375q-2.203125 -0.484375 -2.796875 -0.890625q-0.828125 -0.5625 -0.828125 -1.5625q0 -0.890625 0.703125 -1.5q0.71875 -0.609375 2.203125 -0.609375q1.421875 0 2.109375 0.46875q0.703125 0.453125 0.953125 1.359375l-1.71875 0.3125q-0.109375 -0.40625 -0.421875 -0.609375q-0.3125 -0.21875 -0.890625 -0.21875q-0.71875 0 -1.03125 0.203125q-0.203125 0.140625 -0.203125 0.359375q0 0.203125 0.1875 0.34375q0.234375 0.171875 1.6875 0.515625q1.46875 0.328125 2.0625 0.8125q0.5625 0.484375 0.5625 1.359375q0 0.953125 -0.796875 1.640625q-0.78125 0.671875 -2.34375 0.671875q-1.40625 0 -2.234375 -0.5625q-0.828125 -0.578125 -1.078125 -1.5625zm9.349976 1.96875l-2.1875 -6.90625l1.765625 0l1.296875 4.53125l1.203125 -4.53125l1.75 0l1.15625 4.53125l1.328125 -4.53125l1.796875 0l-2.21875 6.90625l-1.75 0l-1.203125 -4.4375l-1.171875 4.4375l-1.765625 0zm9.070175 -7.84375l0 -1.703125l1.828125 0l0 1.703125l-1.828125 0zm0 7.84375l0 -6.90625l1.828125 0l0 6.90625l-1.828125 0zm6.8748627 -6.90625l0 1.453125l-1.25 0l0 2.78125q0 0.84375 0.03125 0.984375q0.046875 0.140625 0.171875 0.234375q0.125 0.09375 0.3125 0.09375q0.25 0 0.734375 -0.171875l0.15625 1.421875q-0.640625 0.265625 -1.453125 0.265625q-0.484375 0 -0.890625 -0.15625q-0.390625 -0.171875 -0.578125 -0.4375q-0.1875 -0.265625 -0.265625 -0.71875q-0.046875 -0.3125 -0.046875 -1.28125l0 -3.015625l-0.84375 0l0 -1.453125l0.84375 0l0 -1.375l1.828125 -1.078125l0 2.453125l1.25 0zm7.2977448 2.03125l-1.796875 0.328125q-0.09375 -0.53125 -0.421875 -0.796875q-0.328125 -0.28125 -0.828125 -0.28125q-0.6875 0 -1.09375 0.46875q-0.40625 0.46875 -0.40625 1.578125q0 1.234375 0.40625 1.75q0.421875 0.5 1.109375 0.5q0.53125 0 0.859375 -0.296875q0.328125 -0.296875 0.46875 -1.03125l1.796875 0.3125q-0.28125 1.234375 -1.078125 1.875q-0.796875 0.625 -2.125 0.625q-1.515625 0 -2.421875 -0.953125q-0.90625 -0.953125 -0.90625 -2.65625q0 -1.703125 0.90625 -2.65625q0.90625 -0.953125 2.453125 -0.953125q1.265625 0 2.0 0.546875q0.75 0.53125 1.078125 1.640625zm3.2093506 -4.671875l0 3.515625q0.875 -1.03125 2.109375 -1.03125q0.640625 0 1.140625 0.234375q0.515625 0.234375 0.765625 0.59375q0.25 0.359375 0.34375 0.8125q0.109375 0.4375 0.109375 1.375l0 4.046875l-1.828125 0l0 -3.65625q0 -1.078125 -0.109375 -1.375q-0.109375 -0.296875 -0.375 -0.46875q-0.265625 -0.171875 -0.65625 -0.171875q-0.453125 0 -0.8125 0.234375q-0.359375 0.21875 -0.53125 0.671875q-0.15625 0.4375 -0.15625 1.296875l0 3.46875l-1.828125 0l0 -9.546875l1.828125 0z" fill-rule="nonzero"/><path fill="#f1c232" d="m18.171007 91.970314l8.346457 -33.385826l85.07087 0l8.346451 33.385826z" fill-rule="evenodd"/><path stroke="#000000" stroke-width="2.0" stroke-linejoin="round" stroke-linecap="butt" d="m18.171007 91.970314l8.346457 -33.385826l85.07087 0l8.346451 33.385826z" fill-rule="evenodd"/><path fill="#000000" d="m52.09238 74.08389l1.6875 0l0 0.9375q0.90625 -1.09375 2.15625 -1.09375q0.671875 0 1.15625 0.28125q0.484375 0.265625 0.796875 0.8125q0.453125 -0.546875 0.984375 -0.8125q0.53125 -0.28125 1.125 -0.28125q0.765625 0 1.28125 0.3125q0.53125 0.296875 0.796875 0.90625q0.1875 0.4375 0.1875 1.421875l0 4.421875l-1.828125 0l0 -3.953125q0 -1.03125 -0.1875 -1.328125q-0.25 -0.390625 -0.78125 -0.390625q-0.390625 0 -0.734375 0.234375q-0.328125 0.234375 -0.484375 0.6875q-0.140625 0.453125 -0.140625 1.4375l0 3.3125l-1.828125 0l0 -3.78125q0 -1.015625 -0.109375 -1.296875q-0.09375 -0.296875 -0.296875 -0.4375q-0.203125 -0.15625 -0.546875 -0.15625q-0.421875 0 -0.765625 0.234375q-0.34375 0.21875 -0.484375 0.65625q-0.140625 0.421875 -0.140625 1.421875l0 3.359375l-1.84375 0l0 -6.90625zm15.9914665 4.703125l1.828125 0.3125q-0.34375 1.0 -1.109375 1.53125q-0.765625 0.515625 -1.890625 0.515625q-1.8125 0 -2.671875 -1.171875q-0.6874962 -0.953125 -0.6874962 -2.390625q0 -1.71875 0.8906212 -2.6875q0.90625 -0.96875 2.28125 -0.96875q1.546875 0 2.4375 1.015625q0.890625 1.015625 0.84375 3.125l-4.578125 0q0.015625 0.8125 0.4375 1.265625q0.421875 0.453125 1.0625 0.453125q0.421875 0 0.71875 -0.234375q0.296875 -0.234375 0.4375 -0.765625zm0.109375 -1.84375q-0.015625 -0.796875 -0.40625 -1.203125q-0.390625 -0.421875 -0.953125 -0.421875q-0.59375 0 -0.984375 0.4375q-0.390625 0.4375 -0.390625 1.1875l2.734375 0zm9.599976 4.046875l-1.828125 0l0 -3.53125q0 -1.109375 -0.125 -1.4375q-0.109375 -0.328125 -0.375 -0.515625q-0.265625 -0.1875 -0.640625 -0.1875q-0.46875 0 -0.859375 0.265625q-0.375 0.265625 -0.515625 0.703125q-0.140625 0.421875 -0.140625 1.578125l0 3.125l-1.828125 0l0 -6.90625l1.703125 0l0 1.015625q0.90625 -1.171875 2.28125 -1.171875q0.609375 0 1.109375 0.21875q0.5 0.21875 0.75 0.5625q0.265625 0.328125 0.359375 0.765625q0.109375 0.421875 0.109375 1.21875l0 4.296875zm6.3913574 0l0 -1.03125q-0.375 0.546875 -1.0 0.875q-0.609375 0.3125 -1.28125 0.3125q-0.703125 0 -1.265625 -0.296875q-0.546875 -0.3125 -0.796875 -0.859375q-0.234375 -0.5625 -0.234375 -1.53125l0 -4.375l1.828125 0l0 3.171875q0 1.453125 0.09375 1.78125q0.109375 0.328125 0.375 0.53125q0.265625 0.1875 0.671875 0.1875q0.46875 0 0.84375 -0.25q0.375 -0.265625 0.5 -0.640625q0.140625 -0.390625 0.140625 -1.875l0 -2.90625l1.828125 0l0 6.90625l-1.703125 0z" fill-rule="nonzero"/><path fill="#999999" d="m343.7006 163.17522c-1.4143066 0 -2.4958496 0.51490784 -3.2445984 1.5447235l0 -1.3328705l-1.5551147 0l0 9.374268l1.7279053 0l0 -5.1196594c0 -1.20047 0.26663208 -2.0154877 0.79992676 -2.4450684c0.5354614 -0.4295807 1.1711426 -0.64437866 1.9071045 -0.64437866c0.4607544 0 0.8618164 0.09611511 1.203125 0.28834534c0.34344482 0.1902771 0.58236694 0.44625854 0.71673584 0.7679596c0.13439941 0.31973267 0.20159912 0.8032532 0.20159912 1.4505615l0 5.70224l1.7279053 0l0 -5.764023c0 -0.73558044 -0.03201294 -1.2505035 -0.0960083 -1.5447235c-0.102386475 -0.453125 -0.2815857 -0.8444519 -0.53756714 -1.173996c-0.25598145 -0.32954407 -0.64208984 -0.5953369 -1.1583252 -0.79737854c-0.5140991 -0.20399475 -1.0783386 -0.30599976 -1.692688 -0.30599976z" fill-rule="evenodd"/><path fill="#999999" d="m353.97195 164.49045c0.85113525 0 1.562561 0.2991333 2.1342468 0.8973999c0.57385254 0.5963135 0.8607483 1.4741211 0.8607483 2.6333923c0 1.2298889 -0.28475952 2.1449585 -0.8543396 2.7451935c-0.56954956 0.600235 -1.2831116 0.9003601 -2.1406555 0.9003601c-0.86395264 0 -1.580719 -0.29815674 -2.1502686 -0.8944702c-0.5695801 -0.59828186 -0.8543396 -1.4976501 -0.8543396 -2.69812c0 -1.20047 0.28475952 -2.0978851 0.8543396 -2.6922302c0.56954956 -0.59436035 1.2863159 -0.89152527 2.1502686 -0.89152527zm0 -1.3152313c-1.2607422 0 -2.3294678 0.3471985 -3.2062073 1.0415955c-1.04953 0.83561707 -1.5743103 2.1214142 -1.5743103 3.8573914c0 1.5829773 0.43945312 2.7952118 1.3183289 3.6367188c0.88101196 0.84150696 2.0350647 1.2622681 3.4621887 1.2622681c0.88952637 0 1.7097473 -0.19125366 2.4606323 -0.573761c0.75302124 -0.38250732 1.3258057 -0.9189911 1.7182922 -1.6094513c0.39465332 -0.6924286 0.59198 -1.6418304 0.59198 -2.848175c0 -1.4888306 -0.4447937 -2.6549683 -1.3343201 -3.4984436c-0.8895569 -0.84542847 -2.0350647 -1.2681427 -3.4365845 -1.2681427z" fill-rule="evenodd"/><path fill="#999999" d="m116.43429 97.39945l-6.039757 10.038017l1.4668503 0.8126297l2.3936539 -3.9782257c0.34332275 -0.5706024 0.693985 -0.97280884 1.0519714 -1.2066193c0.35799408 -0.23381042 0.7848053 -0.3392105 1.2804337 -0.31620026c0.49835968 0.022483826 0.9648514 0.1541214 1.3994751 0.39489746c0.58130646 0.32204437 0.9457321 0.7115936 1.0932693 1.168663c0.15026093 0.45654297 0.040000916 0.9929428 -0.33078766 1.6091919l-2.7726822 4.608177l1.4668503 0.8126297l2.7726822 -4.608177c0.4284668 -0.7121048 0.65299225 -1.3120041 0.673584 -1.7996826c0.022392273 -0.48667908 -0.13910675 -0.9666977 -0.48449707 -1.4400482c-0.3444748 -0.47486877 -0.83724976 -0.88988495 -1.4783173 -1.2450333c-1.0430908 -0.5778656 -2.1074066 -0.7231903 -3.1929398 -0.43595123l2.1670609 -3.6016388z" fill-rule="evenodd"/><path fill="#999999" d="m127.11023 108.13433c0.7442932 0.41233826 1.2072296 0.9852905 1.388794 1.7188721c0.12020874 0.47438812 0.028900146 1.0354843 -0.2739563 1.683281l-4.832451 -2.6771622c0.43066406 -0.6074219 0.9890671 -0.97366333 1.6752014 -1.0987244c0.6879425 -0.124053955 1.3687439 5.264282E-4 2.0424118 0.37373352zm0.5934448 -1.0224152c-1.1952133 -0.6621475 -2.370926 -0.8630905 -3.5271454 -0.60284424c-1.1562195 0.26024628 -2.1023712 1.0020523 -2.8384628 2.2254257c-0.71136475 1.1822815 -0.89401245 2.3064957 -0.5479355 3.372635c0.34880066 1.0656204 1.1561203 1.9490662 2.421959 2.6503372c1.0050659 0.55680084 1.9544449 0.8088684 2.848137 0.75619507c0.893692 -0.05267334 1.6839066 -0.38482666 2.3706512 -0.99645996l-1.42099 -0.99720764c-0.53585815 0.39698792 -1.0653458 0.6088257 -1.5884628 0.6355133c-0.52311707 0.026687622 -1.0535965 -0.108947754 -1.5914459 -0.40691376c-0.72255707 -0.40029144 -1.197876 -0.94664 -1.4259644 -1.6390381c-0.22808075 -0.69239044 -0.12895966 -1.4530563 0.29736328 -2.2819977l6.4541397 3.5755768c0.093322754 -0.1430664 0.16195679 -0.2511139 0.2059021 -0.3241501c0.7223511 -1.2005463 0.9159546 -2.3349304 0.58078 -3.4031372c-0.33517456 -1.0682144 -1.0813446 -1.9228592 -2.2385254 -2.5639343z" fill-rule="evenodd"/><path fill="#999999" d="m134.9655 107.66569l-6.039749 10.038017l1.4668427 0.8126297l6.0397644 -10.038017z" fill-rule="evenodd"/><path fill="#999999" d="m140.26738 115.35944c0.63020325 0.34913635 1.0329742 0.87963104 1.2082977 1.5914841c0.17713928 0.7128601 -0.013076782 1.5326233 -0.57063293 2.4592743c-0.585022 0.9723053 -1.2498627 1.5615845 -1.9945068 1.7678452c-0.74191284 0.20573425 -1.4388428 0.12801361 -2.0907745 -0.2331543c-0.6410675 -0.35514832 -1.0524902 -0.8813019 -1.2342377 -1.5784607c-0.18174744 -0.69716644 0.008895874 -1.5136337 0.5719452 -2.4494247c0.5630493 -0.9357834 1.2319183 -1.5157242 2.0066223 -1.7398224c0.77742004 -0.22460938 1.4785156 -0.1638565 2.1032867 0.1822586zm0.71943665 -0.8887024c-0.56500244 -0.3130188 -1.101654 -0.48656464 -1.6099396 -0.5206375c-0.50737 -0.035598755 -1.0298462 0.044197083 -1.5674286 0.23937988l0.56855774 -0.9449158l-1.3364716 -0.7403946l-6.052109 10.058556l1.4668427 0.8126373l2.1299896 -3.5400162c0.09060669 0.40320587 0.27748108 0.79888916 0.5606537 1.1870499c0.28497314 0.38916016 0.6719513 0.71917725 1.1608887 0.9900589c0.6682434 0.37019348 1.3999939 0.56459045 2.1952667 0.5831833c0.7980194 0.018074036 1.5344543 -0.18257904 2.2093506 -0.6019592c0.6776123 -0.419899 1.2402649 -1.0018768 1.6879578 -1.7459412c0.41748047 -0.6938553 0.65711975 -1.4111633 0.71891785 -2.1519318c0.062698364 -0.7422867 -0.092315674 -1.4297104 -0.46505737 -2.0622559c-0.37275696 -0.6325531 -0.92855835 -1.1534882 -1.6674194 -1.5628128z" fill-rule="evenodd"/><path fill="#000000" fill-opacity="0.0" d="m158.79466 138.42992l-89.73228 -46.456688" fill-rule="evenodd"/><path stroke="#000000" stroke-width="2.0" stroke-linejoin="round" stroke-linecap="butt" stroke-dasharray="8.0,6.0" d="m158.79468 138.42992l-79.07578 -40.939545" fill-rule="evenodd"/><path fill="#000000" stroke="#000000" stroke-width="2.0" stroke-linecap="butt" d="m81.2377 94.55676l-9.57885 -1.2392807l6.5412292 7.1065063z" fill-rule="evenodd"/><path fill="#666666" d="m224.5611 214.44218c-0.39848328 -0.17831421 -0.7973175 -0.29379272 -1.1964874 -0.34640503c-0.3968048 -0.053482056 -0.7320099 -0.05130005 -1.0056152 0.0065460205c-0.36172485 0.07077026 -0.6914215 0.2159729 -0.9891052 0.4356079c-0.2952881 0.21875 -0.5253601 0.49772644 -0.69018555 0.8368988c-0.18107605 0.37261963 -0.2522583 0.7556305 -0.21354675 1.1490631c0.04109192 0.3925476 0.20231628 0.75839233 0.4836731 1.0975647c0.28372192 0.3382721 0.84284973 0.8395386 1.6773834 1.5037842c0.6198578 0.49258423 0.9907532 0.8359375 1.1126709 1.0300751c0.17320251 0.2810669 0.18899536 0.5673065 0.04737854 0.8587036c-0.15785217 0.32484436 -0.43963623 0.5438385 -0.84532166 0.6569824c-0.40490723 0.11154175 -0.9050293 0.034103394 -1.5003662 -0.2322998c-0.5905304 -0.26426697 -0.98446655 -0.6062927 -1.1818085 -1.026123c-0.19573975 -0.4190979 -0.20542908 -0.90034485 -0.029037476 -1.4437256l-1.3793793 -0.3730011c-0.24830627 0.87179565 -0.2122345 1.6294708 0.10823059 2.273056c0.322052 0.64430237 0.9799957 1.1888123 1.9738159 1.6335297c0.6001282 0.2685547 1.1881409 0.40568542 1.7640533 0.4113617c0.5766754 0.0041046143 1.0827332 -0.12712097 1.518158 -0.39367676c0.43780518 -0.26742554 0.7611847 -0.6161041 0.97010803 -1.046051c0.21359253 -0.4394989 0.28912354 -0.8535309 0.22660828 -1.242096c-0.0625 -0.38856506 -0.23786926 -0.7413635 -0.5260773 -1.0583801c-0.2858429 -0.3179016 -0.82806396 -0.80384827 -1.6266785 -1.4578247c-0.55015564 -0.45558167 -0.8784485 -0.73625183 -0.9848633 -0.84202576c-0.18153381 -0.19174194 -0.29145813 -0.38052368 -0.3297577 -0.5663147c-0.040618896 -0.18103027 -0.02029419 -0.35514832 0.060958862 -0.52233887c0.12768555 -0.2627411 0.36634827 -0.43511963 0.71598816 -0.5171051c0.3496399 -0.08200073 0.82211304 0.01020813 1.41745 0.27661133c0.5041046 0.22558594 0.84039307 0.5098419 1.0088654 0.85276794c0.17007446 0.3436432 0.18873596 0.72421265 0.05596924 1.1417236l1.351059 0.39520264c0.15750122 -0.52856445 0.19941711 -0.98768616 0.12576294 -1.3773651c-0.072891235 -0.39126587 -0.2947998 -0.7745819 -0.66571045 -1.1499481c-0.36932373 -0.3746338 -0.85406494 -0.6962433 -1.4541931 -0.964798z" fill-rule="evenodd"/><path fill="#666666" d="m232.06107 219.08952c0.65774536 0.29434204 1.0723419 0.78230286 1.2437897 1.4638824c0.11332703 0.4403839 0.04324341 0.9935303 -0.2102356 1.6594543l-4.270523 -1.9110413c0.36590576 -0.64468384 0.847641 -1.0746918 1.445221 -1.2900085c0.59916687 -0.21459961 1.1964264 -0.18869019 1.791748 0.07771301zm0.50097656 -1.0669708c-1.0562286 -0.47265625 -2.0874023 -0.5037079 -3.0935364 -0.093185425c-1.006134 0.41053772 -1.820282 1.2559357 -2.442459 2.5361938c-0.6012726 1.2372894 -0.7414093 2.3455353 -0.4203949 3.3247528c0.32339478 0.9783325 1.0444031 1.717804 2.1630554 2.2183838c0.88819885 0.39746094 1.7224274 0.50904846 2.5026855 0.33477783c0.7802582 -0.17428589 1.4652252 -0.6034851 2.0548706 -1.2876282l-1.2593994 -0.7642212c-0.46148682 0.4564972 -0.92063904 0.73376465 -1.3774261 0.8317871c-0.45680237 0.09802246 -0.92285156 0.04067993 -1.3981476 -0.17201233c-0.63853455 -0.28575134 -1.0635071 -0.74635315 -1.2749023 -1.3818359c-0.21138 -0.6354828 -0.13795471 -1.3819733 0.2203064 -2.2394562l5.703644 2.552353c0.0790863 -0.15072632 0.13720703 -0.2642975 0.17434692 -0.34072876c0.6105652 -1.2563934 0.7601013 -2.375946 0.44857788 -3.358673c-0.31152344 -0.9827118 -0.9785919 -1.7028809 -2.0012207 -2.1605072z" fill-rule="evenodd"/><path fill="#666666" d="m238.91922 217.55223l-5.105057 10.504898l1.2962799 0.5800781l5.105057 -10.504898z" fill-rule="evenodd"/><path fill="#666666" d="m243.54037 224.22644c0.65774536 0.29434204 1.0723419 0.78230286 1.2437897 1.4638824c0.11331177 0.4403839 0.04324341 0.9935303 -0.2102356 1.6594391l-4.2705383 -1.911026c0.36590576 -0.64468384 0.84765625 -1.0746918 1.445221 -1.2900085c0.5991821 -0.21459961 1.1964264 -0.18869019 1.7917633 0.07771301zm0.50097656 -1.0669708c-1.0562286 -0.47265625 -2.0874176 -0.50372314 -3.0935364 -0.093185425c-1.006134 0.41052246 -1.820282 1.2559357 -2.442459 2.5361938c-0.6012726 1.2372742 -0.7414093 2.34552 -0.4203949 3.3247375c0.32339478 0.9783478 1.0444031 1.717804 2.1630554 2.218399c0.8881836 0.39746094 1.7224121 0.50904846 2.5026855 0.33477783c0.7802582 -0.17428589 1.46521 -0.6034851 2.0548706 -1.2876282l-1.2593994 -0.7642212c-0.46150208 0.4564972 -0.92063904 0.73376465 -1.3774414 0.8317871c-0.4567871 0.09802246 -0.9228363 0.04067993 -1.3981323 -0.17201233c-0.6385498 -0.28575134 -1.0635071 -0.74635315 -1.2749023 -1.3818512c-0.21139526 -0.6354828 -0.13795471 -1.381958 0.2203064 -2.239441l5.703644 2.5523376c0.0790863 -0.15071106 0.13720703 -0.26428223 0.17434692 -0.34072876c0.6105652 -1.2563782 0.76008606 -2.3759308 0.44857788 -3.3586578c-0.31152344 -0.9827118 -0.9785919 -1.7028809 -2.0012207 -2.1605072z" fill-rule="evenodd"/><path fill="#666666" d="m252.19353 226.80753c-0.65774536 -0.29434204 -1.3417358 -0.41236877 -2.0519867 -0.35411072c-0.7078705 0.057403564 -1.3483734 0.33299255 -1.9215088 0.8267822c-0.5731354 0.49378967 -1.0593567 1.1515045 -1.458664 1.973175c-0.61753845 1.2707214 -0.77423096 2.3889923 -0.47009277 3.3548431c0.3065033 0.9649658 0.98306274 1.6816406 2.0296936 2.149994c0.8353882 0.37382507 1.6594849 0.44210815 2.4723053 0.2048645c0.81518555 -0.23814392 1.5048218 -0.7631531 2.0688934 -1.5750732l-1.1945801 -0.73521423c-0.40463257 0.60409546 -0.852829 0.9851227 -1.3446045 1.1430969c-0.4917755 0.15797424 -0.99212646 0.12309265 -1.5010376 -0.104644775c-0.633728 -0.2835846 -1.0348511 -0.74516296 -1.2033539 -1.3847198c-0.16848755 -0.6395416 -0.004333496 -1.4704742 0.49247742 -2.4927826c0.48983765 -1.0079803 1.0517883 -1.6531372 1.6858368 -1.9355011c0.63482666 -0.28393555 1.278717 -0.27981567 1.9316559 0.012359619c0.4320984 0.19335938 0.7374878 0.48706055 0.91619873 0.88108826c0.18029785 0.39476013 0.20626831 0.8745575 0.07788086 1.4394226l1.3543091 0.37049866c0.22492981 -0.8357239 0.17471313 -1.5803528 -0.15065002 -2.2338867c-0.32460022 -0.65512085 -0.90219116 -1.1685181 -1.7327728 -1.5401917z" fill-rule="evenodd"/><path fill="#666666" d="m259.21356 226.9217l-1.6651611 0.19703674l-0.91586304 1.8845825l-0.9506073 -0.42539978l-0.4875183 1.0032043l0.9506073 0.42538452l-2.1276855 4.378235c-0.37608337 0.77389526 -0.5701294 1.3054962 -0.58213806 1.5948029c-0.011230469 0.28771973 0.076812744 0.56362915 0.26409912 0.8277283c0.18728638 0.26411438 0.5161743 0.5014343 0.9866791 0.71199036c0.28807068 0.12890625 0.6331177 0.23678589 1.035141 0.32362366l0.36643982 -1.2231293c-0.25149536 -0.07183838 -0.44926453 -0.13998413 -0.5933075 -0.20443726c-0.19203186 -0.0859375 -0.3249817 -0.18322754 -0.39881897 -0.29188538c-0.072250366 -0.107925415 -0.106033325 -0.224823 -0.101364136 -0.35069275c0.0062561035 -0.12515259 0.09877014 -0.37164307 0.27752686 -0.7394867l2.1625214 -4.44989l1.3034668 0.5832977l0.4875183 -1.0031891l-1.3034668 -0.5832977l1.2919312 -2.6584778z" fill-rule="evenodd"/><path fill="#666666" d="m263.21506 233.03073c0.65774536 0.29434204 1.0723572 0.78230286 1.2438049 1.4638824c0.11331177 0.4403839 0.04324341 0.9935303 -0.2102356 1.6594543l-4.2705383 -1.9110413c0.36590576 -0.64468384 0.84765625 -1.0746765 1.445221 -1.2899933c0.5991821 -0.21459961 1.1964417 -0.18870544 1.791748 0.077697754zm0.50097656 -1.0669556c-1.0562134 -0.47265625 -2.0874023 -0.50372314 -3.0935364 -0.09320068c-1.006134 0.41053772 -1.820282 1.2559357 -2.4424438 2.536209c-0.60128784 1.2372742 -0.74142456 2.34552 -0.42041016 3.3247375c0.32339478 0.9783325 1.0444031 1.717804 2.1630554 2.2183838c0.8882141 0.39746094 1.7224426 0.5090637 2.5026855 0.33477783c0.78027344 -0.17427063 1.4652405 -0.6034851 2.0548706 -1.2876282l-1.2593994 -0.7642212c-0.46148682 0.45651245 -0.9206238 0.73376465 -1.3774109 0.8317871c-0.45681763 0.09802246 -0.92285156 0.04067993 -1.3981628 -0.17201233c-0.6385193 -0.28573608 -1.0635071 -0.74635315 -1.2749023 -1.3818359c-0.21136475 -0.6354828 -0.13793945 -1.3819733 0.2203064 -2.2394562l5.703644 2.552353c0.07910156 -0.15072632 0.13720703 -0.2642975 0.17437744 -0.34072876c0.61053467 -1.2563934 0.7600708 -2.375946 0.44854736 -3.3586578c-0.31152344 -0.98272705 -0.97857666 -1.7028961 -2.0012207 -2.1605072z" fill-rule="evenodd"/><path fill="#666666" d="m271.1477 236.58926c0.59054565 0.26426697 0.9690552 0.7302551 1.1355591 1.397995c0.16647339 0.66773987 -0.003326416 1.5223083 -0.50942993 2.5637207c-0.45965576 0.9458771 -1.0001221 1.5608978 -1.6214294 1.8450928c-0.618927 0.28329468 -1.2116699 0.2982025 -1.7781982 0.044677734c-0.56170654 -0.25135803 -0.9317932 -0.7106781 -1.110199 -1.3779297c-0.17840576 -0.6672516 -0.030822754 -1.4881439 0.44277954 -2.462677c0.48983765 -1.0079803 1.0413513 -1.6597443 1.654541 -1.9553223c0.6148071 -0.29484558 1.2102661 -0.31336975 1.786377 -0.05555725zm3.829773 -2.901184l-1.831665 3.7691498c-0.07476807 -0.41149902 -0.24536133 -0.7941437 -0.5118103 -1.1479492c-0.26565552 -0.3554077 -0.62893677 -0.63623047 -1.0898438 -0.8424835c-0.62893677 -0.28144836 -1.2779541 -0.37123108 -1.947052 -0.2693329c-0.6690979 0.101882935 -1.2814026 0.40560913 -1.8368835 0.9111786c-0.5546875 0.5039673 -1.0166016 1.1357422 -1.3857422 1.8953094c-0.37838745 0.77867126 -0.5734558 1.5308228 -0.5851135 2.256485c-0.009307861 0.72476196 0.16003418 1.368576 0.5080261 1.931427c0.34960938 0.5635681 0.82928467 0.981781 1.4390259 1.2546234c0.9410095 0.4210968 1.8373413 0.3627472 2.6890564 -0.17504883l-0.46661377 0.9602051l1.2026672 0.5381775l5.1050415 -10.504898z" fill-rule="evenodd"/><path fill="#f1c232" d="m366.48294 180.98163l53.165344 -33.590546l53.165375 33.590546l-53.165375 33.590546z" fill-rule="evenodd"/><path stroke="#000000" stroke-width="2.0" stroke-linejoin="round" stroke-linecap="butt" d="m366.48294 180.98163l53.165344 -33.590546l53.165375 33.590546l-53.165375 33.590546z" fill-rule="evenodd"/><path fill="#434343" d="m404.16507 170.87538l1.6875 0l0 0.9375q0.90625 -1.09375 2.15625 -1.09375q0.671875 0 1.15625 0.28125q0.484375 0.265625 0.796875 0.8125q0.453125 -0.546875 0.984375 -0.8125q0.53125 -0.28125 1.125 -0.28125q0.765625 0 1.28125 0.3125q0.53125 0.296875 0.796875 0.90625q0.1875 0.4375 0.1875 1.421875l0 4.421875l-1.828125 0l0 -3.953125q0 -1.03125 -0.1875 -1.328125q-0.25 -0.390625 -0.78125 -0.390625q-0.390625 0 -0.734375 0.234375q-0.328125 0.234375 -0.484375 0.6875q-0.140625 0.453125 -0.140625 1.4375l0 3.3125l-1.828125 0l0 -3.78125q0 -1.015625 -0.109375 -1.296875q-0.09375 -0.296875 -0.296875 -0.4375q-0.203125 -0.15625 -0.546875 -0.15625q-0.421875 0 -0.765625 0.234375q-0.34375 0.21875 -0.484375 0.65625q-0.140625 0.421875 -0.140625 1.421875l0 3.359375l-1.84375 0l0 -6.90625zm11.56958 3.359375q0 -0.921875 0.453125 -1.765625q0.453125 -0.859375 1.265625 -1.296875q0.828125 -0.453125 1.84375 -0.453125q1.5625 0 2.5625 1.015625q1.015625 1.015625 1.015625 2.578125q0 1.5625 -1.015625 2.59375q-1.015625 1.03125 -2.546875 1.03125q-0.953125 0 -1.8125 -0.421875q-0.859375 -0.4375 -1.3125 -1.265625q-0.453125 -0.828125 -0.453125 -2.015625zm1.875 0.09375q0 1.03125 0.484375 1.578125q0.5 0.546875 1.203125 0.546875q0.71875 0 1.203125 -0.546875q0.484375 -0.546875 0.484375 -1.59375q0 -1.015625 -0.484375 -1.5625q-0.484375 -0.546875 -1.203125 -0.546875q-0.703125 0 -1.203125 0.546875q-0.484375 0.546875 -0.484375 1.578125zm8.438232 3.453125l-1.828125 0l0 -6.90625l1.703125 0l0 0.984375q0.4375 -0.703125 0.78125 -0.921875q0.34375 -0.21875 0.796875 -0.21875q0.625 0 1.203125 0.34375l-0.5625 1.59375q-0.46875 -0.296875 -0.859375 -0.296875q-0.390625 0 -0.65625 0.21875q-0.265625 0.203125 -0.421875 0.765625q-0.15625 0.546875 -0.15625 2.296875l0 2.140625zm7.436798 -2.203125l1.828125 0.3125q-0.34375 1.0 -1.109375 1.53125q-0.765625 0.515625 -1.890625 0.515625q-1.8125 0 -2.671875 -1.171875q-0.6875 -0.953125 -0.6875 -2.390625q0 -1.71875 0.890625 -2.6875q0.90625 -0.96875 2.28125 -0.96875q1.546875 0 2.4375 1.015625q0.890625 1.015625 0.84375 3.125l-4.578125 0q0.015625 0.8125 0.4375 1.265625q0.421875 0.453125 1.0625 0.453125q0.421875 0 0.71875 -0.234375q0.296875 -0.234375 0.4375 -0.765625zm0.109375 -1.84375q-0.015625 -0.796875 -0.40625 -1.203125q-0.390625 -0.421875 -0.953125 -0.421875q-0.59375 0 -0.984375 0.4375q-0.390625 0.4375 -0.390625 1.1875l2.734375 0z" fill-rule="nonzero"/><path fill="#434343" d="m420.46823 191.3285l-1.65625 0q-0.015625 -0.359375 -0.015625 -0.4375q0 -0.8125 0.265625 -1.328125q0.265625 -0.53125 1.0625 -1.171875q0.8125 -0.65625 0.96875 -0.859375q0.234375 -0.3125 0.234375 -0.703125q0 -0.53125 -0.421875 -0.90625q-0.421875 -0.390625 -1.15625 -0.390625q-0.6875 0 -1.15625 0.40625q-0.46875 0.390625 -0.640625 1.203125l-1.6875 -0.203125q0.078125 -1.171875 1.0 -1.984375q0.921875 -0.8125 2.40625 -0.8125q1.578125 0 2.5 0.828125q0.9375 0.828125 0.9375 1.921875q0 0.59375 -0.34375 1.140625q-0.328125 0.53125 -1.453125 1.46875q-0.578125 0.484375 -0.71875 0.78125q-0.140625 0.28125 -0.125 1.046875zm-1.65625 2.453125l0 -1.828125l1.828125 0l0 1.828125l-1.828125 0z" fill-rule="nonzero"/><path fill="#000000" fill-opacity="0.0" d="m419.6483 147.39108l0 -72.12599l-156.78738 0" fill-rule="evenodd"/><path stroke="#cc0000" stroke-width="2.0" stroke-linejoin="round" stroke-linecap="butt" d="m419.6483 147.39108l0 -72.12599l-144.78738 0" fill-rule="evenodd"/><path fill="#cc0000" stroke="#cc0000" stroke-width="2.0" stroke-linecap="butt" d="m274.8609 71.961624l-9.076202 3.3034668l9.076202 3.3034668z" fill-rule="evenodd"/><path fill="#000000" fill-opacity="0.0" d="m366.48294 180.98163l-20.926636 0l0 -1.1338654l-20.93164 0" fill-rule="evenodd"/><path stroke="#cc0000" stroke-width="2.0" stroke-linejoin="round" stroke-linecap="butt" stroke-dasharray="8.0,6.0" d="m366.48294 180.98163l-20.926636 0l0 -1.1338654l-8.931641 0" fill-rule="evenodd"/><path fill="#cc0000" stroke="#cc0000" stroke-width="2.0" stroke-linecap="butt" d="m336.62466 176.54431l-9.076202 3.3034515l9.076202 3.3034668z" fill-rule="evenodd"/><path fill="#ff0000" d="m297.05167 57.558914c-0.33374023 0 -0.6401062 0.09487915 -0.9190979 0.28463364c-0.2772522 0.1897583 -0.5800781 0.58245087 -0.9085083 1.1780815l0 -1.2729607l-1.2872925 0l0 8.396778l1.4302979 0l0 -4.3960533c0 -0.60089874 0.07946777 -1.1543579 0.23840332 -1.6603775c0.10595703 -0.33207703 0.28341675 -0.5912361 0.53237915 -0.7774811c0.24899292 -0.18799973 0.52975464 -0.2820015 0.8423157 -0.2820015c0.34960938 0 0.69924927 0.10278702 1.0488892 0.30835724l0.49264526 -1.3203964c-0.49795532 -0.30572128 -0.9879761 -0.45858002 -1.4700317 -0.45858002z" fill-rule="evenodd"/><path fill="#ff0000" d="m302.85236 58.729084c0.72576904 0 1.3164368 0.27409363 1.7720032 0.8222847c0.29666138 0.35316086 0.47677612 0.88290024 0.54034424 1.5892181l-4.7120667 0c0.047668457 -0.73267365 0.29489136 -1.3177605 0.7416382 -1.7552567c0.44851685 -0.4374962 1.0012207 -0.6562462 1.658081 -0.6562462zm-0.01586914 -1.1701698c-1.1654358 0 -2.113678 0.3900566 -2.8447266 1.1701698c-0.7310486 0.78011703 -1.0965881 1.8764915 -1.0965881 3.289135c0 1.3652 0.3611145 2.4264374 1.0833435 3.1837082c0.7239685 0.75551605 1.703125 1.1332779 2.9374084 1.1332779c0.9800415 0 1.7852478 -0.23719788 2.4156494 -0.7115936c0.6304016 -0.47439575 1.0621338 -1.141182 1.295227 -2.0003624l-1.4779968 -0.18185043c-0.2171936 0.60089874 -0.51119995 1.0383987 -0.88201904 1.3124924c-0.3708191 0.27409363 -0.8184509 0.41114044 -1.3428955 0.41114044c-0.7045593 0 -1.292572 -0.24510193 -1.7640686 -0.7353134c-0.47146606 -0.49020386 -0.7336731 -1.1965256 -0.7866516 -2.1189575l6.2933655 0c0.005279541 -0.16867447 0.00793457 -0.29517746 0.00793457 -0.3795166c0 -1.3862839 -0.35757446 -2.4615784 -1.0727234 -3.2258797c-0.7151489 -0.7643013 -1.6369019 -1.14645 -2.7652588 -1.14645z" fill-rule="evenodd"/><path fill="#ff0000" d="m312.03815 58.67374c0.61450195 0 1.1424866 0.26618576 1.5839233 0.7985611c0.4432373 0.53237534 0.66482544 1.3335762 0.66482544 2.4035988c0 1.1227303 -0.2268982 1.9520416 -0.6807251 2.4879303c-0.45202637 0.5341339 -0.99591064 0.80120087 -1.6315918 0.80120087c-0.6251221 0 -1.1575012 -0.2582779 -1.5971985 -0.7748413c-0.43966675 -0.5165634 -0.6595154 -1.3151283 -0.6595154 -2.395691c0 -1.0805664 0.23397827 -1.9037285 0.7019043 -2.4694862c0.46969604 -0.5675163 1.0091553 -0.8512726 1.6183777 -0.8512726zm0.1350708 -1.1148262c-0.55093384 0 -1.0197449 0.107177734 -1.4064636 0.3215332c-0.38671875 0.2125969 -0.7337036 0.53237534 -1.0409546 0.9593277l0 -1.0911064l-1.3031616 0l0 11.61475l1.4302979 0l0 -4.0876923c0.24368286 0.30571747 0.5544739 0.5587311 0.93237305 0.7590256c0.37963867 0.20030212 0.8078308 0.3004532 1.2846069 0.3004532c0.6515808 0 1.2722778 -0.18273163 1.8620605 -0.54818726c0.59155273 -0.36721802 1.0418396 -0.89432526 1.3508606 -1.5813141c0.3107605 -0.6887512 0.466156 -1.462719 0.466156 -2.3218994c0 -0.80119705 -0.14038086 -1.5373878 -0.42114258 -2.2085686c-0.28076172 -0.6729355 -0.69662476 -1.1938896 -1.2475586 -1.5628624c-0.55093384 -0.36897278 -1.186615 -0.55345917 -1.907074 -0.55345917z" fill-rule="evenodd"/><path fill="#ff0000" d="m320.95374 58.729084c0.72576904 0 1.3164062 0.27409363 1.7720032 0.8222847c0.29666138 0.35316086 0.47677612 0.88290024 0.54034424 1.5892181l-4.712097 0c0.047698975 -0.73267365 0.29489136 -1.3177605 0.7416687 -1.7552567c0.44851685 -0.4374962 1.0011902 -0.6562462 1.658081 -0.6562462zm-0.015899658 -1.1701698c-1.1654358 0 -2.113678 0.3900566 -2.8447266 1.1701698c-0.7310486 0.78011703 -1.0965576 1.8764915 -1.0965576 3.289135c0 1.3652 0.3611145 2.4264374 1.083313 3.1837082c0.723999 0.75551605 1.7031555 1.1332779 2.937439 1.1332779c0.9800415 0 1.7852478 -0.23719788 2.4156494 -0.7115936c0.6304016 -0.47439575 1.0621338 -1.141182 1.295227 -2.0003624l-1.4779968 -0.18185043c-0.2171936 0.60089874 -0.51119995 1.0383987 -0.88201904 1.3124924c-0.3708191 0.27409363 -0.8184509 0.41114044 -1.3428955 0.41114044c-0.7045593 0 -1.2926025 -0.24510193 -1.7640686 -0.7353134c-0.47146606 -0.49020386 -0.7337036 -1.1965256 -0.7866516 -2.1189575l6.2933655 0c0.005279541 -0.16867447 0.00793457 -0.29517746 0.00793457 -0.3795166c0 -1.3862839 -0.35757446 -2.4615784 -1.0727234 -3.2258797c-0.71517944 -0.7643013 -1.6369324 -1.14645 -2.7652893 -1.14645z" fill-rule="evenodd"/><path fill="#ff0000" d="m331.9115 61.931244l0 0.5218353c0 0.6272545 -0.076812744 1.1016464 -0.23043823 1.4231834c-0.20129395 0.41640854 -0.5164795 0.7449684 -0.94558716 0.98568344c-0.42907715 0.23895264 -0.9190979 0.35842896 -1.4700317 0.35842896c-0.5562439 0 -0.9791565 -0.12650299 -1.2687378 -0.3795166c-0.2878418 -0.25300598 -0.4317627 -0.5692673 -0.4317627 -0.9487839c0 -0.24773788 0.066223145 -0.47263718 0.19866943 -0.67469406c0.13244629 -0.20381546 0.3204956 -0.35843277 0.56417847 -0.46385193c0.24368286 -0.10542297 0.6595154 -0.20029831 1.2475586 -0.28463745c1.0382996 -0.14758682 1.8170166 -0.3268051 2.3361511 -0.53764725zm-1.8196716 -4.3723297c-0.7257385 0 -1.3640747 0.09926987 -1.9150085 0.29781342c-0.55093384 0.19678497 -0.9720764 0.47878647 -1.2634583 0.8460007c-0.29135132 0.36545944 -0.50061035 0.8460045 -0.6277466 1.4416313l1.398529 0.1897583c0.15362549 -0.59562683 0.3902588 -1.0102844 0.7098694 -1.2439651c0.32138062 -0.2354393 0.8184509 -0.35316086 1.4912109 -0.35316086c0.720459 0 1.2634583 0.1607666 1.6289673 0.4822998c0.27017212 0.23719788 0.40527344 0.64570236 0.40527344 1.2255173c0 0.052711487 -0.0026550293 0.17658234 -0.007965088 0.37160873c-0.5456238 0.1897583 -1.395874 0.35316086 -2.5507202 0.49020767c-0.566803 0.06852341 -0.9906006 0.13968277 -1.2713928 0.21347809c-0.3814087 0.10541916 -0.7248535 0.26091766 -1.0303345 0.46648788c-0.30371094 0.20557022 -0.5500488 0.47878647 -0.73898315 0.81964874c-0.18719482 0.3391037 -0.28079224 0.71422577 -0.28079224 1.1253662c0 0.701046 0.24899292 1.2773476 0.74694824 1.7289009c0.49795532 0.44979858 1.2104797 0.6746979 2.1375122 0.6746979c0.56155396 0 1.0868835 -0.09224701 1.5759888 -0.2767334c0.49090576 -0.18448639 1.0012207 -0.5007477 1.5309753 -0.9487839c0.042388916 0.3953247 0.13772583 0.7405777 0.28607178 1.035759l1.493866 0c-0.18011475 -0.3215332 -0.3010559 -0.6571274 -0.36288452 -1.0067673c-0.060028076 -0.3514099 -0.09005737 -1.1886253 -0.09005737 -2.5116577l0 -1.8975754c0 -0.6325264 -0.023834229 -1.0700226 -0.071502686 -1.3124886c-0.084747314 -0.39006042 -0.23309326 -0.712471 -0.4449768 -0.9672394c-0.21191406 -0.25652313 -0.54299927 -0.46912003 -0.99328613 -0.6377945c-0.45028687 -0.16867447 -1.0356445 -0.2530098 -1.7561035 -0.2530098z" fill-rule="evenodd"/><path fill="#ff0000" d="m337.25928 54.815334l-1.4223633 0.85390854l0 2.0794258l-1.0488892 0l0 1.1069221l1.0488892 0l0 4.8309135c0 0.85390854 0.058288574 1.4143944 0.17480469 1.6814613c0.11654663 0.2653122 0.3178711 0.47966766 0.60391235 0.6430664c0.28607178 0.16340637 0.6886902 0.24510193 1.2078247 0.24510193c0.31784058 0 0.67807007 -0.042167664 1.0806885 -0.12650299l-0.206604 -1.2571411c-0.25958252 0.036895752 -0.46884155 0.055343628 -0.6277466 0.055343628c-0.21191406 0 -0.37524414 -0.03426361 -0.49002075 -0.1027832c-0.11300659 -0.06852722 -0.1951294 -0.1607666 -0.24633789 -0.2767334c-0.049438477 -0.11595917 -0.074157715 -0.37687683 -0.074157715 -0.7827492l0 -4.909977l1.4382629 0l0 -1.1069221l-1.4382629 0l0 -2.9333344z" fill-rule="evenodd"/><path fill="#999999" d="m401.64548 128.28925l9.787384 -3.9294052c0.17782593 0.071502686 0.31274414 0.12350464 0.40475464 0.15600586c0.65615845 0.24700928 1.0670166 0.425766 1.232605 0.53627014c0.22076416 0.14950562 0.39248657 0.34126282 0.5151367 0.5752716c0.12265015 0.23400879 0.18395996 0.5460205 0.18395996 0.93603516c0 0.28601074 -0.049072266 0.6207733 -0.14718628 1.0042877l0 0l1.554596 -0.19500732c0.1348877 -0.41601562 0.20236206 -0.7930298 0.20236206 -1.1310425c0 -0.559021 -0.1277771 -1.0400391 -0.38327026 -1.4430542c-0.253479 -0.40301514 -0.6531067 -0.76052856 -1.1989136 -1.0725479c-0.40472412 -0.23400879 -1.1436768 -0.5622711 -2.216858 -0.984787l-9.93457 -3.939148l0 1.7550659l5.6939697 2.2133331c0.7236328 0.2795105 1.4656677 0.52001953 2.2260742 0.7215271c-0.79107666 0.2210083 -1.5453491 0.47127533 -2.262848 0.7507858l-5.657196 2.154831z" fill-rule="evenodd"/><path fill="#999999" d="m402.78613 113.03965c0 -0.89053345 0.31887817 -1.6153107 0.95666504 -2.1743317c0.41085815 -0.36401367 1.0271606 -0.585022 1.8489075 -0.6630249l0 5.781975c-0.8523865 -0.058502197 -1.5331116 -0.36184692 -2.0420837 -0.9100342c-0.5090027 -0.55036163 -0.76348877 -1.2285538 -0.76348877 -2.034584zm-1.3614197 0.019500732c0 1.4300537 0.4537964 2.593605 1.3614197 3.4906387c0.9075928 0.8970337 2.183136 1.3455505 3.8266296 1.3455505c1.5883179 0 2.8229675 -0.44309998 3.7039795 -1.3292999c0.8789978 -0.8883667 1.3184814 -2.0898361 1.3184814 -3.604393c0 -1.2025452 -0.27593994 -2.1905823 -0.82788086 -2.9641113c-0.5519104 -0.77352905 -1.3276672 -1.303299 -2.32724 -1.5893097l-0.21157837 1.8135681c0.6990967 0.26651 1.2080994 0.62727356 1.5269775 1.0822906c0.31887817 0.4550171 0.47833252 1.0042877 0.47833252 1.6478119c0 0.8645325 -0.28515625 1.5860596 -0.85546875 2.164589c-0.5703125 0.5785217 -1.3920593 0.9002838 -2.4652405 0.96528625l0 -7.7222977c-0.19625854 -0.006500244 -0.3434143 -0.009750366 -0.44155884 -0.009750366c-1.6128235 0 -2.8638306 0.43876648 -3.7530518 1.3162994c-0.8891907 0.87753296 -1.3338013 2.0085754 -1.3338013 3.3931274z" fill-rule="evenodd"/><path fill="#999999" d="m401.4247 102.80176c0 0.53952026 0.06643677 1.0454559 0.1993103 1.517807c0.13082886 0.47018433 0.29129028 0.8417816 0.4814148 1.1147919c0.24526978 0.36401367 0.5539551 0.6521988 0.9259949 0.8645401c0.3699646 0.21017456 0.77267456 0.31526184 1.2080688 0.31526184c0.47833252 0 0.915802 -0.12783813 1.3123474 -0.3835144c0.39453125 -0.25784302 0.70422363 -0.6348572 0.92907715 -1.1310501c0.22280884 -0.49835205 0.4875183 -1.3910522 0.7941284 -2.6781006c0.22692871 -0.9555359 0.41394043 -1.5535583 0.5611267 -1.7940674c0.21463013 -0.34451294 0.5090027 -0.5167694 0.88308716 -0.5167694c0.4169922 0 0.7808533 0.19500732 1.0915527 0.585022c0.3086853 0.39001465 0.4630127 0.9880371 0.4630127 1.7940674c0 0.79953 -0.17477417 1.4224701 -0.5243225 1.8688202c-0.34954834 0.44418335 -0.852417 0.71502686 -1.5085754 0.8125305l0.25756836 1.7355728c1.036377 -0.19500732 1.8182373 -0.64460754 2.345642 -1.3488083c0.52737427 -0.70635986 0.79107666 -1.7323151 0.79107666 -3.0778656c0 -0.8125305 -0.13287354 -1.5405579 -0.3985901 -2.184082c-0.26779175 -0.64352417 -0.644928 -1.135376 -1.1314392 -1.4755554c-0.4885559 -0.3423462 -1.0087891 -0.5135193 -1.5606995 -0.5135193c-0.564209 0 -1.0364075 0.13975525 -1.4165955 0.41926575c-0.3802185 0.2795105 -0.6694641 0.66519165 -0.8677368 1.1570435c-0.2003479 0.48968506 -0.45687866 1.3553009 -0.7696228 2.5968475c-0.22076416 0.8580322 -0.3618164 1.3748016 -0.42315674 1.5503082c-0.11651611 0.30551147 -0.26367188 0.5297699 -0.44152832 0.67277527c-0.1716919 0.14300537 -0.36486816 0.21450806 -0.5795288 0.21450806c-0.33728027 0 -0.6316223 -0.17225647 -0.88305664 -0.5167694c-0.25143433 -0.34451294 -0.37713623 -0.91978455 -0.37713623 -1.7258148c0 -0.68252563 0.14105225 -1.2101288 0.42312622 -1.5828094c0.2821045 -0.3748474 0.67456055 -0.6012726 1.1774292 -0.6792755l-0.22076416 -1.7160645c-0.63165283 0.11050415 -1.1355286 0.31201172 -1.5116577 0.6045227c-0.3781433 0.292511 -0.6776123 0.7464447 -0.89837646 1.3618011c-0.22079468 0.6131897 -0.33117676 1.3260498 -0.33117676 2.1385803z" fill-rule="evenodd"/><path fill="#666666" d="m362.6954 317.47214c0.7045593 0 1.293457 0.26794434 1.7666931 0.803833c0.4750061 0.53414917 0.7124939 1.320404 0.7124939 2.3587952c0 1.101654 -0.23571777 1.9212952 -0.70718384 2.4589539c-0.47149658 0.5376282 -1.0621643 0.8064575 -1.7720032 0.8064575c-0.7151489 0 -1.3084717 -0.26705933 -1.7799377 -0.8012085c-0.47149658 -0.5358887 -0.70721436 -1.3414612 -0.70721436 -2.416748c0 -1.0753174 0.23571777 -1.8791504 0.70721436 -2.4115295c0.47146606 -0.53234863 1.0647888 -0.79855347 1.7799377 -0.79855347zm0 -1.1780701c-1.0436096 0 -1.9282837 0.31097412 -2.6540222 0.9329834c-0.8687744 0.7484741 -1.3031921 1.9002075 -1.3031921 3.4551697c0 1.4179077 0.36376953 2.5037231 1.0912781 3.2575073c0.72927856 0.75375366 1.6846008 1.1306152 2.8659363 1.1306152c0.7363281 0 1.4152832 -0.17129517 2.0368652 -0.513916c0.62332153 -0.34262085 1.0974426 -0.82315063 1.4223633 -1.4416199c0.32666016 -0.62023926 0.49002075 -1.4706421 0.49002075 -2.5512085c0 -1.3335571 -0.36819458 -2.3781128 -1.1045227 -3.1336365c-0.73635864 -0.7572632 -1.6846008 -1.1358948 -2.8447266 -1.1358948z" fill-rule="evenodd"/><path fill="#666666" d="m371.9368 317.4089c0.61450195 0 1.1424866 0.26617432 1.5839233 0.79855347c0.4432373 0.53237915 0.66482544 1.3335571 0.66482544 2.403595c0 1.1227417 -0.2268982 1.9520264 -0.6807251 2.487915c-0.45202637 0.53414917 -0.99591064 0.8012085 -1.6315918 0.8012085c-0.6251221 0 -1.1575012 -0.25827026 -1.5971985 -0.7748413c-0.43966675 -0.51657104 -0.6595154 -1.3151245 -0.6595154 -2.395691c0 -1.0805664 0.23397827 -1.903717 0.7019043 -2.4694824c0.46969604 -0.5675049 1.0091553 -0.8512573 1.6183777 -0.8512573zm0.1350708 -1.1148376c-0.55093384 0 -1.0197449 0.107177734 -1.4064636 0.3215332c-0.38671875 0.21258545 -0.7337036 0.53237915 -1.0409546 0.95932007l0 -1.091095l-1.3031616 0l0 11.614746l1.4302979 0l0 -4.0877075c0.24368286 0.3057251 0.5544739 0.55874634 0.93237305 0.7590332c0.37963867 0.20031738 0.8078308 0.30044556 1.2846069 0.30044556c0.6515808 0 1.2722778 -0.18270874 1.8620605 -0.54818726c0.59155273 -0.36721802 1.0418396 -0.8943176 1.3508606 -1.5812988c0.3107605 -0.6887512 0.466156 -1.4627075 0.466156 -2.3218994c0 -0.8012085 -0.14038086 -1.537384 -0.42114258 -2.2085571c-0.28076172 -0.6729431 -0.69662476 -1.1939087 -1.2475586 -1.5628662c-0.55093384 -0.36898804 -1.186615 -0.5534668 -1.907074 -0.5534668z" fill-rule="evenodd"/><path fill="#666666" d="m379.05655 313.55048l-1.4223633 0.85391235l0 2.0794373l-1.0488892 0l0 1.1069031l1.0488892 0l0 4.8309326c0 0.85391235 0.058288574 1.4143982 0.1748352 1.6814575c0.11654663 0.26531982 0.31784058 0.4796753 0.60391235 0.6430664c0.28604126 0.16339111 0.68865967 0.24511719 1.2077942 0.24511719c0.31784058 0 0.67807007 -0.042175293 1.0806885 -0.12652588l-0.206604 -1.2571411c-0.25958252 0.036895752 -0.46881104 0.055358887 -0.6277466 0.055358887c-0.21188354 0 -0.37524414 -0.03427124 -0.49002075 -0.1027832c-0.11300659 -0.06854248 -0.19509888 -0.1607666 -0.24630737 -0.2767334c-0.049468994 -0.1159668 -0.07418823 -0.3768921 -0.07418823 -0.78274536l0 -4.9100037l1.4382629 0l0 -1.1069031l-1.4382629 0l0 -2.9333496z" fill-rule="evenodd"/><path fill="#666666" d="m381.90128 313.28958l0 1.6366577l1.4303284 0l0 -1.6366577zm0 3.1942444l0 8.396759l1.4303284 0l0 -8.396759z" fill-rule="evenodd"/><path fill="#666666" d="m388.93365 317.47214c0.7045593 0 1.293457 0.26794434 1.7666931 0.803833c0.4750061 0.53414917 0.7124939 1.320404 0.7124939 2.3587952c0 1.101654 -0.23571777 1.9212952 -0.70721436 2.4589539c-0.47146606 0.5376282 -1.0621338 0.8064575 -1.7719727 0.8064575c-0.7151489 0 -1.3084717 -0.26705933 -1.7799377 -0.8012085c-0.47149658 -0.5358887 -0.70721436 -1.3414612 -0.70721436 -2.416748c0 -1.0753174 0.23571777 -1.8791504 0.70721436 -2.4115295c0.47146606 -0.53234863 1.0647888 -0.79855347 1.7799377 -0.79855347zm0 -1.1780701c-1.0436096 0 -1.9282837 0.31097412 -2.6540222 0.9329834c-0.8687744 0.7484741 -1.3031921 1.9002075 -1.3031921 3.4551697c0 1.4179077 0.36376953 2.5037231 1.0912781 3.2575073c0.72927856 0.75375366 1.6846008 1.1306152 2.8659363 1.1306152c0.7363281 0 1.4152832 -0.17129517 2.0368652 -0.513916c0.62332153 -0.34262085 1.0974426 -0.82315063 1.4223633 -1.4416199c0.32666016 -0.62023926 0.49002075 -1.4706421 0.49002075 -2.5512085c0 -1.3335571 -0.36819458 -2.3781128 -1.1045227 -3.1336365c-0.73635864 -0.7572632 -1.6846008 -1.1358948 -2.8447266 -1.1358948z" fill-rule="evenodd"/><path fill="#666666" d="m398.53262 316.29407c-1.1707458 0 -2.0660095 0.46121216 -2.6858215 1.3836365l0 -1.1938782l-1.287262 0l0 8.396759l1.4302979 0l0 -4.585785c0 -1.0753174 0.22073364 -1.8053589 0.6622009 -2.1901245c0.4432068 -0.38479614 0.9694214 -0.57717896 1.5786133 -0.57717896c0.3814392 0 0.7134094 0.08609009 0.99594116 0.25827026c0.28430176 0.17044067 0.48205566 0.39971924 0.59329224 0.6878662c0.11126709 0.28640747 0.16687012 0.71951294 0.16687012 1.2993164l0 5.1076355l1.4303284 0l0 -5.162964c0 -0.658905 -0.026489258 -1.1201172 -0.07946777 -1.383667c-0.084747314 -0.40585327 -0.23309326 -0.7563782 -0.4449768 -1.0515747c-0.21191406 -0.29516602 -0.53152466 -0.53323364 -0.9588318 -0.7142334c-0.42556763 -0.18270874 -0.89263916 -0.27407837 -1.4011841 -0.27407837z" fill-rule="evenodd"/><path fill="#666666" d="m167.83125 118.85102c0.61013794 -0.33805847 1.2597351 -0.3885727 1.9487915 -0.15154266c0.68966675 0.23466492 1.3050385 0.80163574 1.8461304 1.7009201c0.57403564 0.9540634 0.7969818 1.7770157 0.6688385 2.4688568c-0.12812805 0.6918411 -0.49957275 1.2080612 -1.1143036 1.5486603c-0.6193085 0.34313965 -1.2722778 0.39653015 -1.9588928 0.16017914c-0.6875305 -0.23787689 -1.3114319 -0.8224411 -1.8717499 -1.7536774c-0.56030273 -0.93123627 -0.77500916 -1.7404938 -0.64411926 -2.427765c0.13087463 -0.68727875 0.50598145 -1.2024841 1.1253052 -1.5456314zm-0.61387634 -1.0202484c-0.9037323 0.5007324 -1.5078125 1.1945419 -1.8122101 2.081421c-0.3623352 1.0650711 -0.13838196 2.2709274 0.67185974 3.6175766c0.7388458 1.227951 1.6196442 1.993782 2.6424255 2.297493c1.0243225 0.30285645 2.047989 0.17087555 3.0710144 -0.3959427c0.6376648 -0.35330963 1.1363678 -0.827446 1.496109 -1.4224014c0.3612671 -0.5958023 0.52145386 -1.2394562 0.4805603 -1.9309692c-0.040283203 -0.6938782 -0.34194946 -1.5087204 -0.9049988 -2.4445267c-0.69488525 -1.1549149 -1.5580139 -1.8828735 -2.5893555 -2.1838608c-1.0322571 -0.30251312 -2.0507355 -0.17544556 -3.0554047 0.38121033z" fill-rule="evenodd"/><path fill="#666666" d="m175.80124 114.36208c0.5321655 -0.2948532 1.1280823 -0.31765747 1.787796 -0.06842041c0.66122437 0.2483902 1.2706146 0.83592224 1.8281708 1.7625961c0.585022 0.9723282 0.82066345 1.799408 0.7068939 2.4812546c-0.11314392 0.6794739 -0.4449768 1.1717224 -0.99546814 1.476738c-0.54133606 0.2999344 -1.1369629 0.3317032 -1.7868958 0.095314026c-0.64993286 -0.23639679 -1.256424 -0.8224869 -1.8194733 -1.7582932c-0.5630493 -0.9358063 -0.7893677 -1.7609482 -0.6789398 -2.475441c0.11105347 -0.7168579 0.4303589 -1.2214432 0.95791626 -1.5137482zm-0.46391296 -1.0302963c-0.47711182 0.2643509 -0.82725525 0.5821152 -1.0504456 0.9533081c-0.2241211 0.36966705 -0.3579712 0.8130951 -0.4015808 1.3302765l-0.5685425 -0.94493866l-1.12854 0.6252823l6.052124 10.058746l1.2386322 -0.6862793l-2.1299744 -3.5400772c0.3703308 0.1478424 0.77130127 0.21783447 1.2029114 0.20998383c0.433136 -0.00868988 0.8561554 -0.12741852 1.2690277 -0.3561859c0.56427 -0.31263733 1.0065613 -0.76869965 1.3268738 -1.368187c0.3209381 -0.60186005 0.43621826 -1.2743988 0.3458557 -2.0176315c-0.0897522 -0.74559784 -0.35849 -1.4904327 -0.80618286 -2.2345123c-0.41748047 -0.6938629 -0.9226532 -1.2640686 -1.5155334 -1.7106171c-0.5937805 -0.4480667 -1.225357 -0.69970703 -1.8947296 -0.7548981c-0.6693573 -0.05519867 -1.3159943 0.09004974 -1.9398956 0.43572998z" fill-rule="evenodd"/><path fill="#666666" d="m179.95639 107.6044l-0.7868042 1.4219894l1.0835266 1.8008499l-0.9083252 0.503273l0.5767822 0.9586258l0.9083252 -0.503273l2.5172577 4.183731c0.4449463 0.7395096 0.7874603 1.1969528 1.0275574 1.3723221c0.23916626 0.17384338 0.52519226 0.26289368 0.85806274 0.26715088c0.33287048 0.004257202 0.7240906 -0.11816406 1.1736755 -0.3672638c0.2752533 -0.15250397 0.5652313 -0.3618698 0.8699341 -0.6280823l-0.8339844 -0.98960114c-0.20555115 0.15650177 -0.3771515 0.27288055 -0.5147705 0.34913635c-0.1835022 0.10166931 -0.34280396 0.15037537 -0.47790527 0.1461029c-0.13357544 -0.0051193237 -0.25274658 -0.04560852 -0.3575287 -0.12146759c-0.10324097 -0.0766983 -0.26060486 -0.290802 -0.47209167 -0.64229584l-2.5584564 -4.252205l1.2455292 -0.690094l-0.5767975 -0.9586334l-1.2455139 0.6901016l-1.5284729 -2.5403671z" fill-rule="evenodd"/><path fill="#666666" d="m182.28394 106.0135l0.852829 1.4173965l1.2386322 -0.6862869l-0.8528137 -1.4173965zm1.664444 2.766327l4.3753204 7.2718735l1.2386322 -0.6862793l-4.3753204 -7.271881z" fill-rule="evenodd"/><path fill="#666666" d="m190.55331 106.261505c0.6101532 -0.33805847 1.2597504 -0.3885727 1.9488068 -0.15154266c0.68966675 0.23466492 1.3050385 0.80163574 1.8461151 1.7009201c0.57403564 0.9540634 0.7969971 1.7770157 0.66885376 2.4688492c-0.12814331 0.6918411 -0.49957275 1.2080612 -1.1143036 1.5486603c-0.61932373 0.34314728 -1.2722778 0.39653778 -1.9588928 0.16017914c-0.6875305 -0.23787689 -1.3114471 -0.8224335 -1.8717499 -1.7536697c-0.56030273 -0.9312439 -0.77500916 -1.7404938 -0.6441345 -2.4277725c0.1308899 -0.6872711 0.5059967 -1.2024841 1.1253052 -1.5456238zm-0.6138611 -1.020256c-0.90374756 0.5007324 -1.5078125 1.1945419 -1.8122101 2.0814285c-0.3623352 1.0650711 -0.13838196 2.2709274 0.67185974 3.617569c0.73883057 1.2279587 1.6196442 1.9937897 2.6424255 2.2975006c1.0243073 0.30285645 2.047989 0.17087555 3.0709991 -0.3959427c0.6376648 -0.35330963 1.136383 -0.827446 1.4961243 -1.4224014c0.3612671 -0.5958023 0.52145386 -1.2394638 0.4805603 -1.9309692c-0.040283203 -0.6938858 -0.34196472 -1.5087204 -0.90501404 -2.4445267c-0.69488525 -1.1549225 -1.5579987 -1.8828735 -2.5893402 -2.1838684c-1.0322723 -0.30251312 -2.0507355 -0.17544556 -3.0554047 0.38121033z" fill-rule="evenodd"/><path fill="#666666" d="m198.25208 100.63551c-1.013855 0.56173706 -1.5488129 1.3907318 -1.6049042 2.4869766l-0.62210083 -1.0339508l-1.1147766 0.6176605l4.3753204 7.271881l1.2386322 -0.6862869l-2.3895264 -3.9714584c-0.56030273 -0.9312439 -0.7495575 -1.6693878 -0.5677643 -2.2144394c0.18331909 -0.54590607 0.5387573 -0.96500397 1.06633 -1.2573166c0.330307 -0.18300629 0.66264343 -0.2677307 0.9970398 -0.25417328c0.3350067 0.011184692 0.6257477 0.114868164 0.87223816 0.31103516c0.24555969 0.19464874 0.5194092 0.54304504 0.8215332 1.0451813l2.6614532 4.4233856l1.2386322 -0.6862869l-2.6902924 -4.4713135c-0.34332275 -0.57061005 -0.60658264 -0.9573364 -0.78977966 -1.1601562c-0.28489685 -0.31082916 -0.59599304 -0.54322815 -0.93330383 -0.69718933c-0.3373108 -0.15396118 -0.7381439 -0.20678711 -1.2025146 -0.15847778c-0.46374512 0.045944214 -0.91581726 0.19091797 -1.3562164 0.4349289z" fill-rule="evenodd"/></g></svg>