<svg version="1.1" viewBox="0.0 0.0 280.0 80.0" fill="none" stroke="none" stroke-linecap="square" stroke-miterlimit="10" xmlns:xlink="http://www.w3.org/1999/xlink" xmlns="http://www.w3.org/2000/svg"><clipPath id="p.0"><path d="m0 0l280.0 0l0 80.0l-280.0 0l0 -80.0z" clip-rule="nonzero"/></clipPath><g clip-path="url(#p.0)"><path fill="#000000" fill-opacity="0.0" d="m0 0l280.0 0l0 80.0l-280.0 0z" fill-rule="evenodd"/><path fill="#434343" d="m94.82827 15.666564c-1.4690933 0 -2.7944412 0.2461853 -3.976036 0.73855495c-1.1784363 0.4923687 -2.0835876 1.1772671 -2.715454 2.0546951c-0.6287155 0.8742714 -0.94306946 1.8700562 -0.94306946 2.9873562c0 2.1493816 1.1752777 3.858471 3.5258331 5.127268c0.86250305 0.46396446 2.0330353 0.9358177 3.511612 1.4155617c1.4785767 0.4765892 2.502205 0.9310837 3.0708847 1.3634853c0.5686798 0.429245 0.85302734 1.0462837 0.85302734 1.85112c0 0.738554 -0.28434753 1.3145599 -0.85302734 1.7280273c-0.5686798 0.41030502 -1.3600998 0.61545944 -2.3742523 0.61545944c-2.7296753 0 -4.094513 -1.1409721 -4.094513 -3.4229126l-4.2793274 0c0 1.3350773 0.34278107 2.5091896 1.0283661 3.522335c0.68873596 1.0131454 1.687088 1.8116646 2.9950562 2.395565c1.3079681 0.5807419 2.75811 0.87111664 4.350418 0.87111664c2.293686 0 4.11821 -0.508152 5.473572 -1.5244522c1.3553619 -1.0194588 2.0330353 -2.423973 2.0330353 -4.213545c0 -1.6096687 -0.5544586 -2.954216 -1.6633911 -4.033642c-1.1089325 -1.0794258 -2.876587 -1.9836807 -5.3029633 -2.7127647c-1.3174515 -0.3976841 -2.3158035 -0.82377243 -2.9950638 -1.2782669c-0.6761017 -0.45449448 -1.0141449 -1.0178795 -1.0141449 -1.6901531c0 -0.71961594 0.28907776 -1.2987804 0.8672409 -1.7374954c0.5781555 -0.44186974 1.3885269 -0.66280556 2.4311142 -0.66280556c1.0804977 0 1.9193039 0.26354408 2.5164185 0.79063225c0.59711456 0.5239315 0.89567566 1.2593288 0.89567566 2.206194l4.265114 0c0 -1.2403927 -0.32067108 -2.3482227 -0.9620209 -3.323494c-0.6381836 -0.9752693 -1.5354385 -1.7296047 -2.6917572 -2.2630043c-1.1563263 -0.5365572 -2.4737701 -0.8048353 -3.9523468 -0.8048353z" fill-rule="evenodd"/><path fill="#434343" d="m113.38153 29.642279l0 2.6417522c-0.24642944 0.45449448 -0.6255493 0.8174553 -1.1373596 1.0888939c-0.51181793 0.2682762 -1.071022 0.40241623 -1.6776123 0.40241623c-0.62555695 0 -1.1184082 -0.16570282 -1.4785767 -0.49710464c-0.36016846 -0.33140182 -0.54024506 -0.752758 -0.54024506 -1.2640648l0.014213562 -0.24144936c0.13269043 -1.4202957 1.2274094 -2.1304436 3.2841415 -2.1304436zm-2.06147 -8.663807c-1.2510986 0 -2.3789902 0.21620178 -3.3836594 0.64860153c-1.0046768 0.4292469 -1.7818756 1.0226135 -2.3315964 1.7801056c-0.5497284 0.75749016 -0.8245926 1.5812626 -0.8245926 2.4713154l4.108734 0c0 -0.5775871 0.19587708 -1.0320816 0.5876312 -1.3634853c0.39492035 -0.33140182 0.9383316 -0.49710274 1.6302261 -0.49710274c0.7866745 0 1.3616791 0.21304321 1.7250061 0.63913345c0.36647797 0.42608833 0.54972076 0.9942074 0.54972076 1.7043552l0 0.8805828l-1.8908691 0c-2.2842026 0.009468079 -4.0313263 0.44976044 -5.241356 1.3208752c-1.206871 0.87111473 -1.8103027 2.1209755 -1.8103027 3.7495823c0 1.3256111 0.49443817 2.423973 1.4833145 3.295086c0.9920349 0.87111664 2.2415543 1.306675 3.7485657 1.306675c1.592308 0 2.8860626 -0.55391693 3.881256 -1.661747c0.08530426 0.5491791 0.22273254 1.0084076 0.41229248 1.3776855l4.1513824 0l0 -0.24145126c-0.39807892 -0.7480202 -0.6018524 -1.8511162 -0.61133575 -3.309288l0 -6.66119c0 -1.7232914 -0.5576248 -3.059948 -1.6728745 -4.009968c-1.1120911 -0.9531765 -2.6159363 -1.4297657 -4.5115433 -1.4297657z" fill-rule="evenodd"/><path fill="#434343" d="m127.34268 24.316168c1.2226715 0 2.1088715 0.4686985 2.6585999 1.4060936l0 6.462347c-0.5402527 0.937397 -1.4359283 1.4060936 -2.687027 1.4060936c-0.97624207 0 -1.7439651 -0.39452744 -2.3031693 -1.1835823c-0.5592041 -0.7922077 -0.83880615 -1.8842583 -0.83880615 -3.2761478c0 -1.6002007 0.28118134 -2.8027172 0.843544 -3.6075516c0.56552887 -0.80483437 1.3411484 -1.2072525 2.3268585 -1.2072525zm-1.0520554 -3.337696c-1.9050903 0 -3.4199982 0.71961784 -4.5447235 2.1588497c-1.1215668 1.4392338 -1.6823502 3.337696 -1.6823502 5.695389l0 0.17043495c0 2.386097 0.5702591 4.30192 1.7107849 5.747465c1.1436844 1.4423904 2.6396332 2.1635857 4.487854 2.1635857c1.5449142 0 2.791275 -0.5349808 3.73909 -1.6049347l0 0.8237686c0 1.0699577 -0.30329895 1.8953094 -0.90989685 2.4760513c-0.6065979 0.58390045 -1.4548798 0.8758507 -2.5448532 0.8758507c-1.4596176 0 -2.7012405 -0.5728531 -3.7248688 -1.7185593l-1.8197861 2.4997215c0.5497284 0.71014786 1.3600998 1.2893143 2.4311142 1.7374954c1.071022 0.45133972 2.1704712 0.67700577 3.2983627 0.67700577c1.4880524 0 2.7865448 -0.26038742 3.8954773 -0.78116226c1.1089325 -0.52077484 1.9682617 -1.2782669 2.5780182 -2.2724724c0.61291504 -0.9942093 0.91937256 -2.1635857 0.91937256 -3.508133l0 -14.856297l-3.7248688 0l-0.17060852 1.4487019c-0.938324 -1.1551743 -2.25103 -1.7327614 -3.938118 -1.7327614z" fill-rule="evenodd"/><path fill="#434343" d="m143.89134 24.301966c0.87197876 0 1.5449219 0.24934006 2.0188293 0.7480221c0.4738922 0.49552536 0.72032166 1.1977825 0.7392731 2.1067715l0 0.3266697l-5.7152557 0c0.1421814 -1.0226135 0.46600342 -1.8085117 0.9714966 -2.3576927c0.508667 -0.549181 1.1705475 -0.8237705 1.9856567 -0.8237705zm0.014221191 -3.323494c-1.4027557 0 -2.6522827 0.32982445 -3.7485657 0.98947334c-1.0931396 0.65649223 -1.9382629 1.5938873 -2.5353851 2.8121853c-0.59710693 1.2151432 -0.89567566 2.594408 -0.89567566 4.1377964l0 0.3976841c0 2.3008785 0.70770264 4.1425304 2.1230927 5.52495c1.4185486 1.3824234 3.2557068 2.073635 5.5114746 2.073635c1.279541 0 2.4453278 -0.24303055 3.4973907 -0.7290878c1.052063 -0.48921204 1.8861389 -1.1693764 2.5022125 -2.0404892l-2.0188293 -2.2582722c-0.8909302 1.1457043 -2.1278229 1.7185574 -3.7106476 1.7185574c-1.0236359 0 -1.8703308 -0.3029976 -2.5401154 -0.90898895c-0.666626 -0.60599136 -1.0662842 -1.4108276 -1.1989746 -2.414503l9.795563 0l0 -1.6759491c0 -2.4334412 -0.60502625 -4.3129673 -1.8150482 -5.6385765c-1.2068787 -1.3256092 -2.8623657 -1.9884148 -4.9664917 -1.9884148z" fill-rule="evenodd"/><path fill="#434343" d="m153.00447 26.119944l0 3.30929l8.004211 0l0 -3.30929z" fill-rule="evenodd"/><path fill="#434343" d="m172.55293 15.666564c-1.7250061 0 -3.239914 0.40557384 -4.5447235 1.2167215c-1.301651 0.8079891 -2.3031616 1.9694767 -3.0045319 3.484459c-0.7013855 1.5149822 -1.052063 3.2666817 -1.052063 5.2550964l0 1.2640629c0 3.1151829 0.75982666 5.565981 2.2794647 7.3524c1.5228119 1.7832603 3.6111298 2.6748924 6.264984 2.6748924c2.4263763 0 4.380432 -0.63913345 5.8621674 -1.9174004c1.4848938 -1.2782669 2.307907 -3.0299664 2.4690247 -5.2550964l-4.265106 0c-0.0947876 1.2593288 -0.46759033 2.1904106 -1.1184082 2.7932472c-0.64767456 0.59968185 -1.6302338 0.8995209 -2.9476776 0.8995209c-1.45961 0 -2.5290527 -0.5160408 -3.208313 -1.5481205c-0.6761017 -1.0320816 -1.0141602 -2.6654224 -1.0141602 -4.9000225l0 -1.5623245c0.018966675 -2.1399136 0.3807068 -3.7180195 1.0852356 -4.7343216c0.70770264 -1.0194569 1.7723999 -1.5291843 3.194107 -1.5291843c1.3079681 0 2.2810516 0.3014183 2.9192352 0.9042549c0.64134216 0.59967995 1.0141449 1.5670586 1.1184082 2.9021378l4.2651215 0c-0.22747803 -2.3103485 -1.0710144 -4.104656 -2.5306396 -5.382923c-1.4596252 -1.278265 -3.383667 -1.9173994 -5.7721252 -1.9173994z" fill-rule="evenodd"/><path fill="#434343" d="m189.98305 24.301966c1.0141449 0 1.800827 0.39294815 2.3600311 1.1788445c0.5592041 0.7858982 0.83880615 1.8937283 0.83880615 3.323494c0 1.6759491 -0.27960205 2.8958244 -0.83880615 3.659628c-0.5592041 0.7606468 -1.3364105 1.1409721 -2.331604 1.1409721c-1.0236206 0 -1.8103027 -0.38505936 -2.3600311 -1.1551743c-0.5497284 -0.77327347 -0.82458496 -1.8889942 -0.82458496 -3.3471642c0 -1.6380749 0.27485657 -2.8469048 0.82458496 -3.6264896c0.5497284 -0.78273964 1.3269348 -1.1741104 2.331604 -1.1741104zm0 -3.323494c-1.4596252 0 -2.7423096 0.3266678 -3.8480835 0.98000526c-1.1026154 0.6533356 -1.9477386 1.5765285 -2.5353699 2.769577c-0.5876465 1.1930485 -0.8814697 2.5517979 -0.8814697 4.07625l0 0.18463898c0 2.4429092 0.66030884 4.37451 1.9809113 5.7948055c1.3237762 1.4202995 3.0945892 2.1304474 5.312439 2.1304474c2.217865 0 3.9855194 -0.71172714 5.3029633 -2.1351814c1.3174591 -1.426609 1.976181 -3.318758 1.976181 -5.676449l-0.028442383 -1.0510197c-0.15164185 -2.1777859 -0.88461304 -3.9010792 -2.1988983 -5.169878c-1.3111267 -1.2687969 -3.004547 -1.9031963 -5.0802307 -1.9031963z" fill-rule="evenodd"/><path fill="#434343" d="m206.26158 24.316168c1.2605743 0 2.1467743 0.53497887 2.6585846 1.6049347l0 6.064665c-0.521286 1.0699577 -1.4169617 1.6049347 -2.687027 1.6049347c-0.9572754 0 -1.687088 -0.38348007 -2.1894226 -1.1504402c-0.5023346 -0.76696014 -0.7535095 -1.8700562 -0.7535095 -3.30929c0 -3.2098694 0.99046326 -4.814804 2.9713745 -4.814804zm2.6585846 -9.501781l0 7.8400345c-0.97624207 -1.1172981 -2.2131195 -1.6759491 -3.7106476 -1.6759491c-1.8671722 0 -3.3394318 0.71014786 -4.4167633 2.1304436c-1.0741882 1.4202976 -1.6112671 3.328228 -1.6112671 5.723795c0 2.5375957 0.54655457 4.5196953 1.6396942 5.9463043c1.0962982 1.4234543 2.549591 2.1351814 4.359894 2.1351814c1.6112671 0 2.9287262 -0.63913345 3.9523468 -1.9174004l0.19903564 1.6333389l3.7106628 0l0 -21.815748z" fill-rule="evenodd"/><path fill="#434343" d="m222.83867 24.301966c0.87197876 0 1.5449219 0.24934006 2.0188293 0.7480221c0.4738922 0.49552536 0.72032166 1.1977825 0.7392731 2.1067715l0 0.3266697l-5.7152557 0c0.1421814 -1.0226135 0.46600342 -1.8085117 0.97151184 -2.3576927c0.50865173 -0.549181 1.1705322 -0.8237705 1.9856415 -0.8237705zm0.014221191 -3.323494c-1.4027557 0 -2.6522827 0.32982445 -3.7485657 0.98947334c-1.0931396 0.65649223 -1.9382629 1.5938873 -2.5353851 2.8121853c-0.59710693 1.2151432 -0.8956604 2.594408 -0.8956604 4.1377964l0 0.3976841c0 2.3008785 0.7076874 4.1425304 2.1230774 5.52495c1.4185333 1.3824234 3.2557068 2.073635 5.5114746 2.073635c1.279541 0 2.4453278 -0.24303055 3.4973907 -0.7290878c1.052063 -0.48921204 1.8861389 -1.1693764 2.5022125 -2.0404892l-2.0188293 -2.2582722c-0.8909302 1.1457043 -2.1278229 1.7185574 -3.7106476 1.7185574c-1.0236359 0 -1.8703308 -0.3029976 -2.5401154 -0.90898895c-0.666626 -0.60599136 -1.0662842 -1.4108276 -1.1989746 -2.414503l9.795563 0l0 -1.6759491c0 -2.4334412 -0.60502625 -4.3129673 -1.8150482 -5.6385765c-1.2068787 -1.3256092 -2.8623657 -1.9884148 -4.9664917 -1.9884148z" fill-rule="evenodd"/><path fill="#666666" d="m88.55395 51.446198l0 12.1964035l7.950989 0l0 -2.0187721l-5.405319 0l0 -10.177631z" fill-rule="evenodd"/><path fill="#666666" d="m102.77579 59.52129l0 1.5580559c-0.1470871 0.26805115 -0.3733673 0.4821205 -0.67884827 0.6422081c-0.30548096 0.15822601 -0.6392517 0.23733902 -1.001297 0.23733902c-0.3733673 0 -0.6675339 -0.09772873 -0.8825073 -0.29318237c-0.21496582 -0.19545364 -0.32244873 -0.4439621 -0.32244873 -0.74552155l0.008483887 -0.14240265c0.079200745 -0.83766556 0.7325897 -1.2564964 1.9601746 -1.2564964zm-1.2304153 -5.1097603c-0.746727 0 -1.4199142 0.12751389 -2.0195694 0.38253403c-0.5996475 0.25316238 -1.0635223 0.6031189 -1.3916321 1.0498734c-0.32810974 0.44675446 -0.4921646 0.9326019 -0.4921646 1.4575386l2.4523315 0c0 -0.34064865 0.11691284 -0.6087036 0.35073853 -0.80415726c0.23571014 -0.19545746 0.56005096 -0.29318237 0.97301483 -0.29318237c0.46953583 0 0.8127289 0.1256485 1.0295868 0.3769493c0.21873474 0.251297 0.32810974 0.58636475 0.32810974 1.0051956l0 0.51935196l-1.1285858 0c-1.3633499 0.005584717 -2.4061356 0.2652626 -3.1283493 0.77902985c-0.7203369 0.51376724 -1.0804977 1.2509117 -1.0804977 2.2114372c0 0.7818184 0.29510498 1.429615 0.8853302 1.9433823c0.59210205 0.51376724 1.3378906 0.7706528 2.2373657 0.7706528c0.95038605 0 1.7225723 -0.32669067 2.3165588 -0.9800682c0.05091858 0.3238945 0.1329422 0.5947418 0.24608612 0.81253433l2.4777908 0l0 -0.14240265c-0.2375946 -0.44116974 -0.3592224 -1.0917587 -0.36488342 -1.9517593l0 -3.92865c0 -1.0163689 -0.3328247 -1.8047028 -0.9984665 -2.3650093c-0.66376495 -0.5621643 -1.561348 -0.8432503 -2.6927643 -0.8432503z" fill-rule="evenodd"/><path fill="#666666" d="m111.185 56.380043c0.58267975 0 1.0211029 0.21127701 1.3152695 0.63383484c0.29416656 0.42069244 0.44124603 1.0889626 0.44124603 2.0048103c0 0.7538986 -0.059394836 1.315136 -0.17819214 1.6837082c-0.248909 0.7706528 -0.7693634 1.1559792 -1.561348 1.1559792c-0.7863312 0 -1.3294067 -0.3183136 -1.6292343 -0.9549408l0 -3.576828c0.29416656 -0.6310425 0.83158875 -0.9465637 1.6122589 -0.9465637zm-4.0645905 -5.603977l0 12.866535l2.206253 0l0.110305786 -0.96331406c0.59399414 0.7538986 1.3888092 1.1308479 2.3844528 1.1308479c1.1257553 0 2.0026016 -0.40580368 2.6305313 -1.2174072c0.6279373 -0.81346893 0.94190216 -1.9461746 0.94190216 -3.3981285l0 -0.13402557c0 -1.4742928 -0.3186798 -2.617241 -0.95604706 -3.4288445c-0.63547516 -0.8134651 -1.5132599 -1.2201996 -2.6333542 -1.2201996c-0.9221039 0 -1.666008 0.32669067 -2.2317123 0.9800682l0 -4.615532z" fill-rule="evenodd"/><path fill="#666666" d="m120.85857 56.371666c0.60530853 0 1.0748444 0.2317543 1.4086075 0.6952629c0.33376312 0.4635086 0.5006485 1.1168861 0.5006485 1.9601364c0 0.9884453 -0.16688538 1.7079048 -0.5006485 2.1583824c-0.33376312 0.44861603 -0.79764557 0.67292786 -1.3916321 0.67292786c-0.6109619 0 -1.0804977 -0.22710419 -1.4086075 -0.6813011c-0.32810974 -0.45606613 -0.4921646 -1.1140976 -0.4921646 -1.9740982c0 -0.9661064 0.16405487 -1.6790543 0.4921646 -2.1388397c0.32810974 -0.46164703 0.79198456 -0.69247055 1.3916321 -0.69247055zm0 -1.9601364c-0.8711853 0 -1.6367722 0.1926651 -2.2967606 0.5779915c-0.65810394 0.3853264 -1.162529 0.92980576 -1.5132675 1.6334457c-0.35073853 0.70364 -0.5261078 1.5050049 -0.5261078 2.4040985l0 0.10889816c0 1.4407845 0.39411163 2.5800056 1.1823273 3.4176712c0.7901001 0.83766556 1.8470306 1.2565002 3.170784 1.2565002c1.3237457 0 2.3787918 -0.41976547 3.165123 -1.2592926c0.7863312 -0.8413887 1.1794968 -1.957344 1.1794968 -3.347866l-0.016975403 -0.61987305c-0.09051514 -1.28442 -0.52799225 -2.300785 -1.312439 -3.0491028c-0.7825546 -0.7483139 -1.7932816 -1.1224709 -3.0321808 -1.1224709z" fill-rule="evenodd"/><path fill="#666666" d="m131.16006 54.41153c-0.8711853 0 -1.5528564 0.41604233 -2.0450287 1.2481232l-0.06788635 -1.0805893l-2.3165588 0l0 9.063538l2.4523315 0l0 -5.930668c0.28851318 -0.61987305 0.8966522 -0.9298096 1.8244019 -0.9298096c0.25457764 0 0.5487366 0.022338867 0.8825073 0.06701279l0.033935547 -2.3287086c-0.2375946 -0.0725975 -0.49215698 -0.10889816 -0.7637024 -0.10889816z" fill-rule="evenodd"/><path fill="#666666" d="m137.78731 59.52129l0 1.5580559c-0.14707947 0.26805115 -0.3733673 0.4821205 -0.67884827 0.6422081c-0.30548096 0.15822601 -0.6392517 0.23733902 -1.001297 0.23733902c-0.3733673 0 -0.66752625 -0.09772873 -0.8825073 -0.29318237c-0.21496582 -0.19545364 -0.32244873 -0.4439621 -0.32244873 -0.74552155l0.008483887 -0.14240265c0.079208374 -0.83766556 0.7325897 -1.2564964 1.9601746 -1.2564964zm-1.2304077 -5.1097603c-0.7467346 0 -1.4199219 0.12751389 -2.019577 0.38253403c-0.5996399 0.25316238 -1.0635223 0.6031189 -1.3916321 1.0498734c-0.32810974 0.44675446 -0.49215698 0.9326019 -0.49215698 1.4575386l2.4523315 0c0 -0.34064865 0.11691284 -0.6087036 0.35073853 -0.80415726c0.23570251 -0.19545746 0.56004333 -0.29318237 0.9730072 -0.29318237c0.46954346 0 0.8127289 0.1256485 1.0295868 0.3769493c0.21873474 0.251297 0.32810974 0.58636475 0.32810974 1.0051956l0 0.51935196l-1.1285858 0c-1.3633423 0.005584717 -2.406128 0.2652626 -3.1283417 0.77902985c-0.7203369 0.51376724 -1.0805054 1.2509117 -1.0805054 2.2114372c0 0.7818184 0.29510498 1.429615 0.8853302 1.9433823c0.59210205 0.51376724 1.3378906 0.7706528 2.2373657 0.7706528c0.9503937 0 1.72258 -0.32669067 2.3165588 -0.9800682c0.05091858 0.3238945 0.13294983 0.5947418 0.24609375 0.81253433l2.4777832 0l0 -0.14240265c-0.2375946 -0.44116974 -0.3592224 -1.0917587 -0.36488342 -1.9517593l0 -3.92865c0 -1.0163689 -0.3328247 -1.8047028 -0.99845886 -2.3650093c-0.6637726 -0.5621643 -1.5613556 -0.8432503 -2.6927643 -0.8432503z" fill-rule="evenodd"/><path fill="#666666" d="m142.6156 52.350876l0 2.2281876l-1.3407135 0l0 1.7758522l1.3407135 0l0 4.883587c0.033950806 1.7144203 0.9107971 2.5716324 2.630539 2.5716324c0.50914 0 1.0041199 -0.0725975 1.4849701 -0.21779633l0 -1.8344841c-0.20930481 0.039089203 -0.4497223 0.05863571 -0.7212677 0.05863571c-0.3677063 0 -0.6166229 -0.0725975 -0.7467346 -0.21779251c-0.1301117 -0.145195 -0.19515991 -0.3853264 -0.19515991 -0.7203903l0 -4.5233917l1.5698242 0l0 -1.7758522l-1.5698242 0l0 -2.2281876z" fill-rule="evenodd"/><path fill="#666666" d="m151.70367 56.371666c0.6053009 0 1.0748291 0.2317543 1.4085999 0.6952629c0.33377075 0.4635086 0.5006561 1.1168861 0.5006561 1.9601364c0 0.9884453 -0.16688538 1.7079048 -0.5006561 2.1583824c-0.33377075 0.44861603 -0.79763794 0.67292786 -1.3916321 0.67292786c-0.6109619 0 -1.0805054 -0.22710419 -1.4086151 -0.6813011c-0.32810974 -0.45606613 -0.49215698 -1.1140976 -0.49215698 -1.9740982c0 -0.9661064 0.16404724 -1.6790543 0.49215698 -2.1388397c0.32810974 -0.46164703 0.7919922 -0.69247055 1.3916473 -0.69247055zm0 -1.9601364c-0.8711853 0 -1.6367798 0.1926651 -2.2967682 0.5779915c-0.6581116 0.3853264 -1.1625214 0.92980576 -1.5132599 1.6334457c-0.35073853 0.70364 -0.5261078 1.5050049 -0.5261078 2.4040985l0 0.10889816c0 1.4407845 0.394104 2.5800056 1.1823273 3.4176712c0.7901001 0.83766556 1.8470154 1.2565002 3.1707764 1.2565002c1.3237457 0 2.3787842 -0.41976547 3.1651154 -1.2592926c0.7863312 -0.8413887 1.1795044 -1.957344 1.1795044 -3.347866l-0.016967773 -0.61987305c-0.09051514 -1.28442 -0.5279999 -2.300785 -1.312439 -3.0491028c-0.78256226 -0.7483139 -1.7932892 -1.1224709 -3.0321808 -1.1224709z" fill-rule="evenodd"/><path fill="#666666" d="m162.00517 54.41153c-0.8711853 0 -1.5528717 0.41604233 -2.0450287 1.2481232l-0.06788635 -1.0805893l-2.3165588 0l0 9.063538l2.4523315 0l0 -5.930668c0.28851318 -0.61987305 0.89663696 -0.9298096 1.8244019 -0.9298096c0.25456238 0 0.5487366 0.022338867 0.88249207 0.06701279l0.033950806 -2.3287086c-0.2375946 -0.0725975 -0.49217224 -0.10889816 -0.7637024 -0.10889816z" fill-rule="evenodd"/><path fill="#666666" d="m163.15073 54.579063l3.216034 9.088665l-0.28851318 0.74552536c-0.1301117 0.32389832 -0.31019592 0.5556488 -0.5402527 0.6952591c-0.22816467 0.13961029 -0.57418823 0.20941925 -1.0380707 0.20941925l-0.37335205 -0.008377075l0 1.8344879c0.3677063 0.10610199 0.7297516 0.1591568 1.0861511 0.1591568c1.2615204 0 2.1666565 -0.59194946 2.7153778 -1.775856l0.20365906 -0.47746277l3.6912384 -10.470818l-2.630539 0l-1.697113 5.6374855l-1.7056122 -5.6374855z" fill-rule="evenodd"/><path fill="#000000" fill-opacity="0.0" d="m45.94401 19.337484l4.7824593 -4.8664055l25.912582 26.367414l-25.564026 26.014336l-25.73987 -26.190075l15.653685 -15.926853" fill-rule="evenodd"/><path stroke="#434343" stroke-width="4.0" stroke-linejoin="round" stroke-linecap="butt" d="m45.94401 19.337484l4.7824593 -4.8664055l25.912582 26.367414l-25.564026 26.014336l-25.73987 -26.190075l15.653685 -15.926853" fill-rule="evenodd"/><path fill="#000000" fill-opacity="0.0" d="m40.54828 61.98482l-4.6945343 4.423855l-25.7383 -26.012737l25.912579 -26.012737l25.215466 26.367416l-14.608013 14.864422" fill-rule="evenodd"/><path stroke="#434343" stroke-width="4.0" stroke-linejoin="round" stroke-linecap="butt" d="m40.54828 61.98482l-4.6945343 4.423855l-25.7383 -26.012737l25.912579 -26.012737l25.215466 26.367416l-14.608013 14.864422" fill-rule="evenodd"/></g></svg>